<svg xmlns="http://www.w3.org/2000/svg" width="140" height="51" viewBox="0 0 140 51">
    <g fill="none" fill-rule="evenodd">
        <rect width="140" height="51" fill="#333" rx="3.207"/>
        <g fill="#FFF">
            <path d="M29.86 25.014c-.031-3.408 2.807-5.066 2.936-5.143-1.607-2.33-4.098-2.648-4.973-2.674-2.092-.219-4.122 1.245-5.188 1.245-1.087 0-2.728-1.224-4.497-1.188-2.276.035-4.405 1.346-5.573 3.38-2.41 4.148-.613 10.245 1.697 13.598 1.155 1.642 2.504 3.476 4.271 3.411 1.728-.07 2.374-1.095 4.46-1.095 2.066 0 2.673 1.095 4.475 1.054 1.854-.03 3.022-1.65 4.137-3.307 1.335-1.882 1.871-3.736 1.892-3.83-.043-.016-3.602-1.366-3.637-5.451zM26.456 14.991c.93-1.155 1.566-2.728 1.39-4.323-1.346.059-3.029.925-3.998 2.055-.857.996-1.623 2.63-1.425 4.164 1.511.113 3.063-.758 4.033-1.896z"/>
        </g>
        <g fill="#FFF">
            <path d="M54.873 37.407h-2.416l-1.323-4.133h-4.599l-1.26 4.133h-2.352l4.557-14.072h2.814l4.579 14.072zm-4.138-5.867l-1.196-3.675c-.127-.375-.364-1.26-.714-2.651h-.042c-.14.598-.364 1.482-.673 2.65l-1.175 3.676h3.8zM66.59 32.209c0 1.726-.468 3.09-1.406 4.091-.84.892-1.884 1.337-3.13 1.337-1.344 0-2.31-.48-2.898-1.44h-.042v5.345h-2.268V30.601a69.11 69.11 0 0 0-.084-3.34h1.994l.127 1.607h.042c.757-1.211 1.904-1.816 3.444-1.816 1.204 0 2.21.472 3.014 1.419.806.947 1.208 2.193 1.208 3.738zm-2.31.082c0-.987-.223-1.801-.671-2.442-.49-.669-1.15-1.003-1.975-1.003-.559 0-1.067.186-1.522.553-.455.37-.753.854-.892 1.452-.07.28-.105.508-.105.688v1.691c0 .739.227 1.361.683 1.87.455.509 1.046.762 1.774.762.854 0 1.519-.327 1.994-.98.476-.655.715-1.518.715-2.59zM78.33 32.209c0 1.726-.469 3.09-1.408 4.091-.84.892-1.883 1.337-3.128 1.337-1.345 0-2.31-.48-2.897-1.44h-.043v5.345h-2.268V30.601a69.11 69.11 0 0 0-.084-3.34h1.995l.126 1.607h.043c.755-1.211 1.903-1.816 3.444-1.816 1.203 0 2.208.472 3.014 1.419.803.947 1.206 2.193 1.206 3.738zm-2.31.082c0-.987-.224-1.801-.673-2.442-.49-.669-1.147-1.003-1.973-1.003a2.37 2.37 0 0 0-1.523.553c-.456.37-.752.854-.892 1.452-.069.28-.105.508-.105.688v1.691c0 .739.228 1.361.68 1.87.456.508 1.047.762 1.777.762.854 0 1.519-.327 1.994-.98.477-.655.715-1.518.715-2.59zM91.455 33.461c0 1.197-.418 2.17-1.257 2.923-.922.821-2.206 1.232-3.855 1.232-1.524 0-2.745-.292-3.669-.877l.525-1.879a6.244 6.244 0 0 0 3.279.899c.854 0 1.518-.193 1.996-.575.475-.383.713-.897.713-1.538 0-.571-.196-1.052-.589-1.442-.39-.39-1.042-.753-1.952-1.088-2.479-.92-3.717-2.266-3.717-4.036 0-1.157.434-2.105 1.303-2.843.866-.74 2.021-1.108 3.466-1.108 1.288 0 2.358.223 3.212.668l-.567 1.838c-.798-.432-1.7-.647-2.71-.647-.797 0-1.42.195-1.867.584a1.666 1.666 0 0 0-.567 1.275c0 .556.216 1.016.65 1.377.378.335 1.064.696 2.06 1.086 1.217.488 2.112 1.058 2.687 1.711.573.652.86 1.467.86 2.44zM98.953 28.952h-2.5v4.927c0 1.253.44 1.879 1.324 1.879.405 0 .74-.035 1.007-.105l.063 1.712c-.447.166-1.035.25-1.764.25-.896 0-1.595-.272-2.1-.815-.504-.543-.757-1.455-.757-2.735V28.95h-1.489v-1.692h1.49V25.4l2.226-.668v2.526h2.5v1.694zM110.23 32.25c0 1.56-.448 2.84-1.344 3.842-.94 1.031-2.186 1.545-3.74 1.545-1.497 0-2.69-.494-3.579-1.482-.889-.987-1.334-2.234-1.334-3.737 0-1.572.458-2.86 1.376-3.861.916-1.003 2.151-1.504 3.705-1.504 1.498 0 2.703.494 3.613 1.482.87.96 1.304 2.198 1.304 3.715zm-2.352.073c0-.936-.201-1.738-.609-2.408-.475-.81-1.155-1.214-2.035-1.214-.912 0-1.604.405-2.08 1.214-.407.67-.608 1.486-.608 2.45 0 .936.2 1.739.608 2.407.49.81 1.176 1.214 2.06 1.214.865 0 1.545-.412 2.035-1.235.418-.682.629-1.493.629-2.428zM117.601 29.243a3.96 3.96 0 0 0-.714-.063c-.798 0-1.415.3-1.849.9-.377.528-.567 1.196-.567 2.003v5.324h-2.266l.02-6.951c0-1.17-.028-2.235-.084-3.195h1.975l.083 1.942h.063c.239-.668.617-1.205 1.133-1.608a2.752 2.752 0 0 1 1.64-.543c.21 0 .398.015.566.041v2.15zM127.743 31.854c0 .404-.026.744-.083 1.022h-6.803c.027 1.003.355 1.77.987 2.298.574.473 1.315.71 2.225.71 1.008 0 1.927-.16 2.753-.48l.355 1.565c-.965.418-2.106.627-3.421.627-1.583 0-2.825-.464-3.73-1.389-.901-.925-1.353-2.168-1.353-3.726 0-1.53.42-2.805 1.261-3.82.88-1.086 2.07-1.628 3.568-1.628 1.471 0 2.585.542 3.341 1.627.6.862.9 1.928.9 3.194zm-2.162-.585c.015-.668-.133-1.246-.44-1.733-.393-.627-.996-.94-1.808-.94-.741 0-1.344.305-1.805.919-.377.487-.602 1.072-.67 1.753h4.723z"/>
        </g>
        <g fill="#FFF">
            <path d="M49.986 14.677c0 1.245-.376 2.182-1.126 2.811-.694.58-1.681.871-2.96.871-.634 0-1.176-.027-1.63-.082v-6.8c.592-.096 1.23-.144 1.92-.144 1.217 0 2.135.263 2.754.79.694.595 1.042 1.446 1.042 2.554zm-1.176.031c0-.807-.215-1.425-.644-1.857-.43-.43-1.058-.646-1.884-.646-.351 0-.65.023-.898.072v5.17c.138.021.389.03.753.03.853 0 1.512-.235 1.976-.707.463-.472.697-1.159.697-2.062zM56.217 15.764c0 .767-.22 1.395-.66 1.888-.462.507-1.073.76-1.837.76-.736 0-1.322-.243-1.76-.73-.435-.485-.653-1.097-.653-1.835 0-.772.224-1.405.675-1.897.451-.492 1.057-.738 1.82-.738.737 0 1.328.242 1.776.727.426.472.64 1.081.64 1.825zm-1.156.036c0-.46-.1-.854-.299-1.183-.234-.397-.567-.596-1-.596-.447 0-.788.199-1.022.596-.2.329-.299.73-.299 1.204 0 .46.1.854.3 1.183.24.397.577.596 1.01.596.426 0 .76-.202 1-.607.207-.335.31-.733.31-1.193zM64.573 13.313l-1.569 4.985h-1.02l-.65-2.164a16.123 16.123 0 0 1-.404-1.611h-.02c-.097.548-.23 1.084-.403 1.61l-.69 2.165h-1.033l-1.475-4.985h1.145l.567 2.37c.137.56.25 1.095.34 1.6h.02c.084-.417.22-.947.414-1.59l.712-2.379h.908l.682 2.329c.165.568.299 1.114.402 1.641h.031a15.6 15.6 0 0 1 .34-1.641l.609-2.329h1.094zM70.352 18.298h-1.115v-2.855c0-.88-.336-1.32-1.01-1.32-.331 0-.598.12-.805.363-.206.242-.31.528-.31.854v2.957h-1.115v-3.56c0-.437-.013-.912-.04-1.426h.98l.052.78h.03c.13-.243.324-.442.578-.602.302-.186.64-.28 1.01-.28.469 0 .858.15 1.167.451.385.37.578.92.578 1.652v2.986zM73.426 18.298h-1.114v-7.272h1.114zM79.988 15.764c0 .767-.22 1.395-.66 1.888-.462.507-1.074.76-1.837.76-.737 0-1.323-.243-1.76-.73-.435-.485-.653-1.097-.653-1.835 0-.772.224-1.405.675-1.897.451-.492 1.057-.738 1.82-.738.737 0 1.327.242 1.776.727.426.472.64 1.081.64 1.825zm-1.157.036c0-.46-.1-.854-.299-1.183-.233-.397-.567-.596-.998-.596-.45 0-.79.199-1.023.596-.2.329-.298.73-.298 1.204 0 .46.1.854.298 1.183.242.397.578.596 1.012.596.425 0 .758-.202.999-.607.207-.335.31-.733.31-1.193zM85.383 18.298h-1l-.084-.574h-.03c-.343.458-.831.687-1.465.687-.473 0-.856-.15-1.145-.451a1.411 1.411 0 0 1-.392-1.015c0-.61.255-1.074.769-1.395.513-.322 1.234-.48 2.162-.472v-.093c0-.657-.347-.984-1.041-.984-.495 0-.93.123-1.307.369l-.227-.728c.466-.286 1.041-.43 1.72-.43 1.31 0 1.968.687 1.968 2.062v1.836c0 .498.024.894.072 1.188zm-1.157-1.713v-.769c-1.23-.02-1.844.314-1.844 1.005 0 .26.07.455.213.585.144.13.327.194.545.194.245 0 .473-.077.682-.23a.944.944 0 0 0 .404-.785zM91.717 18.298h-.99l-.051-.8h-.031c-.316.609-.854.913-1.61.913-.605 0-1.108-.236-1.507-.707-.398-.472-.597-1.084-.597-1.836 0-.807.216-1.46.65-1.96.42-.465.934-.697 1.547-.697.673 0 1.145.225 1.413.676h.02v-2.861h1.117v5.93c0 .485.012.932.039 1.342zm-1.155-2.102v-.831c0-.144-.01-.26-.03-.35a1.26 1.26 0 0 0-.404-.67 1.1 1.1 0 0 0-.746-.272c-.416 0-.741.163-.98.492-.238.33-.358.749-.358 1.262 0 .493.114.892.343 1.2.241.328.567.492.974.492.366 0 .658-.137.88-.41.216-.253.32-.558.32-.913zM101.25 15.764c0 .767-.22 1.395-.66 1.888-.462.507-1.072.76-1.837.76-.735 0-1.321-.243-1.76-.73-.435-.485-.653-1.097-.653-1.835 0-.772.224-1.405.675-1.897.45-.492 1.057-.738 1.822-.738.735 0 1.327.242 1.774.727.426.472.64 1.081.64 1.825zm-1.155.036c0-.46-.1-.854-.299-1.183-.235-.397-.567-.596-1-.596-.447 0-.788.199-1.023.596-.2.329-.299.73-.299 1.204 0 .46.1.854.3 1.183.24.397.577.596 1.01.596.426 0 .761-.202 1.002-.607.205-.335.31-.733.31-1.193zM107.244 18.298h-1.114v-2.855c0-.88-.336-1.32-1.011-1.32-.331 0-.598.12-.804.363-.207.242-.31.528-.31.854v2.957h-1.116v-3.56c0-.437-.012-.912-.039-1.426h.979l.052.78h.03c.131-.243.325-.442.578-.602.303-.186.64-.28 1.012-.28.466 0 .856.15 1.165.451.386.37.578.92.578 1.652v2.986zM114.746 14.143h-1.228v2.422c0 .615.218.923.65.923.2 0 .366-.017.497-.052l.029.841c-.22.082-.51.124-.866.124-.44 0-.783-.134-1.03-.4-.25-.266-.373-.715-.373-1.344v-2.514h-.733v-.83h.733V12.4l1.092-.328v1.24h1.228v.831zM120.647 18.298h-1.116v-2.834c0-.893-.336-1.34-1.01-1.34-.516 0-.87.258-1.063.777a1.385 1.385 0 0 0-.052.398v2.998h-1.114v-7.271h1.114v3.004h.021c.351-.546.854-.82 1.506-.82.462 0 .844.15 1.147.452.377.376.567.934.567 1.672v2.964zM126.734 15.57c0 .199-.015.366-.042.502h-3.343c.015.493.175.868.484 1.129.283.232.648.348 1.095.348.494 0 .945-.078 1.352-.235l.174.77c-.475.205-1.035.307-1.683.307-.776 0-1.388-.227-1.83-.682-.445-.455-.665-1.065-.665-1.83 0-.752.205-1.378.62-1.877.431-.533 1.015-.8 1.752-.8.721 0 1.269.267 1.639.8.299.423.447.946.447 1.568zm-1.064-.287a1.485 1.485 0 0 0-.216-.85c-.193-.309-.488-.463-.887-.463-.364 0-.66.15-.887.452-.185.24-.295.526-.33.861h2.32z"/>
        </g>
    </g>
</svg>
