<?xml version="1.0" encoding="UTF-8"?>
<svg width="62px" height="62px" viewBox="0 0 62 62" version="1.1" xmlns="http://www.w3.org/2000/svg" xmlns:xlink="http://www.w3.org/1999/xlink">
    <!-- Generator: Sketch 54.1 (76490) - https://sketchapp.com -->
    <title>ic_newrecipes</title>
    <desc>Created with Sketch.</desc>
    <g id="ic_newrecipes" stroke="none" stroke-width="1" fill="none" fill-rule="evenodd">
        <g id="ic_maker3" transform="translate(1.000000, 3.000000)">
            <rect id="Rectangle-Copy-2" x="4" y="0" width="56" height="56"></rect>
            <g id="Group" transform="translate(14.000000, 6.000000)" fill="#333333">
                <path d="M25.901,44 L10.099,44 C7.249,44 4.775,41.972 4.216,39.177 L2.02,28.197 C1.911,27.655 2.263,27.128 2.804,27.02 C3.348,26.912 3.872,27.263 3.981,27.804 L6.177,38.785 C6.55,40.648 8.199,42 10.099,42 L25.901,42 C27.802,42 29.451,40.648 29.824,38.785 L32.02,27.804 C32.128,27.263 32.653,26.911 33.197,27.02 C33.738,27.128 34.089,27.655 33.981,28.197 L31.785,39.177 C31.226,41.972 28.751,44 25.901,44" id="Fill-571"></path>
                <path d="M17,32 C14.221,32 11.609,30.696 9.913,28.525 C8.831,29.465 7.441,30 6,30 C2.692,30 0,27.309 0,24 C0,21.399 1.653,19.158 4.051,18.342 C4.017,18.059 4,17.777 4,17.5 C4,13.158 7.701,9.631 12.129,10.029 C12.44,9.451 12.81,8.905 13.235,8.4 C13.59,7.977 14.221,7.923 14.644,8.278 C15.067,8.633 15.121,9.264 14.766,9.687 C14.299,10.242 13.915,10.859 13.626,11.52 L13.307,12.251 L12.522,12.101 C12.175,12.034 11.831,12 11.5,12 C8.468,12 6,14.468 6,17.5 C6,17.937 6.057,18.374 6.174,18.836 L6.441,19.894 L5.365,20.068 C3.447,20.38 2,22.071 2,24 C2,26.206 3.795,28 6,28 C7.263,28 8.47,27.376 9.229,26.331 L10.142,25.074 L10.909,26.425 C12.158,28.631 14.492,30 17,30 C18.846,30 20.591,29.279 21.914,27.969 L22.492,27.398 L23.169,27.845 C24.315,28.601 25.64,29 27,29 C30.86,29 34,25.86 34,22 C34,18.816 31.836,16.032 28.738,15.23 L28.01,15.042 L27.989,14.29 C27.904,11.276 25.944,8.537 23.111,7.473 C22.594,7.279 22.332,6.702 22.527,6.185 C22.72,5.667 23.299,5.407 23.814,5.601 C27.225,6.882 29.568,9.937 29.94,13.506 C33.542,14.754 36,18.149 36,22 C36,26.963 31.963,31 27,31 C25.508,31 24.051,30.628 22.741,29.918 C21.125,31.266 19.115,32 17,32" id="Fill-572"></path>
                <path d="M10.098,44 C9.612,44 9.185,43.645 9.111,43.149 L7.011,29.149 C6.929,28.603 7.305,28.093 7.851,28.012 C8.397,27.924 8.907,28.306 8.988,28.852 L11.088,42.852 C11.17,43.398 10.794,43.908 10.248,43.989 L10.098,44" id="Fill-573"></path>
                <path d="M18,44 C17.448,44 17,43.553 17,43 L17,31 C17,30.448 17.448,30 18,30 C18.553,30 19,30.448 19,31 L19,43 C19,43.553 18.553,44 18,44" id="Fill-574"></path>
                <path d="M25.001,44 L24.775,43.975 C24.237,43.851 23.902,43.314 24.026,42.775 L27.026,29.775 C27.151,29.237 27.69,28.905 28.225,29.026 C28.764,29.15 29.099,29.687 28.975,30.226 L25.975,43.226 C25.868,43.688 25.456,44 25.001,44" id="Fill-575"></path>
                <path d="M21.002,44 L20.85,43.989 C20.304,43.906 19.929,43.396 20.012,42.85 L22.012,29.715 C22.095,29.168 22.611,28.797 23.151,28.876 C23.697,28.96 24.072,29.47 23.989,30.016 L21.989,43.151 C21.913,43.646 21.487,44 21.002,44" id="Fill-576"></path>
                <path d="M14.999,44 C14.514,44 14.088,43.647 14.012,43.152 L12.012,30.152 C11.928,29.606 12.303,29.096 12.849,29.012 C13.388,28.93 13.904,29.302 13.989,29.849 L15.989,42.849 C16.073,43.395 15.698,43.905 15.152,43.989 L14.999,44" id="Fill-577"></path>
                <path d="M18,2 C15.795,2 14,3.795 14,6 C14,8.206 15.795,10 18,10 C20.206,10 22,8.206 22,6 C22,3.795 20.206,2 18,2 Z M18,12 C14.692,12 12,9.309 12,6 C12,2.692 14.692,0 18,0 C21.309,0 24,2.692 24,6 C24,9.309 21.309,12 18,12 L18,12 Z" id="Fill-578"></path>
                <path d="M16.6,17.101 C16.325,17.101 16.1,17.325 16.1,17.601 C16.1,17.876 16.325,18.101 16.6,18.101 C16.876,18.101 17.1,17.876 17.1,17.601 C17.1,17.325 16.876,17.101 16.6,17.101 Z M16.6,19.101 C15.773,19.101 15.1,18.428 15.1,17.601 C15.1,16.773 15.773,16.101 16.6,16.101 C17.428,16.101 18.1,16.773 18.1,17.601 C18.1,18.428 17.428,19.101 16.6,19.101 L16.6,19.101 Z" id="Fill-579"></path>
                <path d="M12.6,15.101 C12.325,15.101 12.1,15.325 12.1,15.601 C12.1,15.876 12.325,16.101 12.6,16.101 C12.876,16.101 13.1,15.876 13.1,15.601 C13.1,15.325 12.876,15.101 12.6,15.101 Z M12.6,17.101 C11.773,17.101 11.1,16.428 11.1,15.601 C11.1,14.773 11.773,14.101 12.6,14.101 C13.428,14.101 14.1,14.773 14.1,15.601 C14.1,16.428 13.428,17.101 12.6,17.101 L12.6,17.101 Z" id="Fill-580"></path>
                <path d="M23.6,13.101 C23.325,13.101 23.1,13.325 23.1,13.601 C23.1,13.876 23.325,14.101 23.6,14.101 C23.876,14.101 24.1,13.876 24.1,13.601 C24.1,13.325 23.876,13.101 23.6,13.101 Z M23.6,15.101 C22.773,15.101 22.1,14.428 22.1,13.601 C22.1,12.773 22.773,12.101 23.6,12.101 C24.428,12.101 25.1,12.773 25.1,13.601 C25.1,14.428 24.428,15.101 23.6,15.101 L23.6,15.101 Z" id="Fill-581"></path>
                <path d="M23.6,24.101 C23.325,24.101 23.1,24.325 23.1,24.601 C23.1,24.876 23.325,25.101 23.6,25.101 C23.876,25.101 24.1,24.876 24.1,24.601 C24.1,24.325 23.876,24.101 23.6,24.101 Z M23.6,26.101 C22.773,26.101 22.1,25.428 22.1,24.601 C22.1,23.773 22.773,23.101 23.6,23.101 C24.428,23.101 25.1,23.773 25.1,24.601 C25.1,25.428 24.428,26.101 23.6,26.101 L23.6,26.101 Z" id="Fill-582"></path>
                <path d="M13.6,24.101 C13.325,24.101 13.1,24.325 13.1,24.601 C13.1,24.876 13.325,25.101 13.6,25.101 C13.876,25.101 14.1,24.876 14.1,24.601 C14.1,24.325 13.876,24.101 13.6,24.101 Z M13.6,26.101 C12.773,26.101 12.1,25.428 12.1,24.601 C12.1,23.773 12.773,23.101 13.6,23.101 C14.428,23.101 15.1,23.773 15.1,24.601 C15.1,25.428 14.428,26.101 13.6,26.101 L13.6,26.101 Z" id="Fill-583"></path>
            </g>
            <path d="M20.1723205,0.38354335 L34.8276795,8.75830735 C35.7220776,9.26940863 36.5,10.6018742 36.5,11.625236 L36.5,28.374764 C36.5,29.3969666 35.7230919,30.7300118 34.8276795,31.2416927 L20.1723205,39.6164566 C19.2779224,40.1275579 17.7230919,40.1281375 16.8276795,39.6164566 L2.17232051,31.2416927 C1.27792243,30.7305914 0.5,29.3981258 0.5,28.374764 L0.5,11.625236 C0.5,10.6030334 1.27690814,9.26998824 2.17232051,8.75830735 L16.8276795,0.38354335 C17.7220776,-0.127557936 19.2769081,-0.128137549 20.1723205,0.38354335 Z" id="Shape-Copy-2" fill="#4EB713" opacity="0.1"></path>
        </g>
    </g>
</svg>