<svg xmlns="http://www.w3.org/2000/svg" width="140" height="51" viewBox="0 0 140 51">
    <defs>
        <linearGradient id="a" x1="60.157%" x2="33.558%" y1="74.096%" y2="-13.102%">
            <stop offset="0%" stop-color="#D6FFA1"/>
            <stop offset="32.64%" stop-color="#93E2A7"/>
            <stop offset="100%" stop-color="#00A3B5"/>
        </linearGradient>
        <linearGradient id="b" x1="-32.172%" x2="80.167%" y1="-60.082%" y2="89.197%">
            <stop offset="0%" stop-color="#FF177B"/>
            <stop offset="67.21%" stop-color="#FFA976"/>
            <stop offset="100%" stop-color="#FFEC73"/>
        </linearGradient>
        <linearGradient id="c" x1="50.233%" x2="35.777%" y1="74.663%" y2="-29.336%">
            <stop offset="0%" stop-color="#63FFD4"/>
            <stop offset="48.54%" stop-color="#32A0BA"/>
            <stop offset="83.49%" stop-color="#1262A9"/>
            <stop offset="100%" stop-color="#064AA2"/>
        </linearGradient>
        <linearGradient id="d" x1="119.508%" x2="-23.112%" y1="41.594%" y2="56.401%">
            <stop offset="0%" stop-color="#FF4521"/>
            <stop offset="34.11%" stop-color="#D43E65"/>
            <stop offset="79.35%" stop-color="#9F36B9"/>
            <stop offset="100%" stop-color="#8A33DB"/>
        </linearGradient>
    </defs>
    <g fill="none" fill-rule="evenodd">
        <rect width="140" height="51" fill="#333" rx="3.207"/>
        <path d="M21.32 32.406l3.58-3.612-3.58 3.612L9.78 20.931 21.32 32.406 9.779 43.881 21.32 32.406l3.633 3.613z"/>
        <path fill="url(#a)" d="M15.817 8.075L1.763.425C1.39.213 1.015.159.695.265l11.542 11.422 3.58-3.612z" transform="translate(9.084 20.719)"/>
        <path fill="url(#b)" d="M15.87 15.3l4.81-2.603c.961-.531.961-1.381 0-1.913l-4.81-2.656-3.633 3.56L15.87 15.3z" transform="translate(9.084 20.719)"/>
        <path fill="url(#c)" d="M.695.212C.267.372 0 .797 0 1.434v20.507c0 .637.267 1.062.695 1.222l11.542-11.476L.695.213z" transform="translate(9.084 20.719)"/>
        <path fill="url(#d)" d="M.695 23.163c.32.106.694.053 1.068-.16L15.817 15.3l-3.58-3.613L.695 23.163z" transform="translate(9.084 20.719)"/>
        <g fill="#FFF">
            <path d="M125.424 41.438l6.026-13.813h-1.962l-2.788 6.887h-.04l-2.865-6.887h-1.963l3.965 8.98-2.237 4.833h1.864M117.023 27.625c-2.412 0-3.57 1.431-3.902 2.301l1.647.696c.333-.89 1.294-1.373 2.294-1.373 1.353 0 2.51.87 2.51 2.301v.271c-.373-.213-1.314-.58-2.608-.58-2.255 0-4.216 1.16-4.216 3.306 0 1.973 1.627 3.172 3.589 3.172 1.647 0 2.627-.832 3.157-1.625h.078v1.315h1.726v-5.723c0-2.669-1.922-4.061-4.275-4.061zm-.392 8.47c-.941 0-2-.503-2-1.509 0-.87.745-1.875 2.647-1.875 1.53 0 2.294.618 2.294.618 0 1.547-1.51 2.765-2.941 2.765zM110.076 23.906h1.603V37.72h-1.603zM104.126 23.906h-4.737V37.72h1.786v-5.595h2.95c2.31 0 4.348-1.697 4.348-4.108 0-2.412-2.038-4.11-4.347-4.11zm.038 6.52h-2.989v-4.822h2.99c1.59 0 2.484 1.312 2.484 2.412 0 1.099-.893 2.41-2.485 2.41zM86.824 33.015a2.571 2.571 0 0 1 2.481-2.709c.827 0 1.528.405 1.762.985l-4.243 1.724zm2.643 4.785c2.175 0 3.433-1.302 3.955-2.058l-1.618-1.056c-.54.774-1.277 1.285-2.337 1.285-1.06 0-1.816-.476-2.301-1.408l6.345-2.568-.215-.528c-.396-1.038-1.6-2.955-4.063-2.955-2.445 0-4.476 1.882-4.476 4.644 0 2.603 2.013 4.644 4.71 4.644zM81.665 37.518h2.085v-13.65h-2.085zM75.715 41.969c-2.301 0-3.686-1.513-4.207-2.744l1.816-.739c.323.756 1.114 1.653 2.39 1.653 1.564 0 2.535-.95 2.535-2.726v-.669h-.072c-.467.563-1.366 1.056-2.498 1.056-2.373 0-4.548-2.023-4.548-4.626 0-2.622 2.175-4.662 4.548-4.662 1.132 0 2.031.492 2.498 1.038h.072v-.757h1.978v8.338c0 3.43-2.068 4.838-4.512 4.838zm.144-5.998c1.42 0 2.534-1.18 2.534-2.797 0-1.637-1.115-2.833-2.534-2.833-1.439 0-2.643 1.196-2.643 2.833 0 1.618 1.204 2.797 2.643 2.797zM65.504 37.8c-2.625 0-4.764-1.97-4.764-4.644 0-2.692 2.14-4.644 4.764-4.644 2.625 0 4.764 1.952 4.764 4.644 0 2.674-2.14 4.644-4.764 4.644zm0-1.83c1.438 0 2.679-1.16 2.679-2.814 0-1.671-1.241-2.815-2.679-2.815-1.438 0-2.678 1.144-2.678 2.815 0 1.653 1.24 2.815 2.678 2.815zM55.114 37.8c-2.625 0-4.765-1.97-4.765-4.644 0-2.692 2.14-4.644 4.765-4.644 2.624 0 4.763 1.952 4.763 4.644 0 2.674-2.139 4.644-4.763 4.644zm0-1.83c1.438 0 2.678-1.16 2.678-2.814 0-1.671-1.24-2.815-2.678-2.815-1.439 0-2.679 1.144-2.679 2.815 0 1.653 1.24 2.815 2.679 2.815zM42.745 37.8c2.194 0 3.848-.704 5.142-2.023 1.33-1.302 1.744-3.131 1.744-4.61 0-.456-.036-.878-.108-1.23h-6.778v1.97h4.818c-.144 1.108-.52 1.917-1.096 2.48-.701.686-1.798 1.443-3.722 1.443-2.966 0-5.285-2.34-5.285-5.242 0-2.903 2.32-5.242 5.285-5.242 1.6 0 2.769.615 3.632 1.407l1.42-1.39c-1.204-1.126-2.805-1.988-5.052-1.988-4.062 0-7.478 3.237-7.478 7.213 0 3.975 3.416 7.212 7.478 7.212z"/>
        </g>
        <path fill="#FFF" d="M40.597 16.11a1.943 1.943 0 0 1-.708.558c-.179.087-.394.16-.646.22-.252.059-.548.089-.887.089-.382 0-.732-.065-1.05-.195a2.276 2.276 0 0 1-.82-.565 2.575 2.575 0 0 1-.533-.909c-.127-.36-.19-.77-.19-1.232v-.399c0-.46.057-.87.171-1.23a2.57 2.57 0 0 1 .493-.916 2.09 2.09 0 0 1 .785-.568 2.69 2.69 0 0 1 1.052-.195c.37 0 .693.048.968.143a1.868 1.868 0 0 1 1.144 1.013c.109.236.181.496.217.778h-1.035a1.765 1.765 0 0 0-.125-.436 1.06 1.06 0 0 0-.24-.344 1.083 1.083 0 0 0-.376-.229 1.53 1.53 0 0 0-.532-.083c-.248 0-.463.046-.645.137a1.2 1.2 0 0 0-.455.4 1.889 1.889 0 0 0-.272.648c-.06.256-.09.547-.09.874v.407c0 .332.037.626.109.882.072.256.176.47.311.645.135.174.3.307.493.398.193.092.412.137.657.137.181 0 .336-.011.466-.035.129-.023.238-.053.327-.09a.97.97 0 0 0 .36-.24V14.59h-1.253v-.797h2.304v2.316zm4.713-1.914h-2.496v1.86h2.918v.838h-3.974V10.85h3.945v.846h-2.889v1.669h2.496v.83zm5.674-2.499h-1.895v5.197H48.04v-5.197h-1.879v-.846h4.822v.846zm4.04 5.197h-1.051V10.85h1.052v6.043zm5.69-5.197H58.82v5.197h-1.048v-5.197h-1.879v-.846h4.822v.846zm7.778 2.333c0 .46-.06.87-.181 1.235a2.685 2.685 0 0 1-.512.925c-.22.253-.484.448-.793.583a2.528 2.528 0 0 1-1.027.204c-.373 0-.714-.068-1.023-.204a2.278 2.278 0 0 1-.8-.583 2.68 2.68 0 0 1-.521-.925 3.82 3.82 0 0 1-.186-1.235v-.307c0-.46.062-.872.186-1.237a2.74 2.74 0 0 1 .518-.93c.22-.254.486-.45.795-.585.309-.135.65-.203 1.023-.203.375 0 .718.068 1.029.203.31.136.576.33.797.585.221.255.392.565.514.93.12.365.181.778.181 1.237v.307zm-1.056-.315c0-.338-.033-.636-.098-.895a1.902 1.902 0 0 0-.286-.65 1.237 1.237 0 0 0-.461-.396 1.383 1.383 0 0 0-.62-.135 1.259 1.259 0 0 0-1.07.531c-.128.175-.225.391-.293.65a3.524 3.524 0 0 0-.103.895v.315c0 .338.034.636.103.896.068.26.166.478.294.654.128.176.283.309.465.399.183.09.387.134.612.134.468 0 .827-.177 1.08-.53.251-.355.377-.872.377-1.553v-.315zm6.93 3.179H73.31l-2.71-4.288v4.288h-1.056V10.85H70.6l2.718 4.304V10.85h1.048v6.043z"/>
    </g>
</svg>
