<?xml version="1.0" encoding="UTF-8"?>
<svg width="62px" height="62px" viewBox="0 0 62 62" version="1.1" xmlns="http://www.w3.org/2000/svg" xmlns:xlink="http://www.w3.org/1999/xlink">
    <!-- Generator: Sketch 54.1 (76490) - https://sketchapp.com -->
    <title>ic_harvestpeak</title>
    <desc>Created with Sketch.</desc>
    <g id="ic_harvestpeak" stroke="none" stroke-width="1" fill="none" fill-rule="evenodd">
        <g id="Group-20" transform="translate(0.000000, 1.000000)">
            <g id="Group-9" transform="translate(8.000000, 5.000000)">
                <rect id="Rectangle-Copy-2" x="0" y="0" width="56" height="56"></rect>
                <g id="Group-2" transform="translate(6.000000, 5.000000)" fill="#333333">
                    <path d="M39.7261508,4.0688968 C41.5231508,5.8668968 43.0061508,8.6208968 40.3981508,11.8128968 L31.9811508,3.3958968 C35.1731508,0.788896804 37.9291508,2.2708968 39.7261508,4.0688968 Z M21.8971508,41.8968968 C11.9721508,41.8968968 3.8971508,33.8228968 3.8971508,23.8968968 C3.8971508,13.9718968 11.9721508,5.8968968 21.8971508,5.8968968 C31.8221508,5.8968968 39.8971508,13.9718968 39.8971508,23.8968968 C39.8971508,33.8228968 31.8221508,41.8968968 21.8971508,41.8968968 Z M33.5551508,42.9258968 L31.2691508,41.5538968 C31.9131508,41.2108968 32.5381508,40.8358968 33.1381508,40.4268968 L33.5551508,42.9258968 Z M10.2391508,42.9258968 L10.6561508,40.4268968 C11.2561508,40.8358968 11.8811508,41.2108968 12.5251508,41.5538968 L10.2391508,42.9258968 Z M3.3961508,11.8128968 C0.788150798,8.6208968 2.2711508,5.8668968 4.0681508,4.0688968 C5.1681508,2.9688968 6.6261508,1.9868968 8.3221508,1.9868968 C9.3991508,1.9868968 10.5731508,2.3828968 11.8131508,3.3958968 L3.3961508,11.8128968 Z M39.7261508,13.9678968 C39.9211508,14.1638968 40.1771508,14.2608968 40.4331508,14.2608968 C40.6891508,14.2608968 40.9441508,14.1638968 41.1401508,13.9678968 C44.4391508,10.6698968 44.6611508,6.7748968 41.8151508,3.3938968 L42.5541508,2.6548968 C42.9441508,2.2638968 42.9441508,1.6308968 42.5541508,1.2408968 C42.1631508,0.849896804 41.5301508,0.849896804 41.1401508,1.2408968 L40.4011508,1.9798968 C37.0191508,-0.867103196 33.1241508,-0.644103196 29.8261508,2.6548968 C29.4361508,3.0448968 29.4361508,3.6778968 29.8261508,4.0688968 L33.0871508,7.3288968 C29.8911508,5.1638968 26.0391508,3.8968968 21.8971508,3.8968968 C17.7551508,3.8968968 13.9031508,5.1638968 10.7071508,7.3288968 L13.9681508,4.0688968 C14.3581508,3.6778968 14.3581508,3.0448968 13.9681508,2.6548968 C10.6691508,-0.645103196 6.7741508,-0.867103196 3.3931508,1.9798968 L2.6541508,1.2408968 C2.2641508,0.849896804 1.6311508,0.849896804 1.2401508,1.2408968 C0.850150798,1.6308968 0.850150798,2.2638968 1.2401508,2.6548968 L1.9791508,3.3938968 C-0.866849202,6.7748968 -0.644849202,10.6698968 2.6541508,13.9678968 C2.8501508,14.1638968 3.1051508,14.2608968 3.3611508,14.2608968 C3.6171508,14.2608968 3.8731508,14.1638968 4.0681508,13.9678968 L5.3291508,12.7078968 C3.1641508,15.9028968 1.8971508,19.7548968 1.8971508,23.8968968 C1.8971508,29.9448968 4.6061508,35.3618968 8.8611508,39.0318968 L7.9111508,44.7328968 C7.8471508,45.1178968 8.0121508,45.5038968 8.3341508,45.7238968 C8.5031508,45.8388968 8.7001508,45.8968968 8.8971508,45.8968968 C9.0751508,45.8968968 9.2531508,45.8498968 9.4121508,45.7548968 L14.4121508,42.7548968 C14.5141508,42.6928968 14.5941508,42.6108968 14.6651508,42.5228968 C16.9121508,43.3988968 19.3451508,43.8968968 21.8971508,43.8968968 C24.4491508,43.8968968 26.8821508,43.3988968 29.1291508,42.5228968 C29.2001508,42.6108968 29.2801508,42.6928968 29.3821508,42.7548968 L34.3821508,45.7548968 C34.5411508,45.8498968 34.7191508,45.8968968 34.8971508,45.8968968 C35.0941508,45.8968968 35.2911508,45.8388968 35.4601508,45.7238968 C35.7821508,45.5038968 35.9471508,45.1178968 35.8831508,44.7328968 L34.9331508,39.0318968 C39.1881508,35.3618968 41.8971508,29.9448968 41.8971508,23.8968968 C41.8971508,19.7548968 40.6301508,15.9028968 38.4651508,12.7078968 L39.7261508,13.9678968 L39.7261508,13.9678968 Z" id="Fill-134"></path>
                    <path d="M34.8971508,24.8968968 L36.8461508,24.8968968 C36.6221508,28.2798968 35.2771508,31.3548968 33.1721508,33.7578968 L31.7961508,32.3828968 C31.4061508,31.9918968 30.7731508,31.9918968 30.3821508,32.3828968 C29.9921508,32.7728968 29.9921508,33.4058968 30.3821508,33.7968968 L31.7581508,35.1718968 C29.3541508,37.2768968 26.2801508,38.6218968 22.8971508,38.8468968 L22.8971508,36.8968968 C22.8971508,36.3448968 22.4491508,35.8968968 21.8971508,35.8968968 C21.3451508,35.8968968 20.8971508,36.3448968 20.8971508,36.8968968 L20.8971508,38.8468968 C17.5141508,38.6218968 14.4401508,37.2768968 12.0361508,35.1718968 L13.4121508,33.7968968 C13.8021508,33.4058968 13.8021508,32.7728968 13.4121508,32.3828968 C13.0211508,31.9918968 12.3881508,31.9918968 11.9981508,32.3828968 L10.6221508,33.7578968 C8.5171508,31.3548968 7.1721508,28.2798968 6.9481508,24.8968968 L8.8971508,24.8968968 C9.4491508,24.8968968 9.8971508,24.4498968 9.8971508,23.8968968 C9.8971508,23.3448968 9.4491508,22.8968968 8.8971508,22.8968968 L6.9481508,22.8968968 C7.1721508,19.5148968 8.5171508,16.4398968 10.6221508,14.0368968 L11.9981508,15.4118968 C12.1931508,15.6068968 12.4491508,15.7048968 12.7051508,15.7048968 C12.9601508,15.7048968 13.2161508,15.6068968 13.4121508,15.4118968 C13.8021508,15.0208968 13.8021508,14.3888968 13.4121508,13.9978968 L12.0361508,12.6228968 C14.4401508,10.5168968 17.5141508,9.1728968 20.8971508,8.9478968 L20.8971508,10.8968968 C20.8971508,11.4498968 21.3451508,11.8968968 21.8971508,11.8968968 C22.4491508,11.8968968 22.8971508,11.4498968 22.8971508,10.8968968 L22.8971508,8.9478968 C26.2801508,9.1728968 29.3541508,10.5168968 31.7581508,12.6228968 L30.3821508,13.9978968 C29.9921508,14.3888968 29.9921508,15.0208968 30.3821508,15.4118968 C30.5781508,15.6068968 30.8341508,15.7048968 31.0891508,15.7048968 C31.3451508,15.7048968 31.6011508,15.6068968 31.7961508,15.4118968 L33.1721508,14.0368968 C35.2771508,16.4398968 36.6221508,19.5148968 36.8461508,22.8968968 L34.8971508,22.8968968 C34.3451508,22.8968968 33.8971508,23.3448968 33.8971508,23.8968968 C33.8971508,24.4498968 34.3451508,24.8968968 34.8971508,24.8968968 Z M33.9181508,11.8768968 L33.8771508,11.8498968 C30.8011508,8.7918968 26.5671508,6.8968968 21.8971508,6.8968968 C17.2271508,6.8968968 12.9931508,8.7918968 9.9171508,11.8498968 L9.8761508,11.8768968 L9.8491508,11.9178968 C6.7911508,14.9928968 4.8971508,19.2278968 4.8971508,23.8968968 C4.8971508,28.5668968 6.7911508,32.8018968 9.8491508,35.8768968 L9.8761508,35.9178968 L9.9171508,35.9448968 C12.9931508,39.0028968 17.2271508,40.8968968 21.8971508,40.8968968 C26.5671508,40.8968968 30.8011508,39.0028968 33.8771508,35.9448968 L33.9181508,35.9178968 L33.9451508,35.8768968 C37.0031508,32.8018968 38.8971508,28.5668968 38.8971508,23.8968968 C38.8971508,19.2278968 37.0031508,14.9928968 33.9451508,11.9178968 L33.9181508,11.8768968 L33.9181508,11.8768968 Z" id="Fill-135"></path>
                    <path d="M32.0931508,24.9168968 L22.5731508,23.0128968 L18.7921508,15.4498968 C18.5441508,14.9568968 17.9451508,14.7548968 17.4501508,15.0028968 C16.9561508,15.2498968 16.7551508,15.8508968 17.0021508,16.3448968 L21.0021508,24.3448968 C21.1411508,24.6208968 21.3981508,24.8168968 21.7011508,24.8778968 L31.7011508,26.8778968 L31.8981508,26.8968968 C32.3651508,26.8968968 32.7831508,26.5688968 32.8771508,26.0938968 C32.9861508,25.5518968 32.6351508,25.0248968 32.0931508,24.9168968" id="Fill-136"></path>
                </g>
            </g>
            <path d="M19.6723205,0.38354335 L34.3276795,8.75830735 C35.2220776,9.26940863 36,10.6018742 36,11.625236 L36,28.374764 C36,29.3969666 35.2230919,30.7300118 34.3276795,31.2416927 L19.6723205,39.6164566 C18.7779224,40.1275579 17.2230919,40.1281375 16.3276795,39.6164566 L1.67232051,31.2416927 C0.777922428,30.7305914 6.9122222e-14,29.3981258 6.9122222e-14,28.374764 L6.9122222e-14,11.625236 C6.9122222e-14,10.6030334 0.776908138,9.26998824 1.67232051,8.75830735 L16.3276795,0.38354335 C17.2220776,-0.127557936 18.7769081,-0.128137549 19.6723205,0.38354335 Z" id="Shape-Copy-2" fill="#4EB713" opacity="0.1"></path>
        </g>
    </g>
</svg>