<?xml version="1.0" encoding="UTF-8"?>
<svg width="62px" height="62px" viewBox="0 0 62 62" version="1.1" xmlns="http://www.w3.org/2000/svg" xmlns:xlink="http://www.w3.org/1999/xlink">
    <!-- Generator: Sketch 54.1 (76490) - https://sketchapp.com -->
    <title>ic_improvestrains</title>
    <desc>Created with Sketch.</desc>
    <g id="ic_improvestrains" stroke="none" stroke-width="1" fill="none" fill-rule="evenodd">
        <g id="Group-18" transform="translate(0.000000, 3.000000)">
            <g id="ic_grower1" transform="translate(8.000000, 0.000000)">
                <rect id="Rectangle" x="0" y="0" width="56" height="56"></rect>
                <g id="Group" transform="translate(7.000000, 4.000000)" fill="#333333">
                    <path d="M7.0399352,2 C4.5579352,2 2.5399352,4.019 2.5399352,6.5 C2.5399352,8.982 4.5579352,11 7.0399352,11 C9.5209352,11 11.5399352,8.982 11.5399352,6.5 C11.5399352,4.019 9.5209352,2 7.0399352,2 Z M7.0399352,13 C3.4559352,13 0.539935203,10.084 0.539935203,6.5 C0.539935203,2.916 3.4559352,0 7.0399352,0 C10.6239352,0 13.5399352,2.916 13.5399352,6.5 C13.5399352,10.084 10.6239352,13 7.0399352,13 L7.0399352,13 Z" id="Fill-634"></path>
                    <path d="M35.0399352,2 C32.5579352,2 30.5399352,4.019 30.5399352,6.5 C30.5399352,8.982 32.5579352,11 35.0399352,11 C37.5209352,11 39.5399352,8.982 39.5399352,6.5 C39.5399352,4.019 37.5209352,2 35.0399352,2 Z M35.0399352,13 C31.4559352,13 28.5399352,10.084 28.5399352,6.5 C28.5399352,2.916 31.4559352,0 35.0399352,0 C38.6239352,0 41.5399352,2.916 41.5399352,6.5 C41.5399352,10.084 38.6239352,13 35.0399352,13 L35.0399352,13 Z" id="Fill-635"></path>
                    <path d="M11.5399352,15.5 C8.7329352,15.5 6.0869352,16.629 4.2799352,18.598 C2.5869352,20.441 1.8119352,22.798 2.0359352,25.416 C2.7139352,33.35 18.0109352,43.405 21.0409352,45.323 C24.1049352,43.386 39.7409352,33.09 40.0409352,24.465 C40.1299352,21.867 39.3239352,19.549 37.7689352,17.939 C36.2279352,16.344 34.0739352,15.5 31.5399352,15.5 C27.3909352,15.5 23.7549352,18.155 22.4919352,22.106 L21.5399352,25.084 L20.5869352,22.106 C19.3239352,18.155 15.6879352,15.5 11.5399352,15.5 Z M21.0379352,47.668 L20.5219352,47.356 C19.7199352,46.871 0.877935203,35.352 0.0439352034,25.585 C-0.226064797,22.441 0.754935203,19.479 2.8059352,17.246 C4.9919352,14.866 8.1739352,13.5 11.5399352,13.5 C15.7529352,13.5 19.5299352,15.762 21.5399352,19.316 C23.5489352,15.762 27.3269352,13.5 31.5399352,13.5 C34.5859352,13.5 37.3079352,14.583 39.2079352,16.55 C41.1429352,18.553 42.1479352,21.389 42.0389352,24.536 C41.6699352,35.128 22.3769352,46.863 21.5549352,47.357 L21.0379352,47.668 L21.0379352,47.668 Z" id="Fill-636"></path>
                </g>
            </g>
            <path d="M19.6723205,8.38354335 L34.3276795,16.7583073 C35.2220776,17.2694086 36,18.6018742 36,19.625236 L36,36.374764 C36,37.3969666 35.2230919,38.7300118 34.3276795,39.2416927 L19.6723205,47.6164566 C18.7779224,48.1275579 17.2230919,48.1281375 16.3276795,47.6164566 L1.67232051,39.2416927 C0.777922428,38.7305914 6.9122222e-14,37.3981258 6.9122222e-14,36.374764 L6.9122222e-14,19.625236 C6.9122222e-14,18.6030334 0.776908138,17.2699882 1.67232051,16.7583073 L16.3276795,8.38354335 C17.2220776,7.87244206 18.7769081,7.87186245 19.6723205,8.38354335 Z" id="Shape-Copy-2" fill="#136BB7" opacity="0.1"></path>
        </g>
    </g>
</svg>