<?xml version="1.0" encoding="UTF-8"?>
<svg width="446px" height="450px" viewBox="0 0 446 450" version="1.1" xmlns="http://www.w3.org/2000/svg" xmlns:xlink="http://www.w3.org/1999/xlink">
    <!-- Generator: Sketch 53.2 (72643) - https://sketchapp.com -->
    <title>Shape</title>
    <desc>Created with Sketch.</desc>
    <defs>
        <path d="M310.626204,75.9121422 L462.472007,161.334735 C471.738965,166.547968 479.799105,180.139117 479.799105,190.577407 L479.799105,361.422593 C479.799105,371.849059 471.749474,385.44612 462.472007,390.665265 L310.626204,476.087858 C301.359246,481.301091 285.249474,481.307003 275.972007,476.087858 L124.126204,390.665265 C114.859246,385.452032 106.799105,371.860883 106.799105,361.422593 L106.799105,190.577407 C106.799105,180.150941 114.848737,166.55388 124.126204,161.334735 L275.972007,75.9121422 C285.238965,70.6989091 301.348737,70.692997 310.626204,75.9121422 Z" id="path-1"></path>
        <filter x="-10.3%" y="-7.5%" width="120.6%" height="118.9%" filterUnits="objectBoundingBox" id="filter-2">
            <feOffset dx="0" dy="8" in="SourceAlpha" result="shadowOffsetOuter1"></feOffset>
            <feGaussianBlur stdDeviation="11.5" in="shadowOffsetOuter1" result="shadowBlurOuter1"></feGaussianBlur>
            <feColorMatrix values="0 0 0 0 0.0745098039   0 0 0 0 0.6   0 0 0 0 0.717647059  0 0 0 0.149711277 0" type="matrix" in="shadowBlurOuter1"></feColorMatrix>
        </filter>
    </defs>
    <g id="Page-1" stroke="none" stroke-width="1" fill="none" fill-rule="evenodd">
        <g id="Homepage" transform="translate(-184.000000, -1623.000000)" fill-rule="nonzero">
            <g id="Group-6-Copy" transform="translate(0.000000, 1565.000000)">
                <g id="Group-11" transform="translate(108.000000, 0.867180)">
                    <g id="Shape" transform="translate(293.299105, 276.000000) rotate(-46.000000) translate(-293.299105, -276.000000) ">
                        <use fill="black" fill-opacity="1" filter="url(#filter-2)" xlink:href="#path-1"></use>
                        <use fill="#FFFFFF" xlink:href="#path-1"></use>
                    </g>
                </g>
            </g>
        </g>
    </g>
</svg>