<?xml version="1.0" encoding="UTF-8"?>
<svg width="433px" height="344px" viewBox="0 0 433 344" version="1.1" xmlns="http://www.w3.org/2000/svg" xmlns:xlink="http://www.w3.org/1999/xlink">
    <!-- Generator: Sketch 55.1 (78136) - https://sketchapp.com -->
    <title>Artboard</title>
    <desc>Created with Sketch.</desc>
    <defs>
        <path d="M97.2686958,1.888951 L169.731304,43.1346637 C174.153606,45.6518375 178,52.2142305 178,57.2542873 L178,115.317073 L178,139.745713 C178,144.78006 174.158621,151.345308 169.731304,153.865336 L97.2686958,195.111049 C92.8463942,197.628223 85.1586209,197.631077 80.7313042,195.111049 L8.26869584,153.865336 C3.84639422,151.348162 3.41770987e-13,144.78577 3.41770987e-13,139.745713 L3.41770987e-13,115.317073 L3.41770987e-13,57.2542873 C3.41770987e-13,52.2199397 3.84137913,45.6546921 8.26869584,43.1346637 L80.7313042,1.888951 C85.1536058,-0.628222834 92.8413791,-0.631077428 97.2686958,1.888951 Z" id="path-1"></path>
    </defs>
    <g id="Artboard" stroke="none" stroke-width="1" fill="none" fill-rule="evenodd">
        <g id="Group-3" transform="translate(0.000000, 9.000000)">
            <g id="Group" transform="translate(118.000000, 130.000000)">
                <mask id="mask-2" fill="white">
                    <use xlink:href="#path-1"></use>
                </mask>
                <use id="Shape-Copy-3" fill="#DCE9F4" xlink:href="#path-1"></use>
                <g id="Group-16-Copy" mask="url(#mask-2)">
                    <g transform="translate(70.000000, 135.000000) rotate(-50.000000) translate(-70.000000, -135.000000) translate(-33.000000, 91.000000)">
                        <g id="tray_bad-copy">
                            <g id="tray-copy-2" transform="translate(103.000000, 44.000000) rotate(-270.000000) translate(-103.000000, -44.000000) translate(59.000000, -59.000000)">
                                <g id="Group-2" transform="translate(0.000000, 0.000000)">
                                    <path d="M88,46.6149871 L88,196.760408 C88,201.311009 84.3302974,205 79.8034897,205 L72.9580088,205 C72.4882265,205 72.317872,204.950829 72.1461266,204.858496 C71.9743812,204.766162 71.8395944,204.630667 71.747744,204.458019 C71.6558935,204.285371 71.6069795,204.114121 71.6069795,203.64187 L71.6069795,201.114288 C71.490672,200.619889 71.4232786,200.552141 71.3374059,200.505975 C71.2515332,200.459808 71.166356,200.435223 70.9314648,200.435223 L16.9722495,200.435223 C16.6812252,200.435223 16.4453034,200.672384 16.4453034,200.964938 C16.4453034,200.96513 16.4469092,201.956432 16.4501209,203.938843 C16.4510688,204.52395 15.9799943,205 15.3979465,205 C15.397565,205 13.0068896,205 8.22592005,205 C3.68286985,205 3.97903932e-13,201.297773 3.97903932e-13,196.730844 L3.97903932e-13,17.7861603 C0.110583099,17.350757 0.141832731,17.3134439 0.24229279,17.2170782 L18.190874,0 L28.4267485,0 C28.8965308,0 29.0668852,0.0491711894 29.2386306,0.141504404 C29.410376,0.233837618 29.5451628,0.369332858 29.6370132,0.541980958 C29.7288637,0.714629058 29.7777778,0.885878874 29.7777778,1.3581304 L29.7777778,3.47073237 C29.8940853,3.96513114 29.9614787,4.03287876 30.0473514,4.07904537 C30.1332241,4.12521198 30.2184013,4.14979757 30.4532924,4.14979757 L57.6056791,4.14979757 C57.8405702,4.14979757 57.9257474,4.12521198 58.0116201,4.07904537 C58.2567367,3.79248304 58.2811937,3.70685813 58.2811937,3.47073237 L58.2811937,1.3581304 C58.2811937,0.885878874 58.3301078,0.714629058 58.4219583,0.541980958 C58.5138087,0.369332858 58.6485955,0.233837618 58.8203409,0.141504404 C58.9920863,0.0491711894 59.1624407,0 59.6322231,0 L69.6515521,0 C81.5919451,11.3134502 87.6265268,17.0456859 87.7552972,17.1967072 C87.9484529,17.4232391 87.9688706,17.4708726 87.9817574,17.5247763 C87.9903485,17.5607122 87.9964294,21.6071476 88,29.6640827 L88,46.6149871 Z" id="Rectangle" fill="#F4F6F8"></path>
                                    <path d="M14.5,204.5 L73.5,204.5" id="Line-19" stroke="#C6C6C6" stroke-width="2" stroke-linecap="square"></path>
                                    <path d="M29,1 L60,1" id="Line-19-Copy" stroke="#F4F6F8" stroke-width="2" stroke-linecap="square"></path>
                                    <path d="M74.8802395,131.899225 L74.8802395,30.1937984 C74.8802395,25.7714962 71.3161071,22.1886305 66.9221557,22.1886305 L21.6047904,22.1886305 C17.210839,22.1886305 13.6467066,25.7714962 13.6467066,30.1937984 L13.6467066,131.899225 C13.6467066,136.321527 17.210839,139.904393 21.6047904,139.904393 L66.9221557,139.904393 C71.3161071,139.904393 74.8802395,136.321527 74.8802395,131.899225 Z" id="Rectangle-13" stroke="#FFFFFF" stroke-width="2" fill="#F4F6F8"></path>
                                </g>
                                <path d="M44.4799896,73 C54.6854231,73 62.959537,64.717806 62.959537,54.5 C62.959537,44.282194 54.6854231,36 44.4799896,36 C34.2745561,36 26.0004422,44.282194 26.0004422,54.5 C26.0004422,64.717806 34.2745561,73 44.4799896,73 Z M44.4,74.8398438 C33.1333911,74.8398438 24,65.6975333 24,54.4199219 C24,43.1423104 33.1333911,34 44.4,34 C55.6666089,34 64.8,43.1423104 64.8,54.4199219 C64.8,65.6975333 55.6666089,74.8398438 44.4,74.8398438 Z" id="Oval-7" fill="#FFFFFF" fill-rule="nonzero"></path>
                                <path d="M44.5,71 C53.6122174,71 61,63.6131783 61,54.5 C61,45.3868217 53.6122174,38 44.5,38 C35.3877826,38 28,45.3868217 28,54.5 C28,63.6131783 35.3877826,71 44.5,71 Z" id="Oval-7" fill="#E8F2E2" fill-rule="nonzero"></path>
                            </g>
                        </g>
                        <g id="ic_home" transform="translate(28.500000, 44.000000) rotate(-270.000000) translate(-28.500000, -44.000000) translate(11.500000, 29.500000)">
                            <path d="M11.3536291,13.9043358 L11.3536291,18.8748881 C11.3536291,19.1391049 11.3912592,19.3757955 11.4665206,19.5849671 C11.541782,19.7941386 11.6691454,19.9592716 11.8486148,20.0803709 C12.0280842,20.2014703 12.2914951,20.262019 12.6388552,20.262019 C12.9051646,20.262019 13.1367346,20.223488 13.333572,20.1464248 C13.5304094,20.0693616 13.7214546,19.9922995 13.9067134,19.9152363 C14.1151294,19.8271641 14.2945962,19.7913853 14.4451189,19.8078988 C14.5956416,19.8244123 14.6824803,19.9262444 14.7056377,20.1133979 C14.7403737,20.2895424 14.6911651,20.4546753 14.5580104,20.6088018 C14.4248556,20.7629282 14.2453889,20.8950346 14.0196048,21.0051249 C13.7938208,21.1152152 13.5333046,21.2032861 13.2380484,21.2693403 C12.9427923,21.3353945 12.6504353,21.3684211 12.3609685,21.3684211 C12.0136083,21.3684211 11.6980943,21.3326422 11.4144168,21.2610835 C11.1307394,21.1895248 10.8846963,21.0656751 10.6762802,20.8895306 C10.4678642,20.7133861 10.3057652,20.4822 10.1899785,20.1959652 C10.0741918,19.9097304 10.0162993,19.5574467 10.0162993,19.1391036 L10.0162993,13.9043358 L9.23474287,13.9043358 C8.96843343,13.9043358 8.80054522,13.8520437 8.73107319,13.7474579 C8.66160116,13.6428721 8.62686567,13.4915002 8.62686567,13.2933377 C8.62686567,13.04013 8.68765278,12.8777492 8.80922883,12.8061905 C8.93080488,12.7346318 9.09579847,12.698853 9.30421455,12.698853 L10.0162993,12.698853 L10.0162993,11.7410722 C10.0162993,11.4108012 10.0481401,11.1520929 10.1118228,10.9649394 C10.1755055,10.7777859 10.3752346,10.6842105 10.7110161,10.6842105 C11.0004829,10.6842105 11.1799496,10.7365026 11.2494216,10.8410884 C11.3188936,10.9456742 11.3536291,11.1135594 11.3536291,11.344749 L11.3536291,12.698853 L13.5072512,12.698853 C13.8777687,12.698853 14.1469688,12.7318796 14.3148595,12.7979338 C14.4827502,12.863988 14.5724836,13.0236165 14.5840622,13.2768242 C14.5840622,13.5300319 14.4943289,13.6979171 14.3148595,13.7804848 C14.1353901,13.8630526 13.8546115,13.9043358 13.4725154,13.9043358 L11.3536291,13.9043358 Z" id="Type-something-Copy-18" fill="#C6C6C6"></path>
                            <path d="M10.6881592,4.84990375 C11.2141498,4.55207751 12.1285373,4.55173976 12.6551244,4.84990375 L21.2738615,9.73000199 C21.7998522,10.0278282 22.2573441,10.8042755 22.2573441,11.4006035 L22.2573441,21.1608 C22.2573441,21.7564525 21.8004487,22.5332375 21.2738615,22.8314015 L12.6551244,27.7114998 C12.1291337,28.009326 11.2147463,28.0096638 10.6881592,27.7114998 L2.06942208,22.8314015 C1.54343142,22.5335753 1.08593946,21.757128 1.08593946,21.1608 L1.08593946,11.4006035 C1.08593946,10.804951 1.54283492,10.028166 2.06942208,9.73000199 L10.6881592,4.84990375 L10.6881592,4.84990375 Z M10.1451894,3.92758337 L1.52645235,8.80768161 C0.66373924,9.29616671 0,10.4246146 0,11.4006035 L1.02880853e-14,21.1608 C1.02880853e-14,22.1377702 0.664605783,23.2657274 1.52645235,23.7537219 L10.1451894,28.6338201 C11.0079026,29.1223052 12.3362476,29.1218146 13.1980941,28.6338201 L21.8168312,23.7537219 C22.6795443,23.2652368 23.3432836,22.1367889 23.3432836,21.1608 L23.3432836,11.4006035 C23.3432836,10.4236333 22.6786778,9.29567606 21.8168312,8.80768161 L13.1980941,3.92758337 C12.335381,3.43909826 11.007036,3.43958891 10.1451894,3.92758337 L10.1451894,3.92758337 Z" id="Shape-Copy" stroke="#C6C6C6" stroke-width="0.5" fill="#C6C6C6" fill-rule="nonzero"></path>
                            <path d="M25.746658,0.850410157 C26.0896954,0.653844838 26.686035,0.653621923 27.0294614,0.850410157 L32.6503769,4.071275 C32.9934143,4.26784032 33.2917786,4.78029554 33.2917786,5.173872 L33.2917786,11.6156017 C33.2917786,12.0087323 32.9938033,12.5214105 32.6503769,12.7181987 L27.0294614,15.9390635 C26.686424,16.1356288 26.0900844,16.1358518 25.746658,15.9390635 L20.1257425,12.7181987 C19.7827051,12.5216334 19.4843408,12.0091781 19.4843408,11.6156017 L19.4843408,5.173872 C19.4843408,4.78074136 19.7823161,4.26806323 20.1257425,4.071275 L25.746658,0.850410157 L25.746658,0.850410157 Z M25.3925473,0.241678706 L19.7716318,3.46254355 C19.2089928,3.78494372 18.7761194,4.52971933 18.7761194,5.173872 L18.7761194,11.6156017 C18.7761194,12.260402 19.209558,13.0048538 19.7716318,13.3269301 L25.3925473,16.547795 C25.9551863,16.8701951 26.8214983,16.8698713 27.3835721,16.547795 L33.0044876,13.3269301 C33.5671266,13.00453 34,12.2597544 34,11.6156017 L34,5.173872 C34,4.52907166 33.5665614,3.78461988 33.0044876,3.46254355 L27.3835721,0.241678706 C26.8209331,-0.080721464 25.9546211,-0.0803976328 25.3925473,0.241678706 L25.3925473,0.241678706 Z" id="Shape-Copy-12" stroke="#C6C6C6" stroke-width="0.5" fill="#C6C6C6" fill-rule="nonzero"></path>
                        </g>
                    </g>
                </g>
            </g>
            <polyline id="Path-10" fill="#E5F4DC" points="102 246 102 187 0 246"></polyline>
            <path d="M311.781171,246 L311.781171,180.255726 C311.781171,174.755054 307.621546,167.592919 302.839114,164.845699 L224.47551,119.830508 C223.727442,119.400788 222.8933,119.038285 222,118.742963 L420,4 L420,246 L311.781171,246 Z" id="Combined-Shape" fill="#FDEBDB"></path>
            <g id="Group-40" transform="translate(355.500000, 135.000000) scale(-1, 1) translate(-355.500000, -135.000000) translate(269.000000, 5.000000)">
                <path d="M37.1669622,70.754929 C37.1669622,70.754929 47.4589308,67.4849653 48.4970864,62.9884348 C49.3376235,59.340456 50.6814289,48 50.6814289,48 L68.6357233,48 C68.6357233,48 67.9506461,58.1323934 68.6357233,61.4129309 C70.3457816,69.5706576 80.5455282,72.2564159 80.5455282,72.2564159 L82,97.7420421 L55.5375728,120 L30,94.2632449 L37.1669622,70.754929 Z" id="Fill-20" fill="#FEC4AD"></path>
                <path d="M65.4369502,63.4119991 C69.2442143,63.4119991 69.4448483,64.7350012 71.9579668,63.4119991 C77.0437737,60.734635 85,54.4589392 85,42.5961038 C85,41.7947768 83.9031932,39.0877518 83.9131639,38.21381 C83.9807172,32.2926791 85.1967511,26.8382817 82.8263278,21.7802085 C77.8077975,11.0715331 67.0987062,5 59.6332913,5 C48.1212535,5 44,18.8426484 44,36.5674271 C44,54.2922059 53.9249123,63.4119991 65.4369502,63.4119991 Z" id="Oval" fill="#FEC4AD"></path>
                <path d="M72.5716194,15.9516027 C72.5716194,15.9516027 73.2358162,20.0971226 67.2553778,25.6815833 C61.2749395,31.2634085 55.9080162,29.7533113 55.0090833,32.4493487 C54.1074828,35.1453861 54.0247917,37.569975 54.0247917,37.569975 C54.0247917,37.569975 53.0218279,37.5567979 52.0508736,36.1099508 C51.4106839,35.1559278 51.0852542,32.8341204 49.9969318,32.1225563 C47.2681234,30.3383752 42.5733992,32.7313389 44.0805124,37.9837364 C45.0167898,41.2622022 48.6018518,43.4548738 48.6018518,43.4548738 C48.5645719,48.4670058 49.7052108,51.5386926 50.7184268,53.273098 C51.5176529,54.6411992 51.1281186,55.674404 49.6121693,56.1494397 C47.5601956,56.7924434 44.7634809,57.3948924 42.9655154,56.6688832 C38.4708505,54.8530769 37.329179,52.0700706 37.4945613,47.046955 C37.4945613,47.046955 34.1068911,46.5330475 31.4821135,43.960875 C25.2162573,37.8177047 32.442398,20.3184981 35.3445911,18.1574515 C35.3445911,18.1574515 28.4945618,8.57241921 37.1024452,2.13144617 C45.8383665,-4.39913124 49.2126994,6.16100746 49.2126994,6.16100746 C52.1068902,3.99732543 64.0010804,3.26994877 70.058875,5.50215179 C87.1225968,11.7876349 83.7242567,24.9120398 83.7242567,24.9120398 C83.7242567,24.9120398 78.722775,25.1044257 72.5716194,15.9516027 Z" id="Fill-38" fill="#C29ADD"></path>
                <g id="Group-37" transform="translate(62.000000, 28.000000)">
                    <path d="M12.0201114,22.6026316 C9.94793915,23.3775831 6.34202751,24.4032293 1.20237643,25.6795703 C6.40220378,27.2075593 12.535024,30.396552 17.2826039,20.7994801 C15.4218581,21.3854178 13.6676939,21.9864683 12.0201114,22.6026316 Z" id="Fill-2783" stroke="#C29ADD" fill="#FFFFFE" stroke-linecap="round" stroke-linejoin="round" transform="translate(9.242490, 24.117930) rotate(20.000000) translate(-9.242490, -24.117930) "></path>
                    <g id="Group-38" transform="translate(11.520534, 7.985801) rotate(5.000000) translate(-11.520534, -7.985801) translate(1.020534, 0.985801)" fill="#333333">
                        <path d="M18.1430731,8.46208849 C18.7296877,8.95885477 18.8036757,9.83783264 18.305347,10.4241804 C17.8070183,11.0105281 16.9265528,11.0855639 16.3399383,10.5887976 C15.7533238,10.0920314 15.6793357,9.21305348 16.1776644,8.62670577 C16.6759932,8.04035805 17.5564586,7.96532222 18.1430731,8.46208849" id="Fill-2787" transform="translate(17.241506, 9.525443) rotate(20.000000) translate(-17.241506, -9.525443) "></path>
                        <path d="M7.27473237,10.4548326 C7.86134689,10.9515989 7.93292944,11.8305784 7.4346007,12.4169261 C6.93627197,13.0032738 6.0558081,13.0759079 5.46919199,12.5815434 C4.88257748,12.0847771 4.81099493,11.2057976 5.30932525,10.6170482 C5.80765398,10.0307005 6.68571235,9.95806794 7.27473237,10.4548326" id="Fill-2788" transform="translate(6.371962, 11.517192) rotate(20.000000) translate(-6.371962, -11.517192) "></path>
                        <path d="M20.53763,2.36918066 C20.397816,2.81359004 19.0916344,2.80004426 17.6552577,3.23570493 C16.2068837,3.625741 15.1070982,4.33257242 14.7512851,4.02779041 C14.3834127,3.77105063 15.2384031,2.2093715 17.2016674,1.65087476 C19.1625325,1.08277276 20.713506,1.95596967 20.53763,2.36918066" id="Fill-2789" transform="translate(17.609567, 2.783255) rotate(20.000000) translate(-17.609567, -2.783255) "></path>
                        <path d="M1.46140324,8.34965336 C1.11277645,8.09049913 1.66222427,6.59386847 3.00067569,5.10151903 C4.35358404,3.57313433 6.08588769,3.06282471 6.26601903,3.48780864 C6.46058978,3.90317616 5.40633544,4.87176413 4.21712426,6.21510861 C3.01348321,7.55365921 1.84128413,8.63520575 1.46140324,8.34965336" id="Fill-2790" transform="translate(3.824201, 5.869837) rotate(20.000000) translate(-3.824201, -5.869837) "></path>
                    </g>
                </g>
                <path d="M100.01164,197.484587 C105.375294,202.516336 118.211515,210.030961 123.421092,219.265791 L93.111415,242.393203 C85.6646363,239.201316 64.1113493,228.681895 56.554485,211.074803 L47.357554,189.646444 L67.0635878,181.786023 L100.01164,197.484587 Z" id="Fill-23" fill="#333333" transform="translate(85.389323, 212.089613) rotate(37.000000) translate(-85.389323, -212.089613) "></path>
                <path d="M106.973499,117 C108.348501,122.781483 110.99098,129.964937 113.008744,133.994848 C113.22994,134.436623 103.488788,136.085335 103.718243,136.486099 C103.951192,136.892507 114.608937,136.209238 115.664397,136.857717 C117.116718,137.750028 119.258551,138.8417 121.844535,140.050702 C123.399689,140.777769 121.42673,146.517616 123.249779,147.311709 C125.196215,148.159547 130.953669,144.065073 133.079709,144.947265 C147.263989,150.832978 164,157 164,157 L135.969837,157 C135.969837,157 125.316959,154.340082 114.569096,148.39427 C113.862165,148.003189 115.764637,137.949044 114.569096,137.56866 C110.910694,136.404671 100.58682,138.110143 99.3779016,136.486099 C97.9806578,134.609706 98.8988342,139.375984 97.5789776,137.326448 C91.7074829,128.208911 87,118.529259 87,118.529259 L106.973499,117 Z" id="Fill-25" fill="#FEC4AD"></path>
                <path d="M89.9625233,76 C94.8829072,78.2097402 99.4277882,90.7621106 103.061103,101.457776 C106.694418,112.153442 107,117.200541 107,117.200541 C107,117.200541 94.2872818,124.541062 87.5437662,122.705278 C87.5437662,122.705278 81.1394981,99.4729327 85.5497159,87.7364663 L89.9625233,76 Z" id="Fill-26" fill="#136BB7"></path>
                <path d="M93.7820001,176.643653 C90.8344271,173.69675 91.1976366,140.730317 93.3620125,132.574749 C95.5316803,124.416536 95.3967376,114.967399 93.8303433,110.758671 C92.263949,106.549943 94.5419532,79.6361516 92.3539994,77.4610476 C90.8953636,76.0109784 86.9326034,74.4064052 80.465719,72.6473282 C80.465719,72.6473282 83.3947705,94.6670975 60.2454738,94.6670975 C37.0035693,94.6670975 36.9056696,71.1447779 36.9056696,71.1447779 C31.2431029,70.5789902 26.3057858,71.6715136 22.0937182,74.422348 C15.7756168,78.5485996 21.0009465,103.100426 21.5513013,116.112829 C22.101656,129.122587 28.2825632,151.663487 30.0526946,163.453746 C31.4285815,172.630413 23,187 25,191 C27,195 51.8552097,179.225234 64.9499485,179.677586 C79.1109996,179.108839 95.1049683,177.966321 93.7820001,176.643653 Z" id="Fill-27" fill="#136BB7"></path>
                <path d="M55.2687875,241.156731 C56.3995875,241.617155 57.2476875,241.962473 57.8130875,242.192684 L78.0456123,213.299249 C71.5263994,206.159411 61.9525778,199.825819 54.8145387,188.262582 C54.8145387,188.262582 37.8654056,181.134373 26.9830553,184.930508 C16.0954596,188.724008 10.7794777,193.751388 10.7794777,193.751388 C8.1845642,206.360039 14.3894761,233.916518 55.2687875,241.156731 Z" id="Fill-37" fill="#333333" transform="translate(44.157510, 213.004866) rotate(55.000000) translate(-44.157510, -213.004866) "></path>
                <path d="M37.5484933,71.0425061 C45.2063273,103.707696 49.0352443,120.040291 49.0352443,120.040291 C49.0352443,120.040291 45.902494,121.777801 39.6369935,125.252821 L43.8139938,142.975424 C42.6228411,150.28534 41.7967533,157.35384 41.3357306,164.180922 C35.5279775,188.060401 33.7130547,202.894622 35.8909621,208.683586 C38.0130526,214.324187 38.5919921,223.03704 37.6277805,234.822144 L37.6277736,234.822143 C37.5846725,235.348948 37.9589838,235.818318 38.4821713,235.893521 C48.9177651,237.393536 56.0396891,238.092435 59.8479434,237.990218 C67.0406483,237.79716 72.6513627,234.733926 77.2712025,234.733926 C85.7236486,234.733926 99.1150248,235.057051 117.445331,235.7033 L117.445331,235.703306 C117.997276,235.722765 118.46049,235.2911 118.47995,234.739155 C118.484995,234.596036 118.459243,234.453502 118.404434,234.321197 C102.085157,194.927613 93.5815952,173.514074 92.8937479,170.080582 C92.1975811,166.605562 91.8494978,162.088035 91.8494978,156.528003 L92.8937479,139.847906 L94.982248,126.295327 L94.982248,120.040291 L81.4069969,72.0850121 L77.2299966,71.0425061 L85.5839973,101.275182 L51.1237444,103.360194 L39.6369935,70 L37.5484933,71.0425061 Z" id="Path-12" fill="#FAFBFC"></path>
                <path d="M114.381062,154.324147 C110.183162,153.819879 106.155589,149.846773 89.9064131,149.64772 C86.987274,149.613217 67.6853186,145.799354 62.4628373,144.238776 C52.2065443,141.178661 46.970961,137.468306 46.970961,137.468306 C46.970961,137.468306 41.0147643,114.980581 38.742867,100.715088 C32.1368081,99.9799177 25.5490921,99.1226611 19.0033027,98 C18.7674656,115.813951 31.2275251,147.487327 35.3756374,150.645641 C43.4517475,156.800372 62.4235311,156.492502 66.9804277,156.577432 C77.5354476,156.771177 122.514821,158 122.514821,158 C122.514821,158 125.981626,155.720175 114.381062,154.324147" id="Fill-30" fill="#FEC4AD"></path>
                <path d="M86.54375,153.5 L172.376011,153.5" id="Line-22" stroke="#E0E0E0" stroke-width="9" stroke-linecap="round" stroke-linejoin="round"></path>
                <g id="noun_Cupcake_1845787" transform="translate(140.000000, 119.000000)" fill-rule="nonzero">
                    <path d="M0.037554807,8.59523229 C0.0444078596,7.447161 1.02823461,6.5130615 2.23135961,6.5130615 L2.6192434,6.5130615 C2.91474779,6.5130615 3.15953942,6.29438127 3.17927629,6.01318355 C3.39528505,2.93622696 5.77467105,0.525774214 8.59649123,0.525774214 L22.9385965,0.525774214 C25.7604167,0.525774214 28.1398026,2.93622691 28.3558114,6.01318355 C28.3755482,6.29438121 28.6203399,6.5130615 28.9158443,6.5130615 L29.3097588,6.5130615 C30.5194628,6.5130615 31.5035636,7.45213098 31.5035636,8.60648014 L31.5035636,10.6303187 C31.4983553,10.6596156 31.495614,10.6896972 31.495614,10.7205635 C31.495614,12.5633893 29.9202303,14.0624999 27.9835526,14.0624999 C26.0471491,14.0624999 24.4717653,12.5633893 24.4717653,10.7205635 C24.4717653,10.4247174 24.2203947,10.1848493 23.9103618,10.1848493 C23.6003289,10.1848493 23.3489583,10.4247174 23.3489583,10.7205635 C23.3489583,12.5633893 21.7735746,14.0624999 19.8368969,14.0624999 C17.9004934,14.0624999 16.3251096,12.5633893 16.3251096,10.7205635 C16.3251096,10.4247174 16.073739,10.1848493 15.7637061,10.1848493 C15.4536732,10.1848493 15.2023026,10.4247174 15.2023026,10.7205635 C15.2023026,12.5633893 13.6269188,14.0624999 11.6902412,14.0624999 C9.75356351,14.0624999 8.17817976,12.5633893 8.17817976,10.7205635 C8.17817976,10.4247174 7.92680915,10.1848493 7.61677625,10.1848493 C7.30674335,10.1848493 7.05537274,10.4247174 7.05537274,10.7205635 C7.05537274,12.5633893 5.479989,14.0624999 3.54358546,14.0624999 C1.60690785,14.0624999 0.0315240421,12.5633893 0.0315240421,10.722133 L0.037554807,8.59523229 Z M21.0578399,3.23233468 C21.2184758,3.23233468 21.3780153,3.16693987 21.4890351,3.04007395 L21.9046052,2.56530761 C22.1033443,2.33825684 22.071546,2.00029645 21.8336075,1.8106515 C21.5956689,1.62074496 21.2415022,1.65108814 21.0427632,1.8784005 L20.627193,2.35316684 C20.428454,2.58021761 20.4602522,2.918178 20.6981908,3.10782295 C20.8031798,3.1915283 20.930921,3.23233468 21.0578399,3.23233468 Z M10.8741776,3.23233468 C11.0348136,3.23233468 11.1940789,3.16693988 11.3050987,3.04007395 L11.720943,2.56530761 C11.9199562,2.33851843 11.8881579,2.00055804 11.6502193,1.81091309 C11.4125548,1.62074496 11.0583882,1.6510882 10.8596491,1.87840055 L10.4438048,2.35316689 C10.2447916,2.57995607 10.2765899,2.91791646 10.5145285,3.10756141 C10.6195175,3.1915283 10.7472588,3.23233468 10.8741776,3.23233468 Z M16.9561404,6.41810829 L17.4673794,7.18087334 C17.5745614,7.34095982 17.7557566,7.42806573 17.9407894,7.42806573 C18.0444079,7.42806573 18.1491228,7.40086152 18.2425987,7.34357566 C18.5038377,7.18427389 18.580318,6.85285302 18.413103,6.60382955 L17.901864,5.8410645 C17.7346491,5.59125632 17.386239,5.51801416 17.1266447,5.67836223 C16.8654057,5.83766395 16.7889254,6.16908482 16.9561404,6.41810829 Z M6.31962717,4.29251534 C6.34100873,4.29251534 6.36266448,4.29146904 6.38404604,4.28911479 C6.69216006,4.25537105 6.91337718,3.98986811 6.87828946,3.69611464 L6.80345392,3.07094025 C6.76809207,2.77666361 6.48492323,2.56426125 6.18201752,2.59931287 C5.87390349,2.63305661 5.65268637,2.89855955 5.68777409,3.19231302 L5.76260963,3.81748741 C5.79550439,4.09083777 6.03810307,4.29251534 6.31962717,4.29251534 Z M24.7042215,4.43062918 L25.2338268,4.76257323 C25.3286732,4.8219517 25.4355811,4.85046386 25.5413926,4.85046386 C25.7242325,4.85046386 25.9032346,4.76545061 26.0112391,4.60876463 C26.1814694,4.36157223 26.109375,4.02936659 25.8500548,3.86692591 L25.3204496,3.53498186 C25.0616776,3.37358748 24.7135417,3.44185966 24.5430373,3.68879046 C24.372807,3.93598286 24.4449013,4.2681885 24.7042215,4.43062918 Z M15.7239583,3.66734095 C15.7524671,3.66734095 15.7809759,3.66524834 15.8097588,3.66106302 L16.4361294,3.5695103 C16.7425987,3.52478025 16.953125,3.25142995 16.9059759,2.95898437 C16.8591009,2.6665388 16.5699014,2.46643066 16.2661733,2.51063754 L15.6398027,2.60219025 C15.3333334,2.6469203 15.1228071,2.92027061 15.1699562,3.21271618 C15.2124452,3.477696 15.4514803,3.66734095 15.7239583,3.66734095 Z M21.5652412,5.36211284 C21.3379934,5.56326729 21.3245614,5.90227398 21.5356359,6.11912314 L21.966557,6.56223836 C22.0770284,6.6760253 22.2275219,6.73357275 22.3780153,6.73357275 C22.5148026,6.73357275 22.651864,6.68622691 22.7598684,6.59048893 C22.9871162,6.38933448 23.0005482,6.05032779 22.7894737,5.83347863 L22.3585526,5.39036341 C22.1477522,5.17299107 21.7916666,5.16069686 21.5652412,5.36211284 Z M12.4947917,5.13401577 C12.5233004,5.13401577 12.5518092,5.13192316 12.5805921,5.12773784 L13.2069628,5.03618512 C13.513432,4.99145507 13.7239583,4.71810477 13.6768093,4.4256592 C13.6299343,4.13295204 13.3401864,3.93284389 13.0370067,3.97731236 L12.410636,4.06886507 C12.1041667,4.11359512 11.8936404,4.38694543 11.9407895,4.679391 C11.9832785,4.94437082 12.2223136,5.13401577 12.4947917,5.13401577 Z M8.44435307,7.37365725 C8.52494518,7.41210938 8.61047147,7.43015839 8.69490133,7.43015839 C8.90076755,7.43015839 9.09923245,7.32186461 9.19764255,7.13405068 L9.59868424,6.36919296 C9.73739037,6.10473638 9.62500003,5.78299388 9.34758776,5.6503732 C9.07072371,5.51853723 8.73327854,5.62526159 8.59429827,5.88997977 L8.19325659,6.65483748 C8.05455046,6.91929407 8.1669408,7.24103657 8.44435307,7.37365725 Z" id="Combined-Shape" fill="#C29ADD"></path>
                    <path d="M25.5057882,29.4943673 L6.0455262,29.4943673 C5.79080724,29.4943673 5.5768032,29.3028807 5.54860044,29.0497278 L3.99496298,15.1040104 C5.5584224,14.9586051 6.89915705,14.0791757 7.61677631,12.824707 C8.40296051,14.1990444 9.93421053,15.1339286 11.6902412,15.1339286 C13.4462719,15.1339286 14.977522,14.1990444 15.7637062,12.824707 C16.5498904,14.1990444 18.0808662,15.1339286 19.836897,15.1339286 C21.5929277,15.1339286 23.1241777,14.1990444 23.9103619,12.824707 C24.6292832,14.0814645 25.97365,14.9616132 27.5407758,15.104599 L26.0027745,29.0491818 C25.9748269,29.3025741 25.760717,29.4943673 25.5057882,29.4943673 Z M23.082511,18.4235491 C22.7724781,18.4235491 22.5211075,18.6634173 22.5211075,18.9592634 L22.5211075,24.6075439 C22.5211075,24.9033901 22.7724781,25.1432582 23.082511,25.1432582 C23.3925439,25.1432582 23.6439145,24.9033901 23.6439145,24.6075439 L23.6439145,18.9592634 C23.6439145,18.6634173 23.3925439,18.4235491 23.082511,18.4235491 Z M19.4024123,18.4235491 C19.0923794,18.4235491 18.8410088,18.6634173 18.8410088,18.9592634 L18.8410088,24.6075439 C18.8410088,24.9033901 19.0923794,25.1432582 19.4024123,25.1432582 C19.7124452,25.1432582 19.9638158,24.9033901 19.9638158,24.6075439 L19.9638158,18.9592634 C19.9638158,18.6634173 19.7124452,18.4235491 19.4024123,18.4235491 Z M15.7223136,18.4235491 C15.4122807,18.4235491 15.1609101,18.6634173 15.1609101,18.9592634 L15.1609101,24.6075439 C15.1609101,24.9033901 15.4122807,25.1432582 15.7223136,25.1432582 C16.0323465,25.1432582 16.2837171,24.9033901 16.2837171,24.6075439 L16.2837171,18.9592634 C16.2837171,18.6634173 16.0323465,18.4235491 15.7223136,18.4235491 Z M12.0422149,18.4235491 C11.732182,18.4235491 11.4808114,18.6634173 11.4808114,18.9592634 L11.4808114,24.6075439 C11.4808114,24.9033901 11.732182,25.1432582 12.0422149,25.1432582 C12.3522478,25.1432582 12.6036184,24.9033901 12.6036184,24.6075439 L12.6036184,18.9592634 C12.6036184,18.6634173 12.3522478,18.4235491 12.0422149,18.4235491 Z M8.36211621,18.4235491 C8.05208331,18.4235491 7.8007127,18.6634173 7.8007127,18.9592634 L7.8007127,24.6075439 C7.8007127,24.9033901 8.05208331,25.1432582 8.36211621,25.1432582 C8.67214911,25.1432582 8.92351972,24.9033901 8.92351972,24.6075439 L8.92351972,18.9592634 C8.92351972,18.6634173 8.67214911,18.4235491 8.36211621,18.4235491 Z" id="Combined-Shape" fill="#F5C298"></path>
                </g>
                <g id="noun_Cupcake_1845787-Copy" transform="translate(115.000000, 119.000000)" fill-rule="nonzero">
                    <path d="M0.037554807,8.59523229 C0.0444078596,7.447161 1.02823461,6.5130615 2.23135961,6.5130615 L2.6192434,6.5130615 C2.91474779,6.5130615 3.15953942,6.29438127 3.17927629,6.01318355 C3.39528505,2.93622696 5.77467105,0.525774214 8.59649123,0.525774214 L22.9385965,0.525774214 C25.7604167,0.525774214 28.1398026,2.93622691 28.3558114,6.01318355 C28.3755482,6.29438121 28.6203399,6.5130615 28.9158443,6.5130615 L29.3097588,6.5130615 C30.5194628,6.5130615 31.5035636,7.45213098 31.5035636,8.60648014 L31.5035636,10.6303187 C31.4983553,10.6596156 31.495614,10.6896972 31.495614,10.7205635 C31.495614,12.5633893 29.9202303,14.0624999 27.9835526,14.0624999 C26.0471491,14.0624999 24.4717653,12.5633893 24.4717653,10.7205635 C24.4717653,10.4247174 24.2203947,10.1848493 23.9103618,10.1848493 C23.6003289,10.1848493 23.3489583,10.4247174 23.3489583,10.7205635 C23.3489583,12.5633893 21.7735746,14.0624999 19.8368969,14.0624999 C17.9004934,14.0624999 16.3251096,12.5633893 16.3251096,10.7205635 C16.3251096,10.4247174 16.073739,10.1848493 15.7637061,10.1848493 C15.4536732,10.1848493 15.2023026,10.4247174 15.2023026,10.7205635 C15.2023026,12.5633893 13.6269188,14.0624999 11.6902412,14.0624999 C9.75356351,14.0624999 8.17817976,12.5633893 8.17817976,10.7205635 C8.17817976,10.4247174 7.92680915,10.1848493 7.61677625,10.1848493 C7.30674335,10.1848493 7.05537274,10.4247174 7.05537274,10.7205635 C7.05537274,12.5633893 5.479989,14.0624999 3.54358546,14.0624999 C1.60690785,14.0624999 0.0315240421,12.5633893 0.0315240421,10.722133 L0.037554807,8.59523229 Z M21.0578399,3.23233468 C21.2184758,3.23233468 21.3780153,3.16693987 21.4890351,3.04007395 L21.9046052,2.56530761 C22.1033443,2.33825684 22.071546,2.00029645 21.8336075,1.8106515 C21.5956689,1.62074496 21.2415022,1.65108814 21.0427632,1.8784005 L20.627193,2.35316684 C20.428454,2.58021761 20.4602522,2.918178 20.6981908,3.10782295 C20.8031798,3.1915283 20.930921,3.23233468 21.0578399,3.23233468 Z M10.8741776,3.23233468 C11.0348136,3.23233468 11.1940789,3.16693988 11.3050987,3.04007395 L11.720943,2.56530761 C11.9199562,2.33851843 11.8881579,2.00055804 11.6502193,1.81091309 C11.4125548,1.62074496 11.0583882,1.6510882 10.8596491,1.87840055 L10.4438048,2.35316689 C10.2447916,2.57995607 10.2765899,2.91791646 10.5145285,3.10756141 C10.6195175,3.1915283 10.7472588,3.23233468 10.8741776,3.23233468 Z M16.9561404,6.41810829 L17.4673794,7.18087334 C17.5745614,7.34095982 17.7557566,7.42806573 17.9407894,7.42806573 C18.0444079,7.42806573 18.1491228,7.40086152 18.2425987,7.34357566 C18.5038377,7.18427389 18.580318,6.85285302 18.413103,6.60382955 L17.901864,5.8410645 C17.7346491,5.59125632 17.386239,5.51801416 17.1266447,5.67836223 C16.8654057,5.83766395 16.7889254,6.16908482 16.9561404,6.41810829 Z M6.31962717,4.29251534 C6.34100873,4.29251534 6.36266448,4.29146904 6.38404604,4.28911479 C6.69216006,4.25537105 6.91337718,3.98986811 6.87828946,3.69611464 L6.80345392,3.07094025 C6.76809207,2.77666361 6.48492323,2.56426125 6.18201752,2.59931287 C5.87390349,2.63305661 5.65268637,2.89855955 5.68777409,3.19231302 L5.76260963,3.81748741 C5.79550439,4.09083777 6.03810307,4.29251534 6.31962717,4.29251534 Z M24.7042215,4.43062918 L25.2338268,4.76257323 C25.3286732,4.8219517 25.4355811,4.85046386 25.5413926,4.85046386 C25.7242325,4.85046386 25.9032346,4.76545061 26.0112391,4.60876463 C26.1814694,4.36157223 26.109375,4.02936659 25.8500548,3.86692591 L25.3204496,3.53498186 C25.0616776,3.37358748 24.7135417,3.44185966 24.5430373,3.68879046 C24.372807,3.93598286 24.4449013,4.2681885 24.7042215,4.43062918 Z M15.7239583,3.66734095 C15.7524671,3.66734095 15.7809759,3.66524834 15.8097588,3.66106302 L16.4361294,3.5695103 C16.7425987,3.52478025 16.953125,3.25142995 16.9059759,2.95898437 C16.8591009,2.6665388 16.5699014,2.46643066 16.2661733,2.51063754 L15.6398027,2.60219025 C15.3333334,2.6469203 15.1228071,2.92027061 15.1699562,3.21271618 C15.2124452,3.477696 15.4514803,3.66734095 15.7239583,3.66734095 Z M21.5652412,5.36211284 C21.3379934,5.56326729 21.3245614,5.90227398 21.5356359,6.11912314 L21.966557,6.56223836 C22.0770284,6.6760253 22.2275219,6.73357275 22.3780153,6.73357275 C22.5148026,6.73357275 22.651864,6.68622691 22.7598684,6.59048893 C22.9871162,6.38933448 23.0005482,6.05032779 22.7894737,5.83347863 L22.3585526,5.39036341 C22.1477522,5.17299107 21.7916666,5.16069686 21.5652412,5.36211284 Z M12.4947917,5.13401577 C12.5233004,5.13401577 12.5518092,5.13192316 12.5805921,5.12773784 L13.2069628,5.03618512 C13.513432,4.99145507 13.7239583,4.71810477 13.6768093,4.4256592 C13.6299343,4.13295204 13.3401864,3.93284389 13.0370067,3.97731236 L12.410636,4.06886507 C12.1041667,4.11359512 11.8936404,4.38694543 11.9407895,4.679391 C11.9832785,4.94437082 12.2223136,5.13401577 12.4947917,5.13401577 Z M8.44435307,7.37365725 C8.52494518,7.41210938 8.61047147,7.43015839 8.69490133,7.43015839 C8.90076755,7.43015839 9.09923245,7.32186461 9.19764255,7.13405068 L9.59868424,6.36919296 C9.73739037,6.10473638 9.62500003,5.78299388 9.34758776,5.6503732 C9.07072371,5.51853723 8.73327854,5.62526159 8.59429827,5.88997977 L8.19325659,6.65483748 C8.05455046,6.91929407 8.1669408,7.24103657 8.44435307,7.37365725 Z" id="Combined-Shape" fill="#C29ADD"></path>
                    <path d="M25.5057882,29.4943673 L6.0455262,29.4943673 C5.79080724,29.4943673 5.5768032,29.3028807 5.54860044,29.0497278 L3.99496298,15.1040104 C5.5584224,14.9586051 6.89915705,14.0791757 7.61677631,12.824707 C8.40296051,14.1990444 9.93421053,15.1339286 11.6902412,15.1339286 C13.4462719,15.1339286 14.977522,14.1990444 15.7637062,12.824707 C16.5498904,14.1990444 18.0808662,15.1339286 19.836897,15.1339286 C21.5929277,15.1339286 23.1241777,14.1990444 23.9103619,12.824707 C24.6292832,14.0814645 25.97365,14.9616132 27.5407758,15.104599 L26.0027745,29.0491818 C25.9748269,29.3025741 25.760717,29.4943673 25.5057882,29.4943673 Z M23.082511,18.4235491 C22.7724781,18.4235491 22.5211075,18.6634173 22.5211075,18.9592634 L22.5211075,24.6075439 C22.5211075,24.9033901 22.7724781,25.1432582 23.082511,25.1432582 C23.3925439,25.1432582 23.6439145,24.9033901 23.6439145,24.6075439 L23.6439145,18.9592634 C23.6439145,18.6634173 23.3925439,18.4235491 23.082511,18.4235491 Z M19.4024123,18.4235491 C19.0923794,18.4235491 18.8410088,18.6634173 18.8410088,18.9592634 L18.8410088,24.6075439 C18.8410088,24.9033901 19.0923794,25.1432582 19.4024123,25.1432582 C19.7124452,25.1432582 19.9638158,24.9033901 19.9638158,24.6075439 L19.9638158,18.9592634 C19.9638158,18.6634173 19.7124452,18.4235491 19.4024123,18.4235491 Z M15.7223136,18.4235491 C15.4122807,18.4235491 15.1609101,18.6634173 15.1609101,18.9592634 L15.1609101,24.6075439 C15.1609101,24.9033901 15.4122807,25.1432582 15.7223136,25.1432582 C16.0323465,25.1432582 16.2837171,24.9033901 16.2837171,24.6075439 L16.2837171,18.9592634 C16.2837171,18.6634173 16.0323465,18.4235491 15.7223136,18.4235491 Z M12.0422149,18.4235491 C11.732182,18.4235491 11.4808114,18.6634173 11.4808114,18.9592634 L11.4808114,24.6075439 C11.4808114,24.9033901 11.732182,25.1432582 12.0422149,25.1432582 C12.3522478,25.1432582 12.6036184,24.9033901 12.6036184,24.6075439 L12.6036184,18.9592634 C12.6036184,18.6634173 12.3522478,18.4235491 12.0422149,18.4235491 Z M8.36211621,18.4235491 C8.05208331,18.4235491 7.8007127,18.6634173 7.8007127,18.9592634 L7.8007127,24.6075439 C7.8007127,24.9033901 8.05208331,25.1432582 8.36211621,25.1432582 C8.67214911,25.1432582 8.92351972,24.9033901 8.92351972,24.6075439 L8.92351972,18.9592634 C8.92351972,18.6634173 8.67214911,18.4235491 8.36211621,18.4235491 Z" id="Combined-Shape" fill="#F5C298"></path>
                </g>
                <g id="noun_Cupcake_1845787-Copy-2" transform="translate(90.000000, 119.000000)">
                    <path d="M6.62068966,2.14285714 C7.11111111,1.42857143 8.58237548,1.07142857 11.0344828,1.07142857 C13.48659,1.07142857 16.7969349,1.42857143 20.9655172,2.14285714 L20.9655172,9.64285714 L6.62068966,9.64285714 C5.88505747,7.5 5.51724138,5.71428571 5.51724138,4.28571429 C5.51724138,2.85714286 5.88505747,2.14285714 6.62068966,2.14285714 Z" id="Rectangle" fill="#E5F4DC"></path>
                    <path d="M0.037554807,8.59523229 C0.0444078596,7.447161 1.02823461,6.5130615 2.23135961,6.5130615 L2.6192434,6.5130615 C2.91474779,6.5130615 3.15953942,6.29438127 3.17927629,6.01318355 C3.39528505,2.93622696 5.77467105,0.525774214 8.59649123,0.525774214 L22.9385965,0.525774214 C25.7604167,0.525774214 28.1398026,2.93622691 28.3558114,6.01318355 C28.3755482,6.29438121 28.6203399,6.5130615 28.9158443,6.5130615 L29.3097588,6.5130615 C30.5194628,6.5130615 31.5035636,7.45213098 31.5035636,8.60648014 L31.5035636,10.6303187 C31.4983553,10.6596156 31.495614,10.6896972 31.495614,10.7205635 C31.495614,12.5633893 29.9202303,14.0624999 27.9835526,14.0624999 C26.0471491,14.0624999 24.4717653,12.5633893 24.4717653,10.7205635 C24.4717653,10.4247174 24.2203947,10.1848493 23.9103618,10.1848493 C23.6003289,10.1848493 23.3489583,10.4247174 23.3489583,10.7205635 C23.3489583,12.5633893 21.7735746,14.0624999 19.8368969,14.0624999 C17.9004934,14.0624999 16.3251096,12.5633893 16.3251096,10.7205635 C16.3251096,10.4247174 16.073739,10.1848493 15.7637061,10.1848493 C15.4536732,10.1848493 15.2023026,10.4247174 15.2023026,10.7205635 C15.2023026,12.5633893 13.6269188,14.0624999 11.6902412,14.0624999 C9.75356351,14.0624999 8.17817976,12.5633893 8.17817976,10.7205635 C8.17817976,10.4247174 7.92680915,10.1848493 7.61677625,10.1848493 C7.30674335,10.1848493 7.05537274,10.4247174 7.05537274,10.7205635 C7.05537274,12.5633893 5.479989,14.0624999 3.54358546,14.0624999 C1.60690785,14.0624999 0.0315240421,12.5633893 0.0315240421,10.722133 L0.037554807,8.59523229 Z M21.0578399,3.23233468 C21.2184758,3.23233468 21.3780153,3.16693987 21.4890351,3.04007395 L21.9046052,2.56530761 C22.1033443,2.33825684 22.071546,2.00029645 21.8336075,1.8106515 C21.5956689,1.62074496 21.2415022,1.65108814 21.0427632,1.8784005 L20.627193,2.35316684 C20.428454,2.58021761 20.4602522,2.918178 20.6981908,3.10782295 C20.8031798,3.1915283 20.930921,3.23233468 21.0578399,3.23233468 Z M10.8741776,3.23233468 C11.0348136,3.23233468 11.1940789,3.16693988 11.3050987,3.04007395 L11.720943,2.56530761 C11.9199562,2.33851843 11.8881579,2.00055804 11.6502193,1.81091309 C11.4125548,1.62074496 11.0583882,1.6510882 10.8596491,1.87840055 L10.4438048,2.35316689 C10.2447916,2.57995607 10.2765899,2.91791646 10.5145285,3.10756141 C10.6195175,3.1915283 10.7472588,3.23233468 10.8741776,3.23233468 Z M16.9561404,6.41810829 L17.4673794,7.18087334 C17.5745614,7.34095982 17.7557566,7.42806573 17.9407894,7.42806573 C18.0444079,7.42806573 18.1491228,7.40086152 18.2425987,7.34357566 C18.5038377,7.18427389 18.580318,6.85285302 18.413103,6.60382955 L17.901864,5.8410645 C17.7346491,5.59125632 17.386239,5.51801416 17.1266447,5.67836223 C16.8654057,5.83766395 16.7889254,6.16908482 16.9561404,6.41810829 Z M6.31962717,4.29251534 C6.34100873,4.29251534 6.36266448,4.29146904 6.38404604,4.28911479 C6.69216006,4.25537105 6.91337718,3.98986811 6.87828946,3.69611464 L6.80345392,3.07094025 C6.76809207,2.77666361 6.48492323,2.56426125 6.18201752,2.59931287 C5.87390349,2.63305661 5.65268637,2.89855955 5.68777409,3.19231302 L5.76260963,3.81748741 C5.79550439,4.09083777 6.03810307,4.29251534 6.31962717,4.29251534 Z M24.7042215,4.43062918 L25.2338268,4.76257323 C25.3286732,4.8219517 25.4355811,4.85046386 25.5413926,4.85046386 C25.7242325,4.85046386 25.9032346,4.76545061 26.0112391,4.60876463 C26.1814694,4.36157223 26.109375,4.02936659 25.8500548,3.86692591 L25.3204496,3.53498186 C25.0616776,3.37358748 24.7135417,3.44185966 24.5430373,3.68879046 C24.372807,3.93598286 24.4449013,4.2681885 24.7042215,4.43062918 Z M15.7239583,3.66734095 C15.7524671,3.66734095 15.7809759,3.66524834 15.8097588,3.66106302 L16.4361294,3.5695103 C16.7425987,3.52478025 16.953125,3.25142995 16.9059759,2.95898437 C16.8591009,2.6665388 16.5699014,2.46643066 16.2661733,2.51063754 L15.6398027,2.60219025 C15.3333334,2.6469203 15.1228071,2.92027061 15.1699562,3.21271618 C15.2124452,3.477696 15.4514803,3.66734095 15.7239583,3.66734095 Z M21.5652412,5.36211284 C21.3379934,5.56326729 21.3245614,5.90227398 21.5356359,6.11912314 L21.966557,6.56223836 C22.0770284,6.6760253 22.2275219,6.73357275 22.3780153,6.73357275 C22.5148026,6.73357275 22.651864,6.68622691 22.7598684,6.59048893 C22.9871162,6.38933448 23.0005482,6.05032779 22.7894737,5.83347863 L22.3585526,5.39036341 C22.1477522,5.17299107 21.7916666,5.16069686 21.5652412,5.36211284 Z M12.4947917,5.13401577 C12.5233004,5.13401577 12.5518092,5.13192316 12.5805921,5.12773784 L13.2069628,5.03618512 C13.513432,4.99145507 13.7239583,4.71810477 13.6768093,4.4256592 C13.6299343,4.13295204 13.3401864,3.93284389 13.0370067,3.97731236 L12.410636,4.06886507 C12.1041667,4.11359512 11.8936404,4.38694543 11.9407895,4.679391 C11.9832785,4.94437082 12.2223136,5.13401577 12.4947917,5.13401577 Z M8.44435307,7.37365725 C8.52494518,7.41210938 8.61047147,7.43015839 8.69490133,7.43015839 C8.90076755,7.43015839 9.09923245,7.32186461 9.19764255,7.13405068 L9.59868424,6.36919296 C9.73739037,6.10473638 9.62500003,5.78299388 9.34758776,5.6503732 C9.07072371,5.51853723 8.73327854,5.62526159 8.59429827,5.88997977 L8.19325659,6.65483748 C8.05455046,6.91929407 8.1669408,7.24103657 8.44435307,7.37365725 Z" id="Combined-Shape" fill="#C29ADD" fill-rule="nonzero"></path>
                    <path d="M25.5057882,29.4943673 L6.0455262,29.4943673 C5.79080724,29.4943673 5.5768032,29.3028807 5.54860044,29.0497278 L3.99496298,15.1040104 C5.5584224,14.9586051 6.89915705,14.0791757 7.61677631,12.824707 C8.40296051,14.1990444 9.93421053,15.1339286 11.6902412,15.1339286 C13.4462719,15.1339286 14.977522,14.1990444 15.7637062,12.824707 C16.5498904,14.1990444 18.0808662,15.1339286 19.836897,15.1339286 C21.5929277,15.1339286 23.1241777,14.1990444 23.9103619,12.824707 C24.6292832,14.0814645 25.97365,14.9616132 27.5407758,15.104599 L26.0027745,29.0491818 C25.9748269,29.3025741 25.760717,29.4943673 25.5057882,29.4943673 Z M23.082511,18.4235491 C22.7724781,18.4235491 22.5211075,18.6634173 22.5211075,18.9592634 L22.5211075,24.6075439 C22.5211075,24.9033901 22.7724781,25.1432582 23.082511,25.1432582 C23.3925439,25.1432582 23.6439145,24.9033901 23.6439145,24.6075439 L23.6439145,18.9592634 C23.6439145,18.6634173 23.3925439,18.4235491 23.082511,18.4235491 Z M19.4024123,18.4235491 C19.0923794,18.4235491 18.8410088,18.6634173 18.8410088,18.9592634 L18.8410088,24.6075439 C18.8410088,24.9033901 19.0923794,25.1432582 19.4024123,25.1432582 C19.7124452,25.1432582 19.9638158,24.9033901 19.9638158,24.6075439 L19.9638158,18.9592634 C19.9638158,18.6634173 19.7124452,18.4235491 19.4024123,18.4235491 Z M15.7223136,18.4235491 C15.4122807,18.4235491 15.1609101,18.6634173 15.1609101,18.9592634 L15.1609101,24.6075439 C15.1609101,24.9033901 15.4122807,25.1432582 15.7223136,25.1432582 C16.0323465,25.1432582 16.2837171,24.9033901 16.2837171,24.6075439 L16.2837171,18.9592634 C16.2837171,18.6634173 16.0323465,18.4235491 15.7223136,18.4235491 Z M12.0422149,18.4235491 C11.732182,18.4235491 11.4808114,18.6634173 11.4808114,18.9592634 L11.4808114,24.6075439 C11.4808114,24.9033901 11.732182,25.1432582 12.0422149,25.1432582 C12.3522478,25.1432582 12.6036184,24.9033901 12.6036184,24.6075439 L12.6036184,18.9592634 C12.6036184,18.6634173 12.3522478,18.4235491 12.0422149,18.4235491 Z M8.36211621,18.4235491 C8.05208331,18.4235491 7.8007127,18.6634173 7.8007127,18.9592634 L7.8007127,24.6075439 C7.8007127,24.9033901 8.05208331,25.1432582 8.36211621,25.1432582 C8.67214911,25.1432582 8.92351972,24.9033901 8.92351972,24.6075439 L8.92351972,18.9592634 C8.92351972,18.6634173 8.67214911,18.4235491 8.36211621,18.4235491 Z" id="Combined-Shape" fill="#F5C298" fill-rule="nonzero"></path>
                </g>
                <path d="M36.3858978,84.4023884 C27.5411292,65.39302 15.3921763,75.5205777 17.1761256,90.2297736 C17.9336576,96.4923884 18.4171337,112.674068 21.5584357,127.959226 C28.6218405,128.350151 39.0980177,125.871688 44,123.028362 C44,123.028362 38.0948695,88.0770813 36.3858978,84.4023884 Z" id="Fill-31" fill="#136BB7"></path>
            </g>
            <path d="M182.929067,99.2109488 L191.070933,103.817069 C191.567821,104.098175 192,104.831031 192,105.39388 L192,114.60612 C192,115.168332 191.568384,115.901506 191.070933,116.182931 L182.929067,120.789051 C182.432179,121.070157 181.568384,121.070476 181.070933,120.789051 L172.929067,116.182931 C172.432179,115.901825 172,115.168969 172,114.60612 L172,105.39388 C172,104.831668 172.431616,104.098494 172.929067,103.817069 L181.070933,99.2109488 C181.567821,98.9298431 182.431616,98.9295243 182.929067,99.2109488 Z" id="Shape-Copy-2" fill="#F4F6F8"></path>
            <path d="M41.9290669,290.210949 L50.0709331,294.817069 C50.5678209,295.098175 51,295.831031 51,296.39388 L51,305.60612 C51,306.168332 50.5683844,306.901506 50.0709331,307.182931 L41.9290669,311.789051 C41.4321791,312.070157 40.5683844,312.070476 40.0709331,311.789051 L31.9290669,307.182931 C31.4321791,306.901825 31,306.168969 31,305.60612 L31,296.39388 C31,295.831668 31.4316156,295.098494 31.9290669,294.817069 L40.0709331,290.210949 C40.5678209,289.929843 41.4316156,289.929524 41.9290669,290.210949 Z" id="Shape-Copy-9" fill="#F4F6F8"></path>
            <path d="M125.929067,64.2109488 L134.070933,68.817069 C134.567821,69.0981747 135,69.8310308 135,70.3938798 L135,79.6061202 C135,80.1683316 134.568384,80.9015065 134.070933,81.182931 L125.929067,85.7890512 C125.432179,86.0701569 124.568384,86.0704757 124.070933,85.7890512 L115.929067,81.182931 C115.432179,80.9018253 115,80.1689692 115,79.6061202 L115,70.3938798 C115,69.8316684 115.431616,69.0984935 115.929067,68.817069 L124.070933,64.2109488 C124.567821,63.9298431 125.431616,63.9295243 125.929067,64.2109488 Z" id="Shape-Copy-5" fill="#F4F6F8"></path>
            <path d="M173.650347,18.1438288 L179.349653,21.2843653 C179.697475,21.4760282 180,21.9757028 180,22.3594635 L180,28.6405365 C180,29.0238625 179.697869,29.5237544 179.349653,29.7156347 L173.650347,32.8561712 C173.302525,33.0478342 172.697869,33.0480516 172.349653,32.8561712 L166.650347,29.7156347 C166.302525,29.5239718 166,29.0242972 166,28.6405365 L166,22.3594635 C166,21.9761375 166.302131,21.4762456 166.650347,21.2843653 L172.349653,18.1438288 C172.697475,17.9521658 173.302131,17.9519484 173.650347,18.1438288 Z" id="Shape-Copy-7" fill="#F4F6F8"></path>
            <path d="M34.6503469,138.143829 L40.3496531,141.284365 C40.6974746,141.476028 41,141.975703 41,142.359464 L41,148.640536 C41,149.023862 40.6978691,149.523754 40.3496531,149.715635 L34.6503469,152.856171 C34.3025254,153.047834 33.6978691,153.048052 33.3496531,152.856171 L27.6503469,149.715635 C27.3025254,149.523972 27,149.024297 27,148.640536 L27,142.359464 C27,141.976138 27.3021309,141.476246 27.6503469,141.284365 L33.3496531,138.143829 C33.6974746,137.952166 34.3021309,137.951948 34.6503469,138.143829 Z" id="Shape-Copy-11" fill="#F4F6F8"></path>
            <path d="M58.6503469,263.143829 L64.3496531,266.284365 C64.6974746,266.476028 65,266.975703 65,267.359464 L65,273.640536 C65,274.023862 64.6978691,274.523754 64.3496531,274.715635 L58.6503469,277.856171 C58.3025254,278.047834 57.6978691,278.048052 57.3496531,277.856171 L51.6503469,274.715635 C51.3025254,274.523972 51,274.024297 51,273.640536 L51,267.359464 C51,266.976138 51.3021309,266.476246 51.6503469,266.284365 L57.3496531,263.143829 C57.6974746,262.952166 58.3021309,262.951948 58.6503469,263.143829 Z" id="Shape-Copy-10" fill="#F4F6F8"></path>
            <path d="M296.929067,290.21308 L305.070933,294.865726 C305.567821,295.149671 306,295.88993 306,296.458464 L306,305.763758 C306,306.331648 305.568384,307.072229 305.070933,307.356496 L296.929067,312.009143 C296.432179,312.293088 295.568384,312.29341 295.070933,312.009143 L286.929067,307.356496 C286.432179,307.072551 286,306.332292 286,305.763758 L286,296.458464 C286,295.890574 286.431616,295.149993 286.929067,294.865726 L295.070933,290.21308 C295.567821,289.929134 296.431616,289.928812 296.929067,290.21308 Z" id="Shape-Copy-4" fill="#F4F6F8"></path>
            <path d="M288.929067,11.2130796 L297.070933,15.8657263 C297.567821,16.1496715 298,16.8899301 298,17.4584644 L298,26.7637578 C298,27.3316481 297.568384,28.0722288 297.070933,28.3564959 L288.929067,33.0091426 C288.432179,33.2930877 287.568384,33.2934097 287.070933,33.0091426 L278.929067,28.3564959 C278.432179,28.0725508 278,27.3322921 278,26.7637578 L278,17.4584644 C278,16.8905741 278.431616,16.1499935 278.929067,15.8657263 L287.070933,11.2130796 C287.567821,10.9291345 288.431616,10.9288125 288.929067,11.2130796 Z" id="Shape-Copy-2" fill="#F4F6F8"></path>
            <g id="noun_Cooking-Pot_503561" transform="translate(241.000000, 62.000000) rotate(-30.000000) translate(-241.000000, -62.000000) translate(219.000000, 42.000000)" fill="#F4F6F8" fill-rule="nonzero">
                <g id="Group" transform="translate(0.799038, 0.553848)">
                    <path d="M38.6428191,10.8741176 L38.6428191,10.8741176 C38.6428191,7.30676471 35.7494681,4.40470588 32.1928191,4.40470588 L25.7428191,4.40470588 L25.7428191,4.40470588 C25.7428191,2.01882353 23.8215426,0.0917647059 21.4428191,0.0917647059 C19.0640957,0.0917647059 17.1428191,2.01882353 17.1428191,4.40470588 L17.1428191,4.40470588 L10.6928191,4.40470588 C7.13617021,4.40470588 4.24281915,7.30676471 4.24281915,10.8741176 L4.24281915,10.8741176 L38.6428191,10.8741176 Z" id="Path"></path>
                    <path d="M40.7928191,15.1870588 L2.20718085,15.1870588 C1.01781915,15.1870588 0.0571808511,16.1505882 0.0571808511,17.3435294 C0.0571808511,18.5364706 1.01781915,19.5 2.20718085,19.5 L4.26569149,19.5 L4.26569149,32.4273529 C4.26569149,35.9947059 7.15904255,38.8967647 10.7156915,38.8967647 L32.2042553,38.8967647 C35.7609043,38.8967647 38.6542553,35.9947059 38.6542553,32.4273529 L38.6542553,19.5 L40.8042553,19.5 C41.993617,19.5 42.9542553,18.5364706 42.9542553,17.3435294 C42.9428191,16.1505882 41.9821809,15.1870588 40.7928191,15.1870588 Z" id="Path"></path>
                </g>
            </g>
            <path d="M199.943352,182.234136 C199.862658,182.089884 199.708273,182 199.54044,182 C199.372326,182 199.217941,182.089611 199.137247,182.234136 L192.898544,193.406254 C191.958228,195.089735 191.747805,197.028662 192.305663,198.86623 C192.86296,200.70489 194.122132,202.220624 195.850902,203.134764 C196.922908,203.700569 198.134448,204 199.354394,204 C200.511577,204 201.6682,203.728436 202.698737,203.214813 L202.990975,203.069468 C204.77186,202.181829 206.077824,200.666915 206.667623,198.805032 C207.258263,196.941783 207.057087,194.97335 206.10108,193.262002 L199.943352,182.234136 Z" id="Path-Copy-2" fill="#E8F2E2" transform="translate(199.500000, 193.000000) rotate(-30.000000) translate(-199.500000, -193.000000) "></path>
            <path d="M183.943352,155.234136 C183.862658,155.089884 183.708273,155 183.54044,155 C183.372326,155 183.217941,155.089611 183.137247,155.234136 L176.898544,166.406254 C175.958228,168.089735 175.747805,170.028662 176.305663,171.86623 C176.86296,173.70489 178.122132,175.220624 179.850902,176.134764 C180.922908,176.700569 182.134448,177 183.354394,177 C184.511577,177 185.6682,176.728436 186.698737,176.214813 L186.990975,176.069468 C188.77186,175.181829 190.077824,173.666915 190.667623,171.805032 C191.258263,169.941783 191.057087,167.97335 190.10108,166.262002 L183.943352,155.234136 Z" id="Path-Copy-3" fill="#E8F2E2" transform="translate(183.500000, 166.000000) rotate(-30.000000) translate(-183.500000, -166.000000) "></path>
            <path d="M61.9290669,33.2109488 L70.0709331,37.817069 C70.5678209,38.0981747 71,38.8310308 71,39.3938798 L71,48.6061202 C71,49.1683316 70.5683844,49.9015065 70.0709331,50.182931 L61.9290669,54.7890512 C61.4321791,55.0701569 60.5683844,55.0704757 60.0709331,54.7890512 L51.9290669,50.182931 C51.4321791,49.9018253 51,49.1689692 51,48.6061202 L51,39.3938798 C51,38.8316684 51.4316156,38.0984935 51.9290669,37.817069 L60.0709331,33.2109488 C60.5678209,32.9298431 61.4316156,32.9295243 61.9290669,33.2109488 Z" id="Shape-Copy-6" fill="#F4F6F8"></path>
            <path d="M344.650347,255.143829 L350.349653,258.284365 C350.697475,258.476028 351,258.975703 351,259.359464 L351,265.640536 C351,266.023862 350.697869,266.523754 350.349653,266.715635 L344.650347,269.856171 C344.302525,270.047834 343.697869,270.048052 343.349653,269.856171 L337.650347,266.715635 C337.302525,266.523972 337,266.024297 337,265.640536 L337,259.359464 C337,258.976138 337.302131,258.476246 337.650347,258.284365 L343.349653,255.143829 C343.697475,254.952166 344.302131,254.951948 344.650347,255.143829 Z" id="Shape-Copy-8" fill="#F4F6F8"></path>
            <g id="noun_Rolling-Pin_503584" transform="translate(366.000000, 320.000000) rotate(47.000000) translate(-366.000000, -320.000000) translate(335.000000, 297.000000)" fill="#F4F6F8" fill-rule="nonzero">
                <path d="M57.9928019,19.9946714 L51.9944015,19.9946714 C51.9944015,16.6856128 49.3071181,14 45.9960011,14 L16.0039989,14 C12.6928819,14 10.0055985,16.6856128 10.0055985,19.9946714 L4.00719808,19.9946714 C2.3436417,19.9946714 1,21.3374778 1,23 C1,24.6625222 2.3436417,26.0053286 4.00719808,26.0053286 L10.0055985,26.0053286 C10.0055985,29.3143872 12.6928819,32 16.0039989,32 L45.9960011,32 C49.3071181,32 51.9944015,29.3143872 51.9944015,26.0053286 L57.9928019,26.0053286 C59.6563583,26.0053286 61,24.6625222 61,23 C60.9840043,21.321492 59.6403626,19.9946714 57.9928019,19.9946714 Z" id="Path" transform="translate(31.000000, 23.000000) scale(1, -1) rotate(210.000000) translate(-31.000000, -23.000000) "></path>
            </g>
            <g id="drug" transform="translate(65.000000, 123.000000)" fill="#F4F6F8" fill-rule="nonzero">
                <path d="M37.9598101,25.7917716 C37.8788725,25.5669571 37.6860597,25.4022952 37.4533093,25.3592026 C35.2719933,24.9558253 33.0301773,24.9992339 30.8661113,25.4762856 C31.1759243,25.0835235 31.4743623,24.6806518 31.7594253,24.2688708 C34.1693041,20.7893627 35.6213064,16.7284201 35.9584944,12.5249939 C35.9776195,12.286468 35.8703068,12.0556508 35.6764315,11.9184115 C35.4824937,11.7811091 35.2312433,11.7580463 35.0161804,11.8578165 C31.4651748,13.5042453 28.3649199,16.0367899 26.0062911,19.2094052 C26.0062911,19.1954412 26.0066036,19.1815403 26.0066036,19.1676395 C26.0066036,14.645252 24.8201017,10.2072174 22.5752856,6.33330437 C22.4556605,6.12687681 22.2367226,6 22.0000972,6 C21.7634094,6 21.5444715,6.12687681 21.4249088,6.33330437 C19.1800302,10.2072806 17.9935284,14.6453152 17.9935284,19.1676395 C17.9935284,19.1816035 17.9938409,19.1954412 17.9938409,19.2094052 C15.6353371,16.037169 12.5350822,13.5046876 8.98395152,11.858006 C8.76876368,11.7581727 8.51757578,11.7812986 8.32363797,11.9184747 C8.12976266,12.0557771 8.02238749,12.2865944 8.04151252,12.5251203 C8.37870056,16.7285465 9.83070287,20.7894891 12.2404567,24.268934 C12.5257072,24.6809677 12.8243326,25.0839658 13.1342081,25.4768543 C10.9684547,24.9994234 8.72732611,24.9562044 6.54669764,25.3593922 C6.31388477,25.4024848 6.12107197,25.5670834 6.04019684,25.7919612 C5.95925921,26.0167758 6.00232178,26.2681915 6.15338452,26.4524409 C8.05001254,28.7661104 10.5385165,30.5358776 13.350021,31.5703533 C13.6010214,31.6626675 13.8543343,31.7485369 14.1092097,31.828909 C13.0120204,32.385006 12.0079563,33.1190339 11.14358,34.0038859 C10.9773297,34.1741081 10.9127671,34.4207849 10.9739547,34.6519181 C11.0352048,34.8830512 11.2130801,35.064015 11.4413304,35.127327 C12.412457,35.3969402 13.4138336,35.5317784 14.4173352,35.5317784 C15.4040867,35.5317784 16.3927133,35.4013632 17.3564023,35.140596 C18.8052171,34.7481498 20.1570318,34.0711155 21.3331587,33.1568189 L21.3331587,37.3259985 C21.3331587,37.6982253 21.6315966,38 21.9998472,38 C22.3680978,38 22.6665358,37.6982885 22.6665358,37.3259985 L22.6665358,33.1563766 C23.8419127,34.0702941 25.1935398,34.7471389 26.6426671,35.1398378 C27.6059186,35.4007946 28.5942952,35.5312098 29.5810468,35.5312098 C30.5843609,35.5312098 31.586175,35.3963716 32.557739,35.126632 C32.7859894,35.0632567 32.9638647,34.882293 33.0251773,34.651223 C33.0864274,34.4200899 33.0219273,34.1734131 32.855552,34.0031909 C31.9918631,33.1189707 30.988174,32.3852588 29.8907973,31.828909 C30.1456727,31.7486 30.3989231,31.6626675 30.6497985,31.5702901 C33.4612405,30.5358144 35.9498069,28.7660472 37.8464349,26.4523778 C37.9976852,26.268002 38.0407477,26.0167126 37.9598101,25.7917716 Z" id="Shape" transform="translate(22.000000, 22.000000) rotate(-30.000000) translate(-22.000000, -22.000000) "></path>
            </g>
            <g id="drug-copy-3" transform="translate(390.000000, 270.000000)" fill="#F4F6F8" fill-rule="nonzero">
                <path d="M24.1562428,16.4129456 C24.104737,16.2698818 23.982038,16.165097 23.8339241,16.1376744 C22.4458139,15.8809798 21.0192037,15.9086034 19.6420708,16.2121818 C19.8392246,15.9622423 20.0291396,15.7058693 20.2105433,15.4438269 C21.7441026,13.2295944 22.6681041,10.6453583 22.8826783,7.97045065 C22.8948487,7.81866145 22.8265589,7.67177776 22.7031837,7.58444369 C22.5797687,7.49706941 22.4198821,7.4823931 22.2830239,7.5458832 C20.023293,8.59361064 18.0504035,10.2052299 16.549458,12.2241669 C16.549458,12.2152807 16.5496568,12.2064347 16.5496568,12.1975887 C16.5496568,9.31970581 15.7946102,6.49550197 14.3660909,4.0302846 C14.2899657,3.89892161 14.1506417,3.81818182 14.0000619,3.81818182 C13.8494423,3.81818182 13.7101182,3.89892161 13.6340329,4.0302846 C12.2054738,6.49554218 11.4504271,9.31974602 11.4504271,12.1975887 C11.4504271,12.206475 11.450626,12.2152807 11.450626,12.2241669 C9.94975997,10.2054712 7.97687047,8.5938921 5.71706006,7.54600383 C5.58012234,7.48247352 5.4202755,7.49719003 5.29686053,7.5844839 C5.17348533,7.67185818 5.10515568,7.81874187 5.11732615,7.97053107 C5.33190036,10.6454387 6.25590183,13.2296749 7.78938154,15.4438671 C7.97090455,15.7060703 8.16093895,15.9625237 8.35813244,16.2125436 C6.9799257,15.908724 5.55375298,15.881221 4.16608032,16.137795 C4.01792667,16.1652176 3.89522762,16.2699622 3.84376162,16.4130662 C3.79225586,16.5561301 3.81965931,16.7161219 3.91579015,16.8333715 C5.12273525,18.3057066 6.70632868,19.4319221 8.49546789,20.0902248 C8.65519541,20.1489703 8.81639453,20.2036144 8.97858797,20.2547603 C8.28037664,20.6086402 7.64142676,21.0757488 7.09136906,21.6388365 C6.98557344,21.7471597 6.94448815,21.9041359 6.98342571,22.0512206 C7.02240304,22.1983053 7.13559641,22.3134641 7.28084664,22.3537536 C7.89883626,22.5253256 8.53607591,22.6111317 9.17466783,22.6111317 C9.80260065,22.6111317 10.4317266,22.5281402 11.0449833,22.3621975 C11.9669564,22.112459 12.8272021,21.6816189 13.5756464,21.0997939 L13.5756464,23.7529082 C13.5756464,23.9897797 13.7655615,24.1818182 13.9999028,24.1818182 C14.2342441,24.1818182 14.4241591,23.9898199 14.4241591,23.7529082 L14.4241591,21.0995124 C15.1721262,21.6810962 16.0322526,22.1118156 16.9544245,22.3617149 C17.5674028,22.5277784 18.1963697,22.6107699 18.8243025,22.6107699 C19.4627751,22.6107699 20.1002932,22.5249637 20.7185612,22.3533113 C20.8638114,22.3129816 20.9770048,22.1978228 21.0160219,22.0507783 C21.0549992,21.9036936 21.0139537,21.7467174 20.9080785,21.6383942 C20.3584584,21.0757086 19.7197471,20.608801 19.0214165,20.2547603 C19.1836099,20.2036546 19.3447692,20.1489703 19.5044172,20.0901846 C21.2935167,19.4318819 22.8771499,18.3056664 24.084095,16.8333313 C24.1803451,16.7160013 24.2077486,16.5560898 24.1562428,16.4129456 Z" id="Shape" transform="translate(14.000000, 14.000000) rotate(-30.000000) translate(-14.000000, -14.000000) "></path>
            </g>
            <g id="drug-copy-2" transform="translate(91.000000, 290.000000)" fill="#F4F6F8" fill-rule="nonzero">
                <path d="M37.9598101,25.7917716 C37.8788725,25.5669571 37.6860597,25.4022952 37.4533093,25.3592026 C35.2719933,24.9558253 33.0301773,24.9992339 30.8661113,25.4762856 C31.1759243,25.0835235 31.4743623,24.6806518 31.7594253,24.2688708 C34.1693041,20.7893627 35.6213064,16.7284201 35.9584944,12.5249939 C35.9776195,12.286468 35.8703068,12.0556508 35.6764315,11.9184115 C35.4824937,11.7811091 35.2312433,11.7580463 35.0161804,11.8578165 C31.4651748,13.5042453 28.3649199,16.0367899 26.0062911,19.2094052 C26.0062911,19.1954412 26.0066036,19.1815403 26.0066036,19.1676395 C26.0066036,14.645252 24.8201017,10.2072174 22.5752856,6.33330437 C22.4556605,6.12687681 22.2367226,6 22.0000972,6 C21.7634094,6 21.5444715,6.12687681 21.4249088,6.33330437 C19.1800302,10.2072806 17.9935284,14.6453152 17.9935284,19.1676395 C17.9935284,19.1816035 17.9938409,19.1954412 17.9938409,19.2094052 C15.6353371,16.037169 12.5350822,13.5046876 8.98395152,11.858006 C8.76876368,11.7581727 8.51757578,11.7812986 8.32363797,11.9184747 C8.12976266,12.0557771 8.02238749,12.2865944 8.04151252,12.5251203 C8.37870056,16.7285465 9.83070287,20.7894891 12.2404567,24.268934 C12.5257072,24.6809677 12.8243326,25.0839658 13.1342081,25.4768543 C10.9684547,24.9994234 8.72732611,24.9562044 6.54669764,25.3593922 C6.31388477,25.4024848 6.12107197,25.5670834 6.04019684,25.7919612 C5.95925921,26.0167758 6.00232178,26.2681915 6.15338452,26.4524409 C8.05001254,28.7661104 10.5385165,30.5358776 13.350021,31.5703533 C13.6010214,31.6626675 13.8543343,31.7485369 14.1092097,31.828909 C13.0120204,32.385006 12.0079563,33.1190339 11.14358,34.0038859 C10.9773297,34.1741081 10.9127671,34.4207849 10.9739547,34.6519181 C11.0352048,34.8830512 11.2130801,35.064015 11.4413304,35.127327 C12.412457,35.3969402 13.4138336,35.5317784 14.4173352,35.5317784 C15.4040867,35.5317784 16.3927133,35.4013632 17.3564023,35.140596 C18.8052171,34.7481498 20.1570318,34.0711155 21.3331587,33.1568189 L21.3331587,37.3259985 C21.3331587,37.6982253 21.6315966,38 21.9998472,38 C22.3680978,38 22.6665358,37.6982885 22.6665358,37.3259985 L22.6665358,33.1563766 C23.8419127,34.0702941 25.1935398,34.7471389 26.6426671,35.1398378 C27.6059186,35.4007946 28.5942952,35.5312098 29.5810468,35.5312098 C30.5843609,35.5312098 31.586175,35.3963716 32.557739,35.126632 C32.7859894,35.0632567 32.9638647,34.882293 33.0251773,34.651223 C33.0864274,34.4200899 33.0219273,34.1734131 32.855552,34.0031909 C31.9918631,33.1189707 30.988174,32.3852588 29.8907973,31.828909 C30.1456727,31.7486 30.3989231,31.6626675 30.6497985,31.5702901 C33.4612405,30.5358144 35.9498069,28.7660472 37.8464349,26.4523778 C37.9976852,26.268002 38.0407477,26.0167126 37.9598101,25.7917716 Z" id="Shape" transform="translate(22.000000, 22.000000) rotate(-30.000000) translate(-22.000000, -22.000000) "></path>
            </g>
            <g id="drug-copy" transform="translate(113.000000, 0.000000)" fill="#F4F6F8" fill-rule="nonzero">
                <path d="M37.9598101,25.7917716 C37.8788725,25.5669571 37.6860597,25.4022952 37.4533093,25.3592026 C35.2719933,24.9558253 33.0301773,24.9992339 30.8661113,25.4762856 C31.1759243,25.0835235 31.4743623,24.6806518 31.7594253,24.2688708 C34.1693041,20.7893627 35.6213064,16.7284201 35.9584944,12.5249939 C35.9776195,12.286468 35.8703068,12.0556508 35.6764315,11.9184115 C35.4824937,11.7811091 35.2312433,11.7580463 35.0161804,11.8578165 C31.4651748,13.5042453 28.3649199,16.0367899 26.0062911,19.2094052 C26.0062911,19.1954412 26.0066036,19.1815403 26.0066036,19.1676395 C26.0066036,14.645252 24.8201017,10.2072174 22.5752856,6.33330437 C22.4556605,6.12687681 22.2367226,6 22.0000972,6 C21.7634094,6 21.5444715,6.12687681 21.4249088,6.33330437 C19.1800302,10.2072806 17.9935284,14.6453152 17.9935284,19.1676395 C17.9935284,19.1816035 17.9938409,19.1954412 17.9938409,19.2094052 C15.6353371,16.037169 12.5350822,13.5046876 8.98395152,11.858006 C8.76876368,11.7581727 8.51757578,11.7812986 8.32363797,11.9184747 C8.12976266,12.0557771 8.02238749,12.2865944 8.04151252,12.5251203 C8.37870056,16.7285465 9.83070287,20.7894891 12.2404567,24.268934 C12.5257072,24.6809677 12.8243326,25.0839658 13.1342081,25.4768543 C10.9684547,24.9994234 8.72732611,24.9562044 6.54669764,25.3593922 C6.31388477,25.4024848 6.12107197,25.5670834 6.04019684,25.7919612 C5.95925921,26.0167758 6.00232178,26.2681915 6.15338452,26.4524409 C8.05001254,28.7661104 10.5385165,30.5358776 13.350021,31.5703533 C13.6010214,31.6626675 13.8543343,31.7485369 14.1092097,31.828909 C13.0120204,32.385006 12.0079563,33.1190339 11.14358,34.0038859 C10.9773297,34.1741081 10.9127671,34.4207849 10.9739547,34.6519181 C11.0352048,34.8830512 11.2130801,35.064015 11.4413304,35.127327 C12.412457,35.3969402 13.4138336,35.5317784 14.4173352,35.5317784 C15.4040867,35.5317784 16.3927133,35.4013632 17.3564023,35.140596 C18.8052171,34.7481498 20.1570318,34.0711155 21.3331587,33.1568189 L21.3331587,37.3259985 C21.3331587,37.6982253 21.6315966,38 21.9998472,38 C22.3680978,38 22.6665358,37.6982885 22.6665358,37.3259985 L22.6665358,33.1563766 C23.8419127,34.0702941 25.1935398,34.7471389 26.6426671,35.1398378 C27.6059186,35.4007946 28.5942952,35.5312098 29.5810468,35.5312098 C30.5843609,35.5312098 31.586175,35.3963716 32.557739,35.126632 C32.7859894,35.0632567 32.9638647,34.882293 33.0251773,34.651223 C33.0864274,34.4200899 33.0219273,34.1734131 32.855552,34.0031909 C31.9918631,33.1189707 30.988174,32.3852588 29.8907973,31.828909 C30.1456727,31.7486 30.3989231,31.6626675 30.6497985,31.5702901 C33.4612405,30.5358144 35.9498069,28.7660472 37.8464349,26.4523778 C37.9976852,26.268002 38.0407477,26.0167126 37.9598101,25.7917716 Z" id="Shape" transform="translate(22.000000, 22.000000) rotate(-30.000000) translate(-22.000000, -22.000000) "></path>
            </g>
            <g id="noun_Bowl_503551" transform="translate(66.500000, 98.000000) rotate(-30.000000) translate(-66.500000, -98.000000) translate(44.000000, 84.000000)" fill="#F4F6F8" fill-rule="nonzero">
                <path d="M33.7641969,27.1775681 C33.7641969,25.6294562 32.9193969,24.2455379 31.5348636,23.1430946 C39.3140636,19.7536676 44.7583302,12.0013798 44.7583302,2.98245485 L44.7583302,0.777568136 L0.758330249,0.777568136 L0.758330249,2.98245485 C0.758330249,11.9896517 6.21433025,19.7419395 13.9817969,23.1430946 C12.5972636,24.2455379 11.7524636,25.6294562 11.7524636,27.1775681" id="Path"></path>
            </g>
        </g>
    </g>
</svg>