<?xml version="1.0" encoding="UTF-8"?>
<svg width="32px" height="52px" viewBox="0 0 32 52" version="1.1" xmlns="http://www.w3.org/2000/svg" xmlns:xlink="http://www.w3.org/1999/xlink">
    <!-- Generator: Sketch 56.3 (81716) - https://sketch.com -->
    <title>ic_alcohol</title>
    <desc>Created with Sketch.</desc>
    <g id="Page-1" stroke="none" stroke-width="1" fill="none" fill-rule="evenodd" stroke-linecap="round" stroke-linejoin="round">
        <g id="Homepage" transform="translate(-825.000000, -1275.000000)" stroke="#136BB7" stroke-width="2.76923077">
            <g id="Group-18" transform="translate(0.000000, 1008.000000)">
                <g id="Group-22" transform="translate(785.000000, 269.000000)">
                    <path d="M43.8666667,20.2153846 L48.9799377,20.2153846 L51.3333333,20.2153846 M62.5333333,20.3076923 L60.411215,20.3076923 L67.4074074,20.3076923 C68.8392568,20.3076923 70,21.47003 70,22.9038462 L70,45.4038462 C70,46.8376623 68.8392568,48 67.4074074,48 L44.5925926,48 C43.1607432,48 42,46.8376623 42,45.4038462 L42,22.9038462 C42,21.47003 43.1607432,20.3076923 44.5925926,20.3076923 M51.1604938,20.3076923 C51.3909465,19.0769231 51.5061728,17.8461538 51.5061728,16.6153846 C51.5061728,15.3846154 51.3909465,14.1538462 51.1604938,12.9230769 M60.8395062,12.9230769 C60.6090535,14.1538462 60.4938272,15.3846154 60.4938272,16.6153846 C60.4938272,17.4358974 60.6090535,18.6666667 60.8395062,20.3076923 M48.825,9.23076923 L63.175,9.23076923 C63.8515488,9.23076923 64.4,9.67583528 64.4,10.2248521 L64.4,11.9289941 C64.4,12.4780109 63.8515488,12.9230769 63.175,12.9230769 L48.825,12.9230769 C48.1484512,12.9230769 47.6,12.4780109 47.6,11.9289941 L47.6,10.2248521 C47.6,9.67583528 48.1484512,9.23076923 48.825,9.23076923 Z M51.3333333,9.23076923 L51.3333333,4.27350427 C51.3333333,1.91331303 53.4226712,0 56,0 C58.5773288,0 60.6666667,1.91331303 60.6666667,4.27350427 L60.6666667,9.23076923 L51.3333333,9.23076923 Z" id="ic_alcohol"></path>
                </g>
            </g>
        </g>
    </g>
</svg>