<?xml version="1.0" encoding="UTF-8"?>
<svg width="40px" height="50px" viewBox="0 0 40 50" version="1.1" xmlns="http://www.w3.org/2000/svg" xmlns:xlink="http://www.w3.org/1999/xlink">
    <!-- Generator: Sketch 56.3 (81716) - https://sketch.com -->
    <title>ic_coconutoil</title>
    <desc>Created with Sketch.</desc>
    <g id="Page-1" stroke="none" stroke-width="1" fill="none" fill-rule="evenodd">
        <g id="Homepage" transform="translate(-490.000000, -1275.000000)" fill-rule="nonzero" stroke="#B73913" stroke-width="3.2">
            <g id="Group-18" transform="translate(0.000000, 1008.000000)">
                <g id="Group-20" transform="translate(454.000000, 269.000000)">
                    <g id="ic_coconutoil" transform="translate(32.000000, 0.000000)">
                        <g id="Group-7" transform="translate(6.000000, 0.000000)">
                            <path d="M16.5,17.8064516 C16.5,31.655914 15,41.0537634 12,46 L24,46 C25,34.1290323 24.5,24.7311828 22.5,17.8064516" id="Path-7" stroke-linecap="round" stroke-linejoin="round"></path>
                            <path d="M18.3649933,14.4727023 L17.306882,13.1103622 C16.7607246,12.4071733 15.9179959,11.9870968 15,11.9870968 C13.3945254,11.9870968 12.1,13.2677025 12.1,14.8387097 C12.1,16.4097168 13.3945254,17.6903226 15,17.6903226 C16.1459578,17.6903226 17.1669433,17.0319605 17.636509,16.0288806 L18.3649933,14.4727023 Z M19.0309381,14.3912875 L20.2162693,15.5751672 C20.6185553,15.9769607 21.1632873,16.2064516 21.75,16.2064516 C22.9412611,16.2064516 23.9,15.2580217 23.9,14.0967742 C23.9,12.9355267 22.9412611,11.9870968 21.75,11.9870968 C20.9956591,11.9870968 20.312317,12.369504 19.9219471,12.9854369 L19.0309381,14.3912875 Z" id="Combined-Shape"></path>
                            <g id="Group-6" stroke-linecap="round" stroke-linejoin="round">
                                <path d="M18,4.54435484 C10,-2.38037634 4,-1.39112903 2.66453526e-15,7.51209677 C1,6.52284946 3.5,6.52284946 7.5,7.51209677" id="Path-8"></path>
                                <path d="M15.6138217,11.4061091 C8.93892186,5.80308552 3.95609906,6.57580287 0.665353333,13.7242612 C2.59414482,13.6003747 5.3684643,13.7638624 8.98831178,14.2147243" id="Path-8-Copy" transform="translate(8.139588, 10.963933) rotate(-30.000000) translate(-8.139588, -10.963933) "></path>
                            </g>
                            <g id="Group-6" transform="translate(27.000000, 9.000000) scale(-1, 1) translate(-27.000000, -9.000000) translate(18.000000, 0.000000)" stroke-linecap="round" stroke-linejoin="round">
                                <path d="M18,4.54435484 C10,-2.38037634 4,-1.39112903 2.66453526e-15,7.51209677 C1,6.52284946 3.5,6.52284946 7.5,7.51209677" id="Path-8"></path>
                                <path d="M15.6138217,11.4061091 C8.93892186,5.80308552 3.95609906,6.57580287 0.665353333,13.7242612 C2.59414482,13.6003747 5.3684643,13.7638624 8.98831178,14.2147243" id="Path-8-Copy" transform="translate(8.139588, 10.963933) rotate(-30.000000) translate(-8.139588, -10.963933) "></path>
                            </g>
                        </g>
                    </g>
                </g>
            </g>
        </g>
    </g>
</svg>