<?xml version="1.0" encoding="UTF-8"?>
<svg width="52px" height="52px" viewBox="0 0 52 52" version="1.1" xmlns="http://www.w3.org/2000/svg" xmlns:xlink="http://www.w3.org/1999/xlink">
    <!-- Generator: Sketch 56.3 (81716) - https://sketch.com -->
    <title>ic_concen</title>
    <desc>Created with Sketch.</desc>
    <g id="Page-1" stroke="none" stroke-width="1" fill="none" fill-rule="evenodd" stroke-linecap="round" stroke-linejoin="round">
        <g id="Homepage" transform="translate(-1147.000000, -1275.000000)" stroke="#F1750E" stroke-width="3.27272727">
            <g id="Group-18" transform="translate(0.000000, 1008.000000)">
                <g id="Group-24" transform="translate(1117.000000, 269.000000)">
                    <path d="M58.8776403,11.2483821 L68.0693357,2.04823066 C70.7960087,-0.680950864 75.2188527,-0.682984369 77.9480343,2.0436887 C77.949549,2.04520199 77.9510629,2.04671598 77.9525762,2.04823066 C80.6824939,4.78065976 80.6824978,9.20813828 77.9525849,11.9405722 L68.7493309,21.152325 C69.396386,23.3220777 68.863693,25.7686189 67.1512521,27.4826352 C64.6685438,29.9676275 60.6414267,29.9694791 58.1564344,27.4867708 C58.1550552,27.4853929 58.1536767,27.4840144 58.1522988,27.4826352 L52.5189219,21.8440757 C50.0332605,19.3561277 50.0332605,15.3247918 52.5189219,12.8368437 C54.239255,11.1149279 56.7011305,10.5852833 58.8776403,11.2483821 Z M51.6191473,21.2077176 L58.4668953,28.0622233 L42.9529201,43.5904716 C41.6452594,44.8993346 39.7834439,45.3128319 38.1329998,44.8286757 C37.3824357,44.6084985 33.1942325,49.2309817 32.1646338,47.681787 C31.135035,46.1325923 35.2772109,42.7587231 35.1288018,41.7724478 C34.9064991,40.2951004 34.769108,38.5054368 36.5843044,36.6885704 L51.6191473,21.2077176 Z" id="ic_concen"></path>
                </g>
            </g>
        </g>
    </g>
</svg>