<?xml version="1.0" encoding="UTF-8"?>
<svg width="46px" height="52px" viewBox="0 0 46 52" version="1.1" xmlns="http://www.w3.org/2000/svg" xmlns:xlink="http://www.w3.org/1999/xlink">
    <!-- Generator: Sketch 56.3 (81716) - https://sketch.com -->
    <title>ic_flower</title>
    <desc>Created with Sketch.</desc>
    <g id="Page-1" stroke="none" stroke-width="1" fill="none" fill-rule="evenodd" stroke-linecap="round" stroke-linejoin="round">
        <g id="Homepage" transform="translate(-984.000000, -1275.000000)" stroke="#13B6B7">
            <g id="Group-18" transform="translate(0.000000, 1008.000000)">
                <g id="Group-23" transform="translate(951.000000, 269.000000)">
                    <g id="ic_flower" transform="translate(33.000000, 0.000000)">
                        <g id="Group-5" stroke-width="2.36259229">
                            <path d="M35.4930118,43.6463391 C36.154289,41.3474511 36.5900636,37.6095797 36.6004596,33.3900994 C36.6119313,28.733973 35.7521972,24.5207916 34.0212571,20.7505552 C32.766553,24.0917715 32.0031775,26.6873538 31.7311305,28.5373023" id="Oval-3-Copy-17" transform="translate(34.165852, 32.198447) rotate(-300.000000) translate(-34.165852, -32.198447) "></path>
                            <path d="M12.965183,45.439677 C14.0091966,43.7280301 14.7714633,38.8565166 14.7856068,33.1159918 C14.7973749,28.3395661 13.9379091,24.0174741 12.2072093,20.1497158 C10.7801794,24.2068497 9.95571024,27.3769948 9.73380181,29.6601511" id="Oval-3-Copy-17" transform="translate(12.259764, 32.794696) scale(-1, 1) rotate(-300.000000) translate(-12.259764, -32.794696) "></path>
                            <path d="M34.5188773,42.429201 C35.234072,39.3500696 35.6997764,34.623588 35.7148716,29.3251633 C35.7324836,23.1433741 34.7171748,17.5497525 32.6689453,12.5442983 C31.404407,16.1632552 30.5978868,18.9577163 30.2493845,20.9276816" id="Oval-3-Copy-16" transform="translate(32.982241, 27.486750) rotate(-315.000000) translate(-32.982241, -27.486750) "></path>
                            <path d="M13.7523118,40.5059985 C13.8806703,40.1353404 14.0031816,39.7216762 14.1189714,39.2691745 C14.8207815,36.5265315 15.27567,32.357132 15.2889691,27.6891496 C15.3046462,22.186476 14.2875858,17.2076781 12.2377879,12.7527559 C10.9022075,16.3497647 10.0248862,19.2681028 9.60582406,21.5077701" id="Oval-3-Copy-16" transform="translate(12.447486, 26.629377) scale(-1, 1) rotate(-315.000000) translate(-12.447486, -26.629377) "></path>
                            <path d="M33.6215045,36.8992712 C34.3579007,33.8416879 34.8297231,29.3389116 34.8421266,24.3189491 C34.8572899,18.1819979 33.7176133,12.6288731 31.4230968,7.65957466 C29.2195134,12.3921458 28.0559947,17.646698 27.9325406,23.4232313" id="Oval-3-Copy-15" transform="translate(31.387408, 22.279423) rotate(-330.000000) translate(-31.387408, -22.279423) "></path>
                            <path d="M17.5696406,36.7774229 C18.316042,33.7187586 18.79524,29.1845701 18.8077414,24.1250025 C18.8229047,17.9880513 17.6832281,12.4349265 15.3887116,7.46562812 C13.1628058,12.2461405 11.9981432,17.5592629 11.8947238,23.4049954" id="Oval-3-Copy-15" transform="translate(15.351307, 22.121525) scale(-1, 1) rotate(-330.000000) translate(-15.351307, -22.121525) "></path>
                            <path d="M23.4766202,40.2962963 C25.8687969,40.2962963 27.8080394,31.2756631 27.8080394,20.1481481 C27.8080394,12.7298048 26.364233,6.01375546 23.4766202,0 C20.5890074,6.01375546 19.145201,12.7298048 19.145201,20.1481481 C19.145201,31.2756631 21.0844434,40.2962963 23.4766202,40.2962963 Z" id="Oval-3-Copy-14"></path>
                        </g>
                        <path d="M23.831009,40.0822134 L23.831009,47.8988142" id="Line-2-Copy-4" stroke-width="3.13043478"></path>
                    </g>
                </g>
            </g>
        </g>
    </g>
</svg>