<?xml version="1.0" encoding="UTF-8"?>
<svg width="52px" height="52px" viewBox="0 0 52 52" version="1.1" xmlns="http://www.w3.org/2000/svg" xmlns:xlink="http://www.w3.org/1999/xlink">
    <!-- Generator: Sketch 56.3 (81716) - https://sketch.com -->
    <title>ic_oliveoil</title>
    <desc>Created with Sketch.</desc>
    <g id="Page-1" stroke="none" stroke-width="1" fill="none" fill-rule="evenodd" stroke-linecap="round" stroke-linejoin="round">
        <g id="Homepage" transform="translate(-318.000000, -1275.000000)" stroke="#13B76B" stroke-width="3">
            <g id="Group-18" transform="translate(0.000000, 1008.000000)">
                <g id="Group-19" transform="translate(288.000000, 269.000000)">
                    <g id="ic_oliveoil" transform="translate(32.000000, 0.000000)">
                        <path d="M38.7905855,38.7893945 C32.6035662,44.9761749 24.7828959,48.1423897 17.7384994,47.9950854 C12.8987872,47.8908138 8.42652234,46.2241237 5.10128916,42.8973637 C1.7744008,39.573914 0.107646282,35.1001667 0.0050258456,30.2622964 C-0.143939305,23.2181719 3.02074256,15.3978034 9.20941697,9.20936791 C15.0918852,3.32712673 22.4524188,0.175807868 29.2170918,0.00698721486 C34.4540444,-0.122110932 39.3351359,1.53630372 42.8987133,5.10139869 C46.2256017,8.42815862 47.8923562,12.9002508 47.9949766,17.7397762 C48.1439418,24.7839007 44.9776047,32.6042692 38.7905855,38.7893945 Z" id="Stroke-1832"></path>
                        <path d="M4.08510638,25.5319149 C5.2947867,20.8018587 8.15338705,16.0883528 12.2553191,12.2553191" id="Stroke-1834"></path>
                        <path d="M37.5945199,19.4042553 C38.2226337,17.1582277 37.3013009,14.2096652 35.0359238,11.9427996 C32.7690582,9.67742249 29.8190073,8.75608974 27.5744681,9.3842035" id="Stroke-1836"></path>
                        <path d="M41.4276121,18.9594106 C43.9160303,16.472497 43.1603137,11.6825074 39.7391641,8.26108628 C36.3180145,4.83966515 31.5284051,4.08388854 29.0399868,6.57250431 C26.5515686,9.05941788 27.3089872,13.8494075 30.7284348,17.2708286 C34.1512864,20.6922497 38.9408959,21.4480264 41.4276121,18.9594106 Z" id="Stroke-1838"></path>
                    </g>
                </g>
            </g>
        </g>
    </g>
</svg>