<?xml version="1.0" encoding="UTF-8"?>
<svg width="219px" height="51px" viewBox="0 0 219 51" version="1.1" xmlns="http://www.w3.org/2000/svg" xmlns:xlink="http://www.w3.org/1999/xlink">
    <!-- Generator: Sketch 54.1 (76490) - https://sketchapp.com -->
    <title>wikileaf_logo_black</title>
    <desc>Created with Sketch.</desc>
    <g id="Page-1" stroke="none" stroke-width="1" fill="none" fill-rule="evenodd">
        <g id="Homepage" transform="translate(-72.000000, -4059.000000)">
            <g id="As-seen-in" transform="translate(0.000000, 3942.000000)">
                <g id="wikileaf_logo_black" transform="translate(72.000000, 117.000000)">
                    <g id="Group-4">
                        <path d="M9.17333334,9.05416666 C13.46,4.7675 19.16,2.4075 25.2216666,2.4075 C31.2858334,2.4075 36.9825,4.7675 41.2691666,9.05416666 C45.5566666,13.3416666 47.9166666,19.0383334 47.9166666,25.1025 C47.9166666,31.1633334 45.5566666,36.8633334 41.2691666,41.1508334 C36.9825,45.4375 31.2858334,47.7975 25.2216666,47.7975 C19.16,47.7975 13.46,45.4375 9.17333334,41.1508334 C4.88583334,36.8633334 2.52583334,31.1633334 2.52583334,25.1025 C2.52583334,19.0383334 4.88583334,13.3416666 9.17333334,9.05416666 M25.2216666,49.7866666 C31.8166666,49.7866666 38.0141666,47.2183334 42.6791666,42.5566666 C47.3408334,37.8958334 49.9091666,31.6941666 49.9091666,25.1025 C49.9091666,18.5075 47.3408334,12.3091667 42.6791666,7.645 C38.0141666,2.98333334 31.8166666,0.415 25.2216666,0.415 C18.6291666,0.415 12.4283333,2.98333334 7.76666666,7.645 C3.1025,12.3091667 0.5375,18.5075 0.5375,25.1025 C0.5375,31.6941666 3.1025,37.8958334 7.76666666,42.5566666 C12.4283333,47.2183334 18.6291666,49.7866666 25.2216666,49.7866666" id="Fill-32" fill="#000000" fill-rule="nonzero"></path>
                        <path d="M9.17333334,9.05416666 C13.46,4.7675 19.16,2.4075 25.2216666,2.4075 C31.2858334,2.4075 36.9825,4.7675 41.2691666,9.05416666 C45.5566666,13.3416666 47.9166666,19.0383334 47.9166666,25.1025 C47.9166666,31.1633334 45.5566666,36.8633334 41.2691666,41.1508334 C36.9825,45.4375 31.2858334,47.7975 25.2216666,47.7975 C19.16,47.7975 13.46,45.4375 9.17333334,41.1508334 C4.88583334,36.8633334 2.52583334,31.1633334 2.52583334,25.1025 C2.52583334,19.0383334 4.88583334,13.3416666 9.17333334,9.05416666 L9.17333334,9.05416666 L9.17333334,9.05416666 Z M25.2216666,49.7866666 C31.8166666,49.7866666 38.0141666,47.2183334 42.6791666,42.5566666 C47.3408334,37.8958334 49.9091666,31.6941666 49.9091666,25.1025 C49.9091666,18.5075 47.3408334,12.3091667 42.6791666,7.645 C38.0141666,2.98333334 31.8166666,0.415 25.2216666,0.415 C18.6291666,0.415 12.4283333,2.98333334 7.76666666,7.645 C3.1025,12.3091667 0.5375,18.5075 0.5375,25.1025 C0.5375,31.6941666 3.1025,37.8958334 7.76666666,42.5566666 C12.4283333,47.2183334 18.6291666,49.7866666 25.2216666,49.7866666 L25.2216666,49.7866666 L25.2216666,49.7866666 Z" id="Stroke-33" stroke="#000000" stroke-width="0.5"></path>
                        <path d="M23.0433334,22.3583334 C23.0433334,21.1083334 23.9908334,20.0891666 25.1658334,20.0533334 C26.3408334,20.0891666 27.2883334,21.1083334 27.2883334,22.3583334 C27.2883334,23.2275 26.2991666,24.8 25.1658334,26.1475 C24.0366666,24.8 23.0433334,23.2275 23.0433334,22.3583334 M9.76583334,21.0041666 L19.4266666,36.0075 C19.6158334,36.3 19.935,36.4733334 20.2833334,36.4733334 C20.4783334,36.4733334 20.6675,36.4175 20.8333334,36.3133334 C21.0416666,36.1766666 21.185,35.9783334 21.2533334,35.7566666 L25.0941666,29.3408334 L29.3391666,35.9325 C29.3558334,35.9525 29.3683334,35.9716666 29.385,35.9908334 C29.4625,36.1183334 29.5666666,36.2258334 29.6975,36.3133334 C29.8633334,36.4175 30.0516666,36.4733334 30.2475,36.4733334 C30.5958334,36.4733334 30.915,36.3 31.1,36.0075 L40.765,21.0041666 C40.7841666,20.975 40.8041666,20.9425 40.82,20.91 L42.4575,20.91 C43.0241666,20.91 43.4866666,20.4508334 43.4866666,19.8808334 C43.4866666,19.315 43.0241666,18.8525 42.4575,18.8525 L36.185,18.8525 C35.615,18.8525 35.1533334,19.315 35.1533334,19.8808334 C35.1533334,20.4508334 35.615,20.91 36.185,20.91 L38.4083334,20.91 L30.0783334,33.8458334 L26.2825,27.9541666 C26.6733334,27.515 27.2458334,26.8341666 27.7933334,26.05 C28.8083334,24.595 29.32,23.3541666 29.32,22.3583334 C29.32,20.05 27.5583334,18.1591666 25.345,18.0291666 C25.3058334,18.0258334 25.2666666,18.0225 25.2275,18.0225 L25.1658334,18.0225 L25.1041666,18.0225 C25.065,18.0225 25.0258334,18.0258334 24.9866666,18.0291666 C22.7733334,18.1591666 21.0125,20.05 21.0125,22.3583334 C21.0125,23.3541666 21.5266666,24.595 22.5391666,26.05 C23.04,26.7725 23.5675,27.4041666 23.9516666,27.8433334 L20.4033334,33.7675 L12.1191667,20.91 L14.3458334,20.91 C14.9125,20.91 15.3741666,20.4508334 15.3741666,19.8808334 C15.3741666,19.315 14.9125,18.8525 14.3458334,18.8525 L8.07333334,18.8525 C7.50333334,18.8525 7.04083334,19.315 7.04083334,19.8808334 C7.04083334,20.4508334 7.50333334,20.91 8.07333334,20.91 L9.71,20.91 C9.72666666,20.9425 9.7425,20.975 9.76583334,21.0041666" id="Fill-35" fill="#000000" fill-rule="nonzero"></path>
                        <path d="M23.0433334,22.3583334 C23.0433334,21.1083334 23.9908334,20.0891666 25.1658334,20.0533334 C26.3408334,20.0891666 27.2883334,21.1083334 27.2883334,22.3583334 C27.2883334,23.2275 26.2991666,24.8 25.1658334,26.1475 C24.0366666,24.8 23.0433334,23.2275 23.0433334,22.3583334 L23.0433334,22.3583334 L23.0433334,22.3583334 Z M9.76583334,21.0041666 L19.4266666,36.0075 C19.6158334,36.3 19.935,36.4733334 20.2833334,36.4733334 C20.4783334,36.4733334 20.6675,36.4175 20.8333334,36.3133334 C21.0416666,36.1766666 21.185,35.9783334 21.2533334,35.7566666 L25.0941666,29.3408334 L29.3391666,35.9325 C29.3558334,35.9525 29.3683334,35.9716666 29.385,35.9908334 C29.4625,36.1183334 29.5666666,36.2258334 29.6975,36.3133334 C29.8633334,36.4175 30.0516666,36.4733334 30.2475,36.4733334 C30.5958334,36.4733334 30.915,36.3 31.1,36.0075 L40.765,21.0041666 C40.7841666,20.975 40.8041666,20.9425 40.82,20.91 L42.4575,20.91 C43.0241666,20.91 43.4866666,20.4508334 43.4866666,19.8808334 C43.4866666,19.315 43.0241666,18.8525 42.4575,18.8525 L36.185,18.8525 C35.615,18.8525 35.1533334,19.315 35.1533334,19.8808334 C35.1533334,20.4508334 35.615,20.91 36.185,20.91 L38.4083334,20.91 L30.0783334,33.8458334 L26.2825,27.9541666 C26.6733334,27.515 27.2458334,26.8341666 27.7933334,26.05 C28.8083334,24.595 29.32,23.3541666 29.32,22.3583334 C29.32,20.05 27.5583334,18.1591666 25.345,18.0291666 C25.3058334,18.0258334 25.2666666,18.0225 25.2275,18.0225 L25.1658334,18.0225 L25.1041666,18.0225 C25.065,18.0225 25.0258334,18.0258334 24.9866666,18.0291666 C22.7733334,18.1591666 21.0125,20.05 21.0125,22.3583334 C21.0125,23.3541666 21.5266666,24.595 22.5391666,26.05 C23.04,26.7725 23.5675,27.4041666 23.9516666,27.8433334 L20.4033334,33.7675 L12.1191667,20.91 L14.3458334,20.91 C14.9125,20.91 15.3741666,20.4508334 15.3741666,19.8808334 C15.3741666,19.315 14.9125,18.8525 14.3458334,18.8525 L8.07333334,18.8525 C7.50333334,18.8525 7.04083334,19.315 7.04083334,19.8808334 C7.04083334,20.4508334 7.50333334,20.91 8.07333334,20.91 L9.71,20.91 C9.72666666,20.9425 9.7425,20.975 9.76583334,21.0041666 L9.76583334,21.0041666 L9.76583334,21.0041666 Z" id="Stroke-36" stroke="#000000" stroke-width="0.5"></path>
                    </g>
                    <g id="Group-2" transform="translate(65.000000, 17.000000)" fill="#000000" fill-rule="nonzero">
                        <path d="M0.246666625,2.39551115 C0.175,2.22746667 0.126666625,2.01297782 0.126666625,1.81875551 C0.126666625,1.00386667 0.816666625,0.377288847 1.62333337,0.377288847 C2.33333337,0.377288847 2.88,0.83582218 3.06916662,1.45902218 L6.89083337,13.0236888 L10.6375,1.50884449 C10.875,0.809644487 11.3733334,0.330844487 12.1116666,0.330844487 L12.3233334,0.330844487 C13.0591666,0.330844487 13.58,0.809644487 13.795,1.50884449 L17.545,13.0236888 L21.3633334,1.43622218 C21.5783334,0.83582218 22.0758334,0.377288847 22.7891666,0.377288847 C23.57,0.377288847 24.2341666,1.00386667 24.2341666,1.79511115 C24.2341666,1.99017782 24.1625,2.22746667 24.0941666,2.39551115 L19.1825,16.3423555 C18.9216666,17.088 18.375,17.5693333 17.6625,17.5693333 L17.3758334,17.5693333 C16.6658334,17.5693333 16.145,17.1108 15.8816666,16.3423555 L12.18,5.35444449 L8.47916662,16.3423555 C8.21833337,17.1108 7.67166662,17.5693333 6.9625,17.5693333 L6.67583337,17.5693333 C5.9625,17.5693333 5.44166662,17.1108 5.15583337,16.3423555 L0.246666625,2.39551115 L0.246666625,2.39551115 Z" id="Fill-45"></path>
                        <path d="M32.2616666,1.84493333 C32.2616666,1.02666667 32.9,0.377288847 33.7333334,0.377288847 C34.5375,0.377288847 35.1783334,1.02666667 35.1783334,1.84493333 L35.1783334,15.9826222 C35.1783334,16.8008888 34.5375,17.4477333 33.7333334,17.4477333 C32.9,17.4477333 32.2616666,16.8008888 32.2616666,15.9826222 L32.2616666,1.84493333 L32.2616666,1.84493333 Z" id="Fill-46"></path>
                        <path d="M44.365,1.84493333 C44.365,1.02666667 45.0058334,0.377288847 45.8358334,0.377288847 C46.6433334,0.377288847 47.2841666,1.02666667 47.2841666,1.84493333 L47.2841666,8.96022218 L55.1625,0.931244487 C55.4941666,0.568133333 55.8491666,0.377288847 56.37,0.377288847 C57.1766666,0.377288847 57.7241666,1.02666667 57.7241666,1.74951115 C57.7241666,2.20466667 57.535,2.54075551 57.2,2.85404449 L52.0275,7.90466667 L57.6291666,14.9473333 C57.8675,15.2606222 58.0333334,15.5511112 58.0333334,16.0062667 C58.0333334,16.8236888 57.3916666,17.4477333 56.5616666,17.4477333 C55.9925,17.4477333 55.6375,17.1606222 55.3283334,16.7510667 L49.99,9.85111115 L47.2841666,12.4959112 L47.2841666,15.9826222 C47.2841666,16.8008888 46.6433334,17.4477333 45.8358334,17.4477333 C45.0058334,17.4477333 44.365,16.8008888 44.365,15.9826222 L44.365,1.84493333 L44.365,1.84493333 Z" id="Fill-47"></path>
                        <path d="M66.1975,1.84493333 C66.1975,1.02666667 66.8383337,0.377288847 67.6683337,0.377288847 C68.4758337,0.377288847 69.1175,1.02666667 69.1175,1.84493333 L69.1175,15.9826222 C69.1175,16.8008888 68.4758337,17.4477333 67.6683337,17.4477333 C66.8383337,17.4477333 66.1975,16.8008888 66.1975,15.9826222 L66.1975,1.84493333 L66.1975,1.84493333 Z" id="Fill-48"></path>
                        <path d="M78.3033338,1.84493333 C78.3033338,1.02666667 78.945,0.377288847 79.7716663,0.377288847 C80.5816663,0.377288847 81.22,1.02666667 81.22,1.84493333 L81.22,14.6374222 L88.7425,14.6374222 C89.4783338,14.6374222 90.0708338,15.2369778 90.0708338,15.9826222 C90.0708338,16.7282667 89.4783338,17.3286667 88.7425,17.3286667 L79.7716663,17.3286667 C78.945,17.3286667 78.3033338,16.6792888 78.3033338,15.8373778 L78.3033338,1.84493333 L78.3033338,1.84493333 Z" id="Fill-49"></path>
                        <path d="M97.74,15.8373778 L97.74,1.9868 C97.74,1.14573333 98.3816663,0.498888847 99.2116663,0.498888847 L108.866666,0.498888847 C109.579166,0.498888847 110.171666,1.09928885 110.171666,1.81875551 C110.171666,2.5644 109.579166,3.14115551 108.866666,3.14115551 L100.656666,3.14115551 L100.656666,7.51875551 L107.799166,7.51875551 C108.511666,7.51875551 109.104166,8.11915551 109.104166,8.8648 C109.104166,9.5868 108.511666,10.1644 107.799166,10.1644 L100.656666,10.1644 L100.656666,14.6830222 L108.986666,14.6830222 C109.7,14.6830222 110.2925,15.2834222 110.2925,16.0062667 C110.2925,16.7510667 109.7,17.3286667 108.986666,17.3286667 L99.2116663,17.3286667 C98.3816663,17.3286667 97.74,16.6792888 97.74,15.8373778" id="Fill-50"></path>
                        <path d="M128.303334,10.6423555 L125.386666,3.84035551 L122.466666,10.6423555 L128.303334,10.6423555 L128.303334,10.6423555 Z M117.4375,15.4058667 L123.605834,1.45902218 C123.938334,0.71337782 124.530834,0.25822218 125.364166,0.25822218 L125.504166,0.25822218 C126.334166,0.25822218 126.903334,0.71337782 127.235834,1.45902218 L133.4075,15.4058667 C133.525,15.6203555 133.573334,15.8373778 133.573334,16.0324445 C133.573334,16.8236888 132.9775,17.4511112 132.196666,17.4511112 C131.506666,17.4511112 131.034166,17.0381778 130.774166,16.4149778 L129.42,13.2652 L121.353334,13.2652 L119.954166,16.5104 C119.715834,17.1108 119.218334,17.4511112 118.6,17.4511112 C117.840834,17.4511112 117.248334,16.8473333 117.248334,16.0788888 C117.248334,15.8610222 117.32,15.6465333 117.4375,15.4058667 L117.4375,15.4058667 L117.4375,15.4058667 Z" id="Fill-51"></path>
                        <path d="M141.4775,1.9868 C141.4775,1.14573333 142.118334,0.498888847 142.948334,0.498888847 L152.629166,0.498888847 C153.365,0.498888847 153.960834,1.09928885 153.960834,1.84493333 C153.960834,2.59057782 153.365,3.19097782 152.629166,3.19097782 L144.3975,3.19097782 L144.3975,7.78222218 L151.561666,7.78222218 C152.2975,7.78222218 152.89,8.38262218 152.89,9.12826667 C152.89,9.87391115 152.2975,10.4776888 151.561666,10.4776888 L144.3975,10.4776888 L144.3975,15.9826222 C144.3975,16.8008888 143.755834,17.4511112 142.948334,17.4511112 C142.118334,17.4511112 141.4775,16.8008888 141.4775,15.9826222 L141.4775,1.9868 L141.4775,1.9868 Z" id="Fill-52"></path>
                    </g>
                </g>
            </g>
        </g>
    </g>
</svg>