<?xml version="1.0" encoding="UTF-8"?>
<svg width="203px" height="66px" viewBox="0 0 203 66" version="1.1" xmlns="http://www.w3.org/2000/svg" xmlns:xlink="http://www.w3.org/1999/xlink">
    <!-- Generator: Sketch 54.1 (76490) - https://sketchapp.com -->
    <title>bizjournals-logo</title>
    <desc>Created with Sketch.</desc>
    <g id="Page-1" stroke="none" stroke-width="1" fill="none" fill-rule="evenodd">
        <g id="Homepage" transform="translate(-988.000000, -4051.000000)" fill="#000000" fill-rule="nonzero">
            <g id="As-seen-in" transform="translate(0.000000, 3942.000000)">
                <g id="bizjournals-logo" transform="translate(988.000000, 109.000000)">
                    <polygon id="Path" points="4.51704545 4.93617021 0 4.93617021 0 0 15 0 15 4.93617021 10.5681818 4.93617021 10.5681818 29 4.60227273 29"></polygon>
                    <polygon id="Path" points="18 2.93584812e-16 24.2864583 2.93584812e-16 24.2864583 11.6352584 28.7135417 11.6352584 28.7135417 0 35 0 35 29 28.7135417 29 28.7135417 16.6595745 24.2864583 16.6595745 24.2864583 29 18 29"></polygon>
                    <polygon id="Path" points="39 0 51.5779221 0 51.5779221 4.93617021 44.9935065 4.93617021 44.9935065 11.4589666 50.2272727 11.4589666 50.2272727 16.1306991 44.9935065 16.1306991 44.9935065 24.0638298 52 24.0638298 52 29 39 29"></polygon>
                    <path d="M62,0 L69.7446809,0 C74.8510638,0 77.3191489,2.02735562 77.3191489,6.52279635 L77.3191489,8.55015198 C77.3191489,11.6352584 75.7021277,13.1337386 73.1489362,13.7507599 C76.1276596,14.3677812 78,16.1306991 78,19.8328267 L78,21.6838906 C78,27.0607903 75.1914894,29 70,29 L62.1702128,29 L62.1702128,1.27220085e-15 L62,0 Z M69.1489362,11.7234043 C70.8510638,11.7234043 71.5319149,11.0182371 71.5319149,8.90273556 L71.5319149,7.05167173 C71.5319149,4.84802432 70.6808511,4.40729483 69.1489362,4.40729483 L67.8723404,4.40729483 L67.8723404,11.7234043 L69.1489362,11.7234043 Z M69.3191489,24.5927052 C71.106383,24.5927052 71.8723404,23.6231003 71.8723404,21.2431611 L71.8723404,19.2158055 C71.8723404,16.5714286 71.106383,15.9544073 69.1489362,15.9544073 L67.8723404,15.9544073 L67.8723404,24.5927052 L69.3191489,24.5927052 Z" id="Shape"></path>
                    <path d="M98,1 L98,22.011976 C98,27.5688623 94.8290155,30 89.4559585,30 C84.0829016,30 81,27.4820359 81,21.9251497 L81,1 L87.253886,1 L87.253886,21.8383234 C87.253886,24.1826347 87.7823834,25.0508982 89.4559585,25.0508982 C90.9533679,25.0508982 91.6580311,24.1826347 91.6580311,21.8383234 L91.6580311,1 L98,1 Z" id="Path"></path>
                    <path d="M101,21.2136061 L101,20.27268 L106.967568,20.27268 L106.967568,21.3846836 C106.967568,23.6942294 107.572973,24.3785393 109.043243,24.3785393 C110.340541,24.3785393 110.945946,23.6086907 110.945946,21.8123773 L110.945946,21.4702223 C110.945946,18.989599 109.562162,18.1342117 106.967568,16.5089757 C103.248649,14.1994299 101.345946,12.0609615 101.345946,7.44186989 L101.345946,7.27079242 C101.345946,2.56616203 104.113514,0 109.043243,0 C113.886486,0 116.567568,2.30954583 116.654054,7.27079242 L116.654054,8.12617976 L110.859459,8.12617976 L110.859459,7.18525368 C110.859459,5.21786279 110.081081,4.70463039 109.043243,4.70463039 C107.918919,4.70463039 107.313514,5.30340153 107.313514,6.92863748 L107.313514,7.09971495 C107.313514,9.06710584 108.178378,9.83695445 110.686486,11.4621904 C114.059459,13.6006588 117,15.3114334 117,20.7859124 L117,21.2991448 C117,26.4314689 114.145946,28.9976309 109.12973,28.9976309 C104.113514,29.0831697 101.086486,26.8591626 101,21.2136061 L101,21.2136061 Z" id="Path"></path>
                    <polygon id="Path" points="121 0 127 0 127 29 121 29"></polygon>
                    <polygon id="Path" points="131 0 137.659794 0 142.56701 15.5136778 142.56701 1.27220085e-15 148 1.27220085e-15 148 29 142.128866 29 136.43299 11.0182371 136.43299 29 131.087629 29 131.087629 1.27220085e-15"></polygon>
                    <polygon id="Path" points="153 0 165.577922 0 165.577922 4.93617021 158.993506 4.93617021 158.993506 11.4589666 164.227273 11.4589666 164.227273 16.1306991 158.993506 16.1306991 158.993506 24.0638298 166 24.0638298 166 29 153 29"></polygon>
                    <path d="M169,21.2136061 L169,20.27268 L174.967568,20.27268 L174.967568,21.3846836 C174.967568,23.6942294 175.572973,24.3785393 177.043243,24.3785393 C178.340541,24.3785393 178.945946,23.6086907 178.945946,21.8123773 L178.945946,21.4702223 C178.945946,18.989599 177.562162,18.1342117 174.967568,16.5089757 C171.248649,14.1994299 169.345946,12.0609615 169.345946,7.44186989 L169.345946,7.27079242 C169.345946,2.56616203 172.113514,0 177.043243,0 C181.886486,0 184.567568,2.30954583 184.654054,7.27079242 L184.654054,8.12617976 L178.859459,8.12617976 L178.859459,7.18525368 C178.859459,5.21786279 178.081081,4.70463039 177.043243,4.70463039 C175.918919,4.70463039 175.313514,5.30340153 175.313514,6.92863748 L175.313514,7.09971495 C175.313514,9.06710584 176.178378,9.83695445 178.686486,11.4621904 C182.059459,13.6006588 185,15.3114334 185,20.7859124 L185,21.2991448 C185,26.4314689 182.145946,28.9976309 177.12973,28.9976309 C172.113514,29.0831697 169,26.8591626 169,21.2136061 L169,21.2136061 Z" id="Path"></path>
                    <path d="M187,21.2136061 L187,20.27268 L192.967568,20.27268 L192.967568,21.3846836 C192.967568,23.6942294 193.572973,24.3785393 195.043243,24.3785393 C196.340541,24.3785393 196.945946,23.6086907 196.945946,21.8123773 L196.945946,21.4702223 C196.945946,18.989599 195.562162,18.1342117 192.967568,16.5089757 C189.248649,14.1994299 187.345946,12.0609615 187.345946,7.44186989 L187.345946,7.27079242 C187.345946,2.56616203 190.113514,0 195.043243,0 C199.886486,0 202.567568,2.30954583 202.654054,7.27079242 L202.654054,8.12617976 L196.859459,8.12617976 L196.859459,7.18525368 C196.859459,5.21786279 196.081081,4.70463039 195.043243,4.70463039 C193.918919,4.70463039 193.313514,5.30340153 193.313514,6.92863748 L193.313514,7.09971495 C193.313514,9.06710584 194.178378,9.83695445 196.686486,11.4621904 C200.059459,13.6006588 203,15.3114334 203,20.7859124 L203,21.2991448 C203,26.4314689 200.145946,28.9976309 195.12973,28.9976309 C190.113514,29.0831697 187,26.8591626 187,21.2136061 L187,21.2136061 Z" id="Path"></path>
                    <path d="M27,64.3885542 L27,59.5843373 C27.5454545,59.6716867 28.0909091,59.8463855 29,59.8463855 C30.6363636,59.8463855 31.5454545,59.1475904 31.5454545,57.1385542 L31.5454545,36 L38,36 L38,57.4006024 C38,62.3795181 35.3636364,65 30.4545455,65 C28.7272727,65 27.7272727,64.7379518 27,64.3885542 Z" id="Path"></path>
                    <path d="M42,56.676082 L42,44.4934943 C42,38.659579 45.5522388,36 50.4577114,36 C55.5323383,36 59,38.4879933 59,44.4077014 L59,56.4187034 C59,62.3384115 55.6169154,64.9979905 50.4577114,64.9979905 C45.2985075,65.0837834 42,62.4242044 42,56.676082 Z M52.9104478,56.5902891 L52.9104478,44.4934943 C52.9104478,42.005501 52.1492537,40.9759865 50.4577114,40.9759865 C48.8507463,40.9759865 48.0895522,42.005501 48.0895522,44.4934943 L48.0895522,56.5902891 C48.0895522,59.1640753 48.8507463,60.1935897 50.4577114,60.1935897 C52.1492537,60.1935897 52.9104478,59.1640753 52.9104478,56.5902891 Z" id="Shape"></path>
                    <path d="M80,37 L80,58.011976 C80,63.5688623 76.8290155,66 71.4559585,66 C66.0829016,66 63,63.4820359 63,57.9251497 L63,37 L69.253886,37 L69.253886,57.8383234 C69.253886,60.1826347 69.7823834,61.0508982 71.4559585,61.0508982 C72.9533679,61.0508982 73.6580311,60.1826347 73.6580311,57.8383234 L73.6580311,37 L80,37 Z" id="Path"></path>
                    <path d="M84,36 L91.8865979,36 C97.9329897,36 100.21134,38.3799392 100.21134,43.2279635 L100.21134,46.224924 C100.21134,49.4863222 99.1597938,51.0729483 97.2319588,51.9544073 L101,65 L94.5154639,65 L91.3608247,52.9240122 L90.2216495,52.9240122 L90.2216495,65 L84,65 L84,36 Z M91.7113402,48.8693009 C93.3762887,48.8693009 94.1649485,48.1641337 94.1649485,46.0486322 L94.1649485,43.4042553 C94.1649485,41.4650456 93.4639175,40.7598784 91.7113402,40.7598784 L90.2216495,40.7598784 L90.2216495,48.8693009 L91.7113402,48.8693009 Z" id="Shape"></path>
                    <polygon id="Path" points="104 36 110.659794 36 115.56701 51.5136778 115.56701 36 121 36 121 65 115.128866 65 109.43299 47.0182371 109.43299 65 104.087629 65 104.087629 36"></polygon>
                    <path d="M134.009709,59.0942249 L129.466019,59.0942249 L128.679612,65 L123,65 L127.543689,36 L136.456311,36 L141,65 L134.708738,65 L134.009709,59.0942249 Z M130.07767,54.775076 L133.485437,54.775076 L131.825243,41.5531915 L130.07767,54.775076 Z" id="Shape"></path>
                    <polygon id="Path" points="144 36 150.365517 36 150.365517 59.9756839 157 59.9756839 157 65 144 65"></polygon>
                    <path d="M159,57.2153392 L159,56.2743363 L164.967568,56.2743363 L164.967568,57.3864307 C164.967568,59.6961652 165.572973,60.380531 167.043243,60.380531 C168.340541,60.380531 168.945946,59.6106195 168.945946,57.8141593 L168.945946,57.4719764 C168.945946,54.9911504 167.562162,54.1356932 164.967568,52.5103245 C161.248649,50.20059 159.345946,48.0619469 159.345946,43.4424779 L159.345946,43.2713864 C159.345946,38.5663717 162.113514,36 167.043243,36 C171.886486,36 174.567568,38.3097345 174.654054,43.2713864 L174.654054,44.1268437 L168.859459,44.1268437 L168.859459,43.1858407 C168.859459,41.2182891 168.081081,40.7050147 167.043243,40.7050147 C165.918919,40.7050147 165.313514,41.3038348 165.313514,42.9292035 L165.313514,43.100295 C165.313514,45.0678466 166.178378,45.8377581 168.686486,47.4631268 C172.059459,49.6017699 175,51.3126844 175,56.7876106 L175,57.300885 C175,62.4336283 172.145946,65 167.12973,65 C162.2,65 159.086486,62.7758112 159,57.2153392 L159,57.2153392 Z" id="Path"></path>
                </g>
            </g>
        </g>
    </g>
</svg>