<?xml version="1.0" encoding="UTF-8"?>
<svg width="62px" height="62px" viewBox="0 0 62 62" version="1.1" xmlns="http://www.w3.org/2000/svg" xmlns:xlink="http://www.w3.org/1999/xlink">
    <!-- Generator: Sketch 54.1 (76490) - https://sketchapp.com -->
    <title>ic_maxpotency</title>
    <desc>Created with Sketch.</desc>
    <g id="ic_maxpotency" stroke="none" stroke-width="1" fill="none" fill-rule="evenodd">
        <g id="Group-6" transform="translate(0.000000, 2.000000)">
            <rect id="Rectangle" x="8" y="3" width="56" height="56"></rect>
            <path d="M19.6723205,0.38354335 L34.3276795,8.75830735 C35.2220776,9.26940863 36,10.6018742 36,11.625236 L36,28.374764 C36,29.3969666 35.2230919,30.7300118 34.3276795,31.2416927 L19.6723205,39.6164566 C18.7779224,40.1275579 17.2230919,40.1281375 16.3276795,39.6164566 L1.67232051,31.2416927 C0.777922428,30.7305914 6.9122222e-14,29.3981258 6.9122222e-14,28.374764 L6.9122222e-14,11.625236 C6.9122222e-14,10.6030334 0.776908138,9.26998824 1.67232051,8.75830735 L16.3276795,0.38354335 C17.2220776,-0.127557936 18.7769081,-0.128137549 19.6723205,0.38354335 Z" id="Shape-Copy-2" fill="#4EB713" opacity="0.1"></path>
            <g id="Group-4" transform="translate(13.000000, 9.000000)" fill="#333333">
                <path d="M3,2 C2.448,2 2,2.449 2,3 L2,43 C2,43.552 2.448,44 3,44 L43,44 C43.552,44 44,43.552 44,43 L44,3 C44,2.449 43.552,2 43,2 L3,2 Z M43,46 L3,46 C1.346,46 0,44.655 0,43 L0,3 C0,1.346 1.346,0 3,0 L43,0 C44.654,0 46,1.346 46,3 L46,43 C46,44.655 44.654,46 43,46 L43,46 Z" id="Fill-659"></path>
                <path d="M5,4.5 C4.725,4.5 4.5,4.725 4.5,5 C4.5,5.276 4.725,5.5 5,5.5 C5.275,5.5 5.5,5.276 5.5,5 C5.5,4.725 5.275,4.5 5,4.5 Z M5,6.5 C4.173,6.5 3.5,5.828 3.5,5 C3.5,4.173 4.173,3.5 5,3.5 C5.827,3.5 6.5,4.173 6.5,5 C6.5,5.828 5.827,6.5 5,6.5 L5,6.5 Z" id="Fill-660"></path>
                <path d="M9,4.5 C8.725,4.5 8.5,4.725 8.5,5 C8.5,5.276 8.725,5.5 9,5.5 C9.275,5.5 9.5,5.276 9.5,5 C9.5,4.725 9.275,4.5 9,4.5 Z M9,6.5 C8.173,6.5 7.5,5.828 7.5,5 C7.5,4.173 8.173,3.5 9,3.5 C9.827,3.5 10.5,4.173 10.5,5 C10.5,5.828 9.827,6.5 9,6.5 L9,6.5 Z" id="Fill-661"></path>
                <path d="M13,4.5 C12.725,4.5 12.5,4.725 12.5,5 C12.5,5.276 12.725,5.5 13,5.5 C13.275,5.5 13.5,5.276 13.5,5 C13.5,4.725 13.275,4.5 13,4.5 Z M13,6.5 C12.173,6.5 11.5,5.828 11.5,5 C11.5,4.173 12.173,3.5 13,3.5 C13.827,3.5 14.5,4.173 14.5,5 C14.5,5.828 13.827,6.5 13,6.5 L13,6.5 Z" id="Fill-662"></path>
                <polygon id="Fill-663" points="1 10 45 10 45 8 1 8"></polygon>
                <path d="M35.021,33.278 L34.851,33.263 C34.536,33.208 34.266,33.006 34.124,32.72 L28.285,20.861 L21.889,31.699 C21.729,31.97 21.45,32.15 21.137,32.185 C20.826,32.22 20.512,32.104 20.298,31.874 L13.968,25.114 L7.666,30.746 C7.256,31.114 6.623,31.078 6.254,30.667 C5.887,30.255 5.922,29.623 6.334,29.255 L13.364,22.972 C13.769,22.61 14.389,22.637 14.76,23.034 L20.845,29.533 L27.503,18.25 C27.689,17.934 28.029,17.744 28.402,17.759 C28.77,17.773 29.099,17.987 29.262,18.317 L35.312,30.603 L38.877,27.144 C39.273,26.76 39.905,26.769 40.291,27.166 C40.676,27.562 40.666,28.195 40.27,28.58 L35.718,32.996 C35.529,33.178 35.279,33.278 35.021,33.278" id="Fill-664"></path>
                <path d="M28,21 C26.897,21 26,20.103 26,19 C26,17.897 26.897,17 28,17 C29.103,17 30,17.897 30,19 C30,20.103 29.103,21 28,21" id="Fill-665"></path>
                <path d="M21,33 C19.897,33 19,32.103 19,31 C19,29.897 19.897,29 21,29 C22.103,29 23,29.897 23,31 C23,32.103 22.103,33 21,33" id="Fill-666"></path>
                <path d="M35,34 C33.897,34 33,33.103 33,32 C33,30.897 33.897,30 35,30 C36.103,30 37,30.897 37,32 C37,33.103 36.103,34 35,34" id="Fill-667"></path>
                <path d="M14,23.5 C13.725,23.5 13.5,23.725 13.5,24 C13.5,24.276 13.725,24.5 14,24.5 C14.275,24.5 14.5,24.276 14.5,24 C14.5,23.725 14.275,23.5 14,23.5 Z M14,26.5 C12.621,26.5 11.5,25.379 11.5,24 C11.5,22.622 12.621,21.5 14,21.5 C15.379,21.5 16.5,22.622 16.5,24 C16.5,25.379 15.379,26.5 14,26.5 L14,26.5 Z" id="Fill-668"></path>
            </g>
        </g>
    </g>
</svg>