<?xml version="1.0" encoding="UTF-8"?>
<svg width="62px" height="62px" viewBox="0 0 62 62" version="1.1" xmlns="http://www.w3.org/2000/svg" xmlns:xlink="http://www.w3.org/1999/xlink">
    <!-- Generator: Sketch 54.1 (76490) - https://sketchapp.com -->
    <title>ic_cannaloss</title>
    <desc>Created with Sketch.</desc>
    <g id="ic_cannaloss" stroke="none" stroke-width="1" fill="none" fill-rule="evenodd">
        <g id="Group-9" transform="translate(-5.000000, 3.000000)">
            <rect id="Rectangle-Copy-2" x="11" y="0" width="56" height="56"></rect>
            <path d="M27.6723205,5.38354335 L42.3276795,13.7583073 C43.2220776,14.2694086 44,15.6018742 44,16.625236 L44,33.374764 C44,34.3969666 43.2230919,35.7300118 42.3276795,36.2416927 L27.6723205,44.6164566 C26.7779224,45.1275579 25.2230919,45.1281375 24.3276795,44.6164566 L9.67232051,36.2416927 C8.77792243,35.7305914 8,34.3981258 8,33.374764 L8,16.625236 C8,15.6030334 8.77690814,14.2699882 9.67232051,13.7583073 L24.3276795,5.38354335 C25.2220776,4.87244206 26.7769081,4.87186245 27.6723205,5.38354335 Z" id="Shape-Copy-2" fill="#B73913" opacity="0.1"></path>
            <g id="Group" transform="translate(18.000000, 7.000000)" fill="#333333">
                <path d="M15,2 C7.832,2 2,7.833 2,15 C2,22.168 7.832,28 15,28 C22.168,28 28,22.168 28,15 C28,7.833 22.168,2 15,2 Z M15,30 C6.729,30 0,23.272 0,15 C0,6.729 6.729,0 15,0 C23.271,0 30,6.729 30,15 C30,23.272 23.271,30 15,30 L15,30 Z" id="Fill-274"></path>
                <path d="M38.172,41.585 C37.659,41.585 37.147,41.39 36.757,41 L23.142,27.385 C22.751,26.995 22.751,26.362 23.142,25.971 C23.533,25.581 24.166,25.581 24.556,25.971 L38.171,39.586 L39.586,38.172 L25.971,24.557 C25.58,24.166 25.58,23.534 25.971,23.143 C26.361,22.752 26.994,22.752 27.385,23.143 L41,36.758 C41.78,37.538 41.78,38.807 41,39.586 L39.586,41 C39.196,41.39 38.684,41.585 38.172,41.585" id="Fill-275"></path>
            </g>
        </g>
    </g>
</svg>