<?xml version="1.0" encoding="UTF-8"?>
<svg width="62px" height="62px" viewBox="0 0 62 62" version="1.1" xmlns="http://www.w3.org/2000/svg" xmlns:xlink="http://www.w3.org/1999/xlink">
    <!-- Generator: Sketch 54.1 (76490) - https://sketchapp.com -->
    <title>ic_controlyield</title>
    <desc>Created with Sketch.</desc>
    <g id="ic_controlyield" stroke="none" stroke-width="1" fill="none" fill-rule="evenodd">
        <g id="Group-5" transform="translate(0.000000, 4.000000)">
            <g id="Group-2" transform="translate(18.000000, 8.000000)" fill="#333333">
                <path d="M43,46 L2,46 C0.897,46 0,45.103 0,44 L0,3 C0,2.448 0.447,2 1,2 C1.552,2 2,2.448 2,3 L2,44 L43,44 C43.552,44 44,44.448 44,45 C44,45.553 43.552,46 43,46" id="Fill-149"></path>
                <path d="M7,35 L7,39 L9.001,39 L9,35 L7,35 Z M9,41 L7,41 C5.897,41 5,40.103 5,39 L5,35 C5,33.898 5.897,33 7,33 L9,33 C10.103,33 11,33.898 11,35 L11,39 C11,40.103 10.103,41 9,41 L9,41 Z" id="Fill-150"></path>
                <path d="M16,28 L16,39 L18.001,39 L18,28 L16,28 Z M18,41 L16,41 C14.897,41 14,40.103 14,39 L14,28 C14,26.898 14.897,26 16,26 L18,26 C19.103,26 20,26.898 20,28 L20,39 C20,40.103 19.103,41 18,41 L18,41 Z" id="Fill-151"></path>
                <path d="M25,21 L25,39 L27.001,39 L27,21 L25,21 Z M27,41 L25,41 C23.897,41 23,40.103 23,39 L23,21 C23,19.898 23.897,19 25,19 L27,19 C28.103,19 29,19.898 29,21 L29,39 C29,40.103 28.103,41 27,41 L27,41 Z" id="Fill-152"></path>
                <path d="M34,14 L34,39 L36.001,39 L36,14 L34,14 Z M36,41 L34,41 C32.897,41 32,40.103 32,39 L32,14 C32,12.898 32.897,12 34,12 L36,12 C37.103,12 38,12.898 38,14 L38,39 C38,40.103 37.103,41 36,41 L36,41 Z" id="Fill-153"></path>
                <path d="M5.999,23 C5.518,23 5.095,22.654 5.014,22.165 C4.923,21.621 5.292,21.105 5.836,21.014 C5.974,20.991 19.881,18.487 35.255,1.333 C35.623,0.921 36.255,0.887 36.667,1.255 C37.078,1.624 37.113,2.256 36.744,2.667 C20.859,20.393 6.755,22.889 6.162,22.987 L5.999,23" id="Fill-154"></path>
                <path d="M37,7 C36.447,7 36,6.553 36,6 L36,2 L32,2 C31.447,2 31,1.553 31,1 C31,0.448 31.447,0 32,0 L37,0 C37.552,0 38,0.448 38,1 L38,6 C38,6.553 37.552,7 37,7" id="Fill-155"></path>
            </g>
            <path d="M19.6723205,0.38354335 L34.3276795,8.75830735 C35.2220776,9.26940863 36,10.6018742 36,11.625236 L36,28.374764 C36,29.3969666 35.2230919,30.7300118 34.3276795,31.2416927 L19.6723205,39.6164566 C18.7779224,40.1275579 17.2230919,40.1281375 16.3276795,39.6164566 L1.67232051,31.2416927 C0.777922428,30.7305914 6.9122222e-14,29.3981258 6.9122222e-14,28.374764 L6.9122222e-14,11.625236 C6.9122222e-14,10.6030334 0.776908138,9.26998824 1.67232051,8.75830735 L16.3276795,0.38354335 C17.2220776,-0.127557936 18.7769081,-0.128137549 19.6723205,0.38354335 Z" id="Shape-Copy-2" fill="#136BB7" opacity="0.1"></path>
        </g>
    </g>
</svg>