<svg xmlns="http://www.w3.org/2000/svg" width="159" height="144" viewBox="0 0 159 144">
    <g fill="none" fill-rule="evenodd">
        <path fill="#00B398" d="M65.574 5.275l48.852 27.846c2.98 1.7 5.574 6.13 5.574 9.533v55.692c0 3.399-2.59 7.831-5.574 9.533l-48.852 27.846c-2.98 1.7-8.164 1.701-11.148 0L5.574 107.879c-2.98-1.7-5.574-6.13-5.574-9.533V42.654c0-3.399 2.59-7.831 5.574-9.533L54.426 5.275c2.98-1.7 8.164-1.701 11.148 0z" opacity=".203"/>
        <g stroke="#333" stroke-width="4" transform="translate(51 2)">
            <path stroke-linecap="round" stroke-linejoin="round" d="M7 52c8.667 8.667 12.333 20 11 34-1.333 14 3.667 21.667 15 23 8.667 0 13-4 13-12"/>
            <rect width="16" height="30" x="84.008" y="76.449" rx="8" transform="rotate(46 92.008 91.449)"/>
            <rect width="16" height="30" x="76.175" y="62.003" rx="8" transform="rotate(46 84.175 77.003)"/>
            <rect width="16" height="30" x="67.175" y="48.003" rx="8" transform="rotate(46 75.175 63.003)"/>
            <path d="M56.88 47.172L67.994 58.68l28.774-27.786a8 8 0 1 0-11.115-11.51L56.88 47.172z"/>
            <path stroke-linecap="round" stroke-linejoin="round" d="M28 108c17.333 18 38 16.667 62-4M18 86L0 104c4 20 16 32 36 36l18-19M32 60c8.667.667 17-3.667 25-13M35 69c-6.667-18.667-13-27.667-19-27-6 .667-9 4-9 10M35 38.5L18.5 3M46 26.5L43 3M60 26.5L73 0"/>
        </g>
    </g>
</svg>
