<?xml version="1.0" encoding="UTF-8"?>
<svg width="170px" height="152px" viewBox="0 0 170 152" version="1.1" xmlns="http://www.w3.org/2000/svg" xmlns:xlink="http://www.w3.org/1999/xlink">
    <!-- Generator: Sketch 54.1 (76490) - https://sketchapp.com -->
    <title>Group 9</title>
    <desc>Created with Sketch.</desc>
    <g id="Workspace" stroke="none" stroke-width="1" fill="none" fill-rule="evenodd">
        <g id="Group-9">
            <path d="M65.5744017,1.27528164 L114.425598,29.1213719 C117.406925,30.8207837 120,35.2512317 120,38.6539097 L120,94.3460903 C120,97.7449138 117.410306,102.177289 114.425598,103.878628 L65.5744017,131.724718 C62.5930748,133.42413 57.4103062,133.426057 54.4255983,131.724718 L5.57440169,103.878628 C2.59307476,102.179216 2.27373675e-13,97.7487683 2.27373675e-13,94.3460903 L2.27373675e-13,38.6539097 C2.27373675e-13,35.2550862 2.58969379,30.8227109 5.57440169,29.1213719 L54.4255983,1.27528164 C57.4069252,-0.424130137 62.5896938,-0.42605735 65.5744017,1.27528164 Z" id="Shape-Copy-3" fill="#00B398" fill-rule="nonzero" opacity="0.203171503"></path>
            <g id="Group-6" transform="translate(30.000000, 16.000000)">
                <path d="M80.8893556,89.3483546 L109.930745,89.3483546 C111.574755,89.3483546 112.907489,90.6810884 112.907489,92.3250988 L112.907489,110.185564 C112.907489,111.829574 111.574755,113.162308 109.930745,113.162308 L80.8893556,113.162308 C74.3133139,113.162308 68.9823789,107.831373 68.9823789,101.255331 C68.9823789,94.6792897 74.3133139,89.3483546 80.8893556,89.3483546 Z M80.8893556,93.3483546 C76.5224529,93.3483546 72.9823789,96.8884287 72.9823789,101.255331 C72.9823789,105.622234 76.5224529,109.162308 80.8893556,109.162308 L108.907489,109.162308 L108.907489,93.3483546 L80.8893556,93.3483546 Z" id="Rectangle" fill="#333333" fill-rule="nonzero"></path>
                <path d="M7,53 L96.9583306,52.9534192 C103,53 108,56 108,62 C108,68.0560909 108.028093,87.8963208 108,91 L112,91 C112.070012,84.8680855 112,68.1289881 112,62 C112,53.8189173 105.158689,49.0552681 96.975635,49 L7,49 L7,53 Z" id="Path" fill="#333333" fill-rule="nonzero"></path>
                <path d="M110,112 L110,122 C110,128.980882 104.263865,134 97,134 L11,134 C4.64185027,134 0.38958421,128.352298 0.02540331,121.901497 L0,42" id="Combined-Shape" stroke="#333333" stroke-width="4"></path>
                <path d="M9.8741019,32 C9.672877,32 9.4406533,32 9.1674009,32 C4.12476147,32 -4.26325641e-14,36.312247 -4.26325641e-14,41.675 C-4.26325641e-14,46.4059126 3.21005945,50.3192779 7.4284966,51.1757521" id="Path" stroke="#333333" stroke-width="4" stroke-linecap="round" stroke-linejoin="round"></path>
                <path d="M14.7057038,33.4503731 L14.4668212,26.0708289 C14.4675394,23.1300603 16.9045246,20.6939283 19.9115355,20.6942572 L125.626281,20.7058209 C128.633634,20.7061498 131.071686,23.1433484 131.072015,26.1489481 L131.076901,70.8015119 C131.07723,73.8067697 128.640245,76.2429016 125.633234,76.2425727 L103.613092,76.240164 L103.612654,80.240164 L125.632796,80.2425727 C130.848974,80.2431433 135.077472,76.0161265 135.076901,70.8010742 L135.072015,26.1485104 C135.071444,20.9338 130.842555,16.7063914 125.626719,16.7058209 L19.9119731,16.6942573 C14.695795,16.6936867 10.4672976,20.9207035 10.4678682,26.1357557 L10.707798,33.579789 L14.7057038,33.4503731 Z" id="Path" fill="#333333" fill-rule="nonzero" transform="translate(72.772385, 48.468415) rotate(-16.000000) translate(-72.772385, -48.468415) "></path>
                <path d="M105.222223,73.1803382 C111.267079,73.1809995 111.496711,73.1810246 121.4414,73.1821124 C124.85957,73.1824863 127.629829,70.4131969 127.629455,66.9969236 L127.625465,30.5306631 C127.625091,27.114048 124.853692,24.3436191 121.43518,24.3432451 L24.6540747,24.3326587 C21.2359044,24.3322848 18.465645,27.1015742 18.4660188,30.5178475 L18.8286833,34.5030132" id="Path" stroke="#333333" stroke-width="4" transform="translate(73.047737, 48.757386) rotate(-16.000000) translate(-73.047737, -48.757386) "></path>
                <path d="M67,19 L16.1003962,19 C12.6534003,19 10,21.605034 10,24.99303 L10,36.038572 L10,29.038572" id="Path" stroke="#333333" stroke-width="4" stroke-linecap="round" stroke-linejoin="round"></path>
                <path d="M81,108 C84.8659933,108 88,104.865993 88,101 C88,97.1340067 84.8659933,94 81,94 C77.1340067,94 74,97.1340067 74,101 C74,104.865993 77.1340067,108 81,108 Z M81,104.039474 C79.3200762,104.039474 77.9588913,102.678288 77.9588913,101 C77.9588913,99.3217111 79.3200762,97.9605263 81,97.9605263 C82.6799239,97.9605263 84.0411087,99.3217111 84.0411087,101 C84.0411087,102.678288 82.6799239,104.039474 81,104.039474 Z" id="Oval" fill="#333333" fill-rule="nonzero"></path>
                <path d="M86.9418539,49.7669593 C85.9709448,42.9825041 80.1335198,37.7669593 73.0770925,37.7669593 C66.0206652,37.7669593 60.1832402,42.9825041 59.2123311,49.7669593 L86.9418539,49.7669593 Z" id="Oval-Copy" stroke="#333333" stroke-width="4"></path>
            </g>
        </g>
    </g>
</svg>