<svg xmlns="http://www.w3.org/2000/svg" width="170" height="133" viewBox="0 0 170 133">
    <g fill="none" fill-rule="evenodd">
        <path fill="#00B398" d="M65.574 1.275l48.852 27.846c2.98 1.7 5.574 6.13 5.574 9.533v55.692c0 3.399-2.59 7.831-5.574 9.533l-48.852 27.846c-2.98 1.7-8.164 1.701-11.148 0L5.574 103.879C2.594 102.179 0 97.749 0 94.346V38.654c0-3.399 2.59-7.831 5.574-9.533L54.426 1.275c2.98-1.7 8.164-1.701 11.148 0z" opacity=".203"/>
        <g transform="translate(29 5)">
            <path stroke="#333" stroke-width="4" d="M81.89 86.348c-5.472 0-9.908 4.436-9.908 9.907 0 5.472 4.436 9.907 9.907 9.907h29.042c.54 0 .976-.437.976-.976v-17.86a.977.977 0 0 0-.976-.978H81.889z"/>
            <path stroke="#333" stroke-width="4" d="M13.399 42.162l84.968-.08c7.646.052 13.818 6.263 13.818 13.907v32.784L3.699 42.171l9.7-.009zm94.786 65.92L2 38.923v76.682c0 5.471 4.438 9.907 9.912 9.907h86.361c5.475 0 9.912-4.436 9.912-9.907v-7.521z"/>
            <path fill="#333" d="M10.423 44.162h13v4h-13z"/>
            <path stroke="#333" stroke-width="4" d="M9.428 45.99l2.446-19.177h-.707C6.125 26.813 2 31.126 2 36.488c0 4.731 3.21 8.645 7.428 9.501z"/>
            <path stroke="#333" stroke-width="4" d="M11.912 45.65l-2.264-7.027a7.441 7.441 0 0 1 5.105-9.205L116.375.29a7.445 7.445 0 0 1 9.209 5.103l12.313 42.921a7.441 7.441 0 0 1-5.105 9.205l-24.05 6.893"/>
            <path stroke="#333" stroke-width="4" d="M17.297 43.863l91.292 15.397 18.71-5.363a6.186 6.186 0 0 0 4.244-7.651l-10.056-35.053a6.19 6.19 0 0 0-7.656-4.241L20.796 33.618a6.186 6.186 0 0 0-4.243 7.651l.744 2.594zM14.656 26.626L49.76 16.588H20.757c-3.447 0-6.1 2.605-6.1 5.993v4.045z"/>
            <ellipse cx="82.267" cy="96.627" stroke="#333" stroke-width="4" rx="5.073" ry="5.07"/>
            <path stroke="#333" stroke-width="4" d="M87.942 44.767c-.971-6.784-6.808-12-13.865-12-7.056 0-12.894 5.216-13.865 12h27.73z"/>
        </g>
    </g>
</svg>
