<?xml version="1.0" encoding="UTF-8"?>
<svg width="62px" height="62px" viewBox="0 0 62 62" version="1.1" xmlns="http://www.w3.org/2000/svg" xmlns:xlink="http://www.w3.org/1999/xlink">
    <!-- Generator: Sketch 54.1 (76490) - https://sketchapp.com -->
    <title>ic_productline</title>
    <desc>Created with Sketch.</desc>
    <g id="ic_productline" stroke="none" stroke-width="1" fill="none" fill-rule="evenodd">
        <g id="ic_maker2" transform="translate(0.000000, 3.000000)">
            <rect id="Rectangle-Copy" x="9" y="0" width="56" height="56"></rect>
            <path d="M20.1723205,8.38354335 L34.8276795,16.7583073 C35.7220776,17.2694086 36.5,18.6018742 36.5,19.625236 L36.5,36.374764 C36.5,37.3969666 35.7230919,38.7300118 34.8276795,39.2416927 L20.1723205,47.6164566 C19.2779224,48.1275579 17.7230919,48.1281375 16.8276795,47.6164566 L2.17232051,39.2416927 C1.27792243,38.7305914 0.5,37.3981258 0.5,36.374764 L0.5,19.625236 C0.5,18.6030334 1.27690814,17.2699882 2.17232051,16.7583073 L16.8276795,8.38354335 C17.7220776,7.87244206 19.2769081,7.87186245 20.1723205,8.38354335 Z" id="Shape-Copy-2" fill="#F1750E" opacity="0.1"></path>
            <g id="Group-2" transform="translate(15.000000, 6.000000)" fill="#333333">
                <path d="M2,13.124 L2,44 C2,44.552 2.449,45 3,45 L19,45 C19.552,45 20,44.552 20,44 L20,13.124 L18.03,5.243 L18,5 L18,3 C18,2.449 17.552,2 17,2 L5,2 C4.449,2 4,2.449 4,3 L4,5 L3.971,5.243 L2,13.124 Z M19,47 L3,47 C1.346,47 0,45.655 0,44 L0,13 L0.03,12.758 L2,4.877 L2,3 C2,1.346 3.346,0 5,0 L17,0 C18.655,0 20,1.346 20,3 L20,4.877 L21.971,12.758 L22,13 L22,44 C22,45.655 20.655,47 19,47 L19,47 Z" id="Fill-84"></path>
                <polygon id="Fill-85" points="1 14 21 14 21 12 1 12"></polygon>
                <polygon id="Fill-86" points="3 6 19 6 19 4 3 4"></polygon>
                <path d="M37,47 L19,47 L19,45 L37,45 C37.552,45 38,44.552 38,44 L38,32.163 L36.052,26.317 C36.017,26.214 36,26.108 36,26 L36,24 C36,23.449 35.552,23 35,23 L22,23 L22,21 L35,21 C36.655,21 38,22.346 38,24 L38,25.838 L39.949,31.684 C39.983,31.787 40,31.893 40,32 L40,44 C40,45.655 38.655,47 37,47" id="Fill-87"></path>
                <polygon id="Fill-88" points="22 27 37 27 37 25 22 25"></polygon>
                <polygon id="Fill-89" points="22 33 39 33 39 31 22 31"></polygon>
                <path d="M21,36 L11,36 C10.448,36 10,35.553 10,35 L10,20 C10,19.448 10.448,19 11,19 L20,19 L20,21 L12,21 L12,34 L21,34 L21,36" id="Fill-90"></path>
                <path d="M26,39 L33,39 L33,37 L26,37 L26,39 Z M34,41 L25,41 C24.448,41 24,40.553 24,40 L24,36 C24,35.448 24.448,35 25,35 L34,35 C34.553,35 35,35.448 35,36 L35,40 C35,40.553 34.553,41 34,41 L34,41 Z" id="Fill-91"></path>
            </g>
        </g>
    </g>
</svg>