<?xml version="1.0" encoding="UTF-8"?>
<svg width="62px" height="62px" viewBox="0 0 62 62" version="1.1" xmlns="http://www.w3.org/2000/svg" xmlns:xlink="http://www.w3.org/1999/xlink">
    <!-- Generator: Sketch 54.1 (76490) - https://sketchapp.com -->
    <title>ic_cancompliant</title>
    <desc>Created with Sketch.</desc>
    <g id="ic_cancompliant" stroke="none" stroke-width="1" fill="none" fill-rule="evenodd">
        <g id="ic_maker1" transform="translate(0.000000, 1.000000)">
            <rect id="Rectangle" x="8" y="8" width="56" height="56"></rect>
            <g id="Group" transform="translate(15.000000, 13.000000)" fill="#333333">
                <path d="M40,44 L8,44 C7.659,44 7.326,43.965 7,43.91 L7,11 L40,11 L40,44 Z M2,38 L2,9.74 C2.829,10.426 3.869,10.852 5,10.956 L5,43.189 C3.21,42.149 2,40.216 2,38 Z M41,9 L5.5,9 C3.574,9 2.005,7.436 2,5.51 C2.005,3.575 3.583,2 5.52,2 L40,2 C40.552,2 41,1.553 41,1 C41,0.448 40.552,0 40,0 L5.5,0 C2.467,0 0,2.468 0,5.5 L0,38 C0,42.412 3.589,46 8,46 L41,46 C41.552,46 42,45.553 42,45 L42,10 C42,9.448 41.552,9 41,9 L41,9 Z" id="Fill-173"></path>
                <path d="M39,3 L6,3 C5.448,3 5,3.448 5,4 C5,4.553 5.448,5 6,5 L39,5 C39.552,5 40,4.553 40,4 C40,3.448 39.552,3 39,3" id="Fill-174"></path>
                <path d="M39,6 L6,6 C5.448,6 5,6.448 5,7 C5,7.553 5.448,8 6,8 L39,8 C39.552,8 40,7.553 40,7 C40,6.448 39.552,6 39,6" id="Fill-175"></path>
                <path d="M21,22 L27,22 C27.552,22 28,21.553 28,21 C28,20.448 27.552,20 27,20 L21,20 C20.448,20 20,20.448 20,21 C20,21.553 20.448,22 21,22" id="Fill-177"></path>
                <path d="M21,26 L27,26 C27.552,26 28,25.553 28,25 C28,24.448 27.552,24 27,24 L21,24 C20.448,24 20,24.448 20,25 C20,25.553 20.448,26 21,26" id="Fill-178"></path>
            </g>
            <path d="M19.6723205,0.38354335 L34.3276795,8.75830735 C35.2220776,9.26940863 36,10.6018742 36,11.625236 L36,28.374764 C36,29.3969666 35.2230919,30.7300118 34.3276795,31.2416927 L19.6723205,39.6164566 C18.7779224,40.1275579 17.2230919,40.1281375 16.3276795,39.6164566 L1.67232051,31.2416927 C0.777922428,30.7305914 6.9122222e-14,29.3981258 6.9122222e-14,28.374764 L6.9122222e-14,11.625236 C6.9122222e-14,10.6030334 0.776908138,9.26998824 1.67232051,8.75830735 L16.3276795,0.38354335 C17.2220776,-0.127557936 18.7769081,-0.128137549 19.6723205,0.38354335 Z" id="Shape-Copy-2" fill="#B73913" opacity="0.1"></path>
        </g>
    </g>
</svg>