<?xml version="1.0" encoding="UTF-8"?>
<svg width="62px" height="62px" viewBox="0 0 62 62" version="1.1" xmlns="http://www.w3.org/2000/svg" xmlns:xlink="http://www.w3.org/1999/xlink">
    <!-- Generator: Sketch 54.1 (76490) - https://sketchapp.com -->
    <title>ic_abtest</title>
    <desc>Created with Sketch.</desc>
    <g id="ic_abtest" stroke="none" stroke-width="1" fill="none" fill-rule="evenodd">
        <g id="Group-19" transform="translate(0.000000, 3.000000)">
            <g id="ic_grower2" transform="translate(8.000000, 0.000000)">
                <rect id="Rectangle-Copy" x="0" y="0" width="56" height="56"></rect>
                <g id="Group-5" transform="translate(5.000000, 6.000000)" fill="#333333">
                    <path d="M6,7 L6,9 L28.001,9 L28,7 L6,7 Z M28,11 L6,11 C4.897,11 4,10.103 4,9 L4,7 C4,5.898 4.897,5 6,5 L28,5 C29.103,5 30,5.898 30,7 L30,9 C30,10.103 29.103,11 28,11 L28,11 Z" id="Fill-163"></path>
                    <path d="M6,16 L6,18 L17.001,18 L17,16 L6,16 Z M17,20 L6,20 C4.897,20 4,19.103 4,18 L4,16 C4,14.898 4.897,14 6,14 L17,14 C18.103,14 19,14.898 19,16 L19,18 C19,19.103 18.103,20 17,20 L17,20 Z" id="Fill-164"></path>
                    <path d="M6,25 L6,27 L39.001,27 L39,25 L6,25 Z M39,29 L6,29 C4.897,29 4,28.103 4,27 L4,25 C4,23.898 4.897,23 6,23 L39,23 C40.103,23 41,23.898 41,25 L41,27 C41,28.103 40.103,29 39,29 L39,29 Z" id="Fill-165"></path>
                    <path d="M6,34 L6,36 L13.001,36 L13,34 L6,34 Z M13,38 L6,38 C4.897,38 4,37.103 4,36 L4,34 C4,32.898 4.897,32 6,32 L13,32 C14.103,32 15,32.898 15,34 L15,36 C15,37.103 14.103,38 13,38 L13,38 Z" id="Fill-166"></path>
                    <path d="M43,44 L2,44 C0.897,44 0,43.103 0,42 L0,1 C0,0.448 0.447,0 1,0 C1.552,0 2,0.448 2,1 L2,42 L43,42 C43.552,42 44,42.448 44,43 C44,43.553 43.552,44 43,44" id="Fill-167"></path>
                </g>
            </g>
            <path d="M19.6723205,0.38354335 L34.3276795,8.75830735 C35.2220776,9.26940863 36,10.6018742 36,11.625236 L36,28.374764 C36,29.3969666 35.2230919,30.7300118 34.3276795,31.2416927 L19.6723205,39.6164566 C18.7779224,40.1275579 17.2230919,40.1281375 16.3276795,39.6164566 L1.67232051,31.2416927 C0.777922428,30.7305914 6.9122222e-14,29.3981258 6.9122222e-14,28.374764 L6.9122222e-14,11.625236 C6.9122222e-14,10.6030334 0.776908138,9.26998824 1.67232051,8.75830735 L16.3276795,0.38354335 C17.2220776,-0.127557936 18.7769081,-0.128137549 19.6723205,0.38354335 Z" id="Shape-Copy-2" fill="#F1750E" opacity="0.1"></path>
        </g>
    </g>
</svg>