<?xml version="1.0" encoding="UTF-8"?>
<svg width="86px" height="42px" viewBox="0 0 86 42" version="1.1" xmlns="http://www.w3.org/2000/svg" xmlns:xlink="http://www.w3.org/1999/xlink">
    <!-- Generator: Sketch 53.2 (72643) - https://sketchapp.com -->
    <title>Group</title>
    <desc>Created with Sketch.</desc>
    <g id="Page-1" stroke="none" stroke-width="1" fill="none" fill-rule="evenodd">
        <g id="Homepage_m" transform="translate(-20.000000, -19.000000)">
            <g id="Navigation">
                <g id="Group" transform="translate(20.000000, 20.000000)">
                    <path d="M13.7611911,17.7856775 L13.7611911,24.1437403 C13.7611911,24.4817121 13.8076915,24.784474 13.9006937,25.052035 C13.9936959,25.319596 14.1510819,25.5308253 14.3728563,25.685729 C14.5946308,25.8406328 14.9201336,25.9180835 15.3493746,25.9180835 C15.6784593,25.9180835 15.9646156,25.8687966 16.2078521,25.7702215 C16.4510886,25.6716464 16.6871676,25.5730728 16.9160961,25.4744977 C17.1736407,25.3618404 17.3954118,25.3160741 17.5814162,25.3371973 C17.7674206,25.3583206 17.8747292,25.4885786 17.9033453,25.7279753 C17.9462694,25.9532898 17.8854612,26.164519 17.7209188,26.3616692 C17.5563765,26.5588195 17.3346053,26.7278028 17.0555987,26.8686244 C16.7765921,27.009446 16.4546662,27.1221016 16.0898115,27.2065945 C15.7249567,27.2910875 15.3636843,27.3333333 15.0059835,27.3333333 C14.5767426,27.3333333 14.1868546,27.287567 13.8363079,27.196033 C13.4857611,27.1044989 13.18172,26.946077 12.9241755,26.7207625 C12.6666309,26.495448 12.4663215,26.1997271 12.3232412,25.8335909 C12.1801609,25.4674548 12.1086218,25.0168325 12.1086218,24.4817105 L12.1086218,17.7856775 L11.1428345,17.7856775 C10.8137498,17.7856775 10.6062865,17.7187882 10.5204383,17.5850077 C10.4345901,17.4512272 10.3916667,17.2576004 10.3916667,17.0041216 C10.3916667,16.6802319 10.4667827,16.4725232 10.617017,16.3809892 C10.7672513,16.2894551 10.9711377,16.2436888 11.2286823,16.2436888 L12.1086218,16.2436888 L12.1086218,15.0185471 C12.1086218,14.5960824 12.1479683,14.2651566 12.2266624,14.0257599 C12.3053566,13.7863632 12.5521664,13.6666667 12.9670993,13.6666667 C13.3248001,13.6666667 13.5465713,13.7335559 13.6324194,13.8673364 C13.7182676,14.0011169 13.7611911,14.2158666 13.7611911,14.511592 L13.7611911,16.2436888 L16.4224715,16.2436888 C16.8803285,16.2436888 17.2129852,16.2859347 17.4204517,16.3704276 C17.6279181,16.4549206 17.7388037,16.6591088 17.7531117,16.9829985 C17.7531117,17.3068881 17.6422261,17.5216378 17.4204517,17.627254 C17.1986772,17.7328702 16.8517126,17.7856775 16.3795476,17.7856775 L13.7611911,17.7856775 Z" id="Type-something-Copy-18" fill="#109CB3"></path>
                    <path d="M37.6199329,40.9788165 C36.5510321,40.9788165 35.574784,40.8022889 34.6911593,40.4492284 C33.8075347,40.096168 33.0521894,39.5877685 32.425101,38.9240149 C31.7980125,38.2602612 31.3134514,37.4517649 30.9714032,36.4985017 C30.6293549,35.5452384 30.4583333,34.4684202 30.4583333,33.2680146 C30.4583333,32.2229556 30.6257919,31.2344012 30.9607142,30.3023216 C31.2956364,29.370242 31.7552569,28.5582151 32.3395893,27.8662166 C32.9239218,27.1742181 33.6258228,26.6269826 34.4453134,26.2244937 C35.264804,25.8220047 36.1662301,25.6207633 37.1496189,25.6207633 C37.6626912,25.6207633 38.1543782,25.6772521 38.6246946,25.7902315 C39.0950109,25.9032108 39.5225648,26.051494 39.9073691,26.2350854 C40.2921734,26.4186769 40.6342165,26.6269794 40.9335088,26.8599993 C41.232801,27.0930192 41.4750815,27.3295662 41.6603577,27.5696473 C41.8028778,27.8379732 41.859885,28.0709896 41.8313809,28.2687035 C41.8028769,28.3816828 41.7423068,28.4770077 41.6496687,28.554681 C41.5570306,28.6323543 41.4323274,28.6853126 41.2755553,28.7135575 C41.1045312,28.7559247 40.8943172,28.6959053 40.644907,28.5334975 C40.3954968,28.3710897 40.099772,28.1839705 39.7577238,27.9721342 C39.4156755,27.7602979 39.0237511,27.562587 38.5819388,27.3789956 C38.1401264,27.1954042 37.6413136,27.1036098 37.0854851,27.1036098 C36.3158766,27.1036098 35.6246644,27.2871985 35.011828,27.6543814 C34.3989915,28.0215642 33.8788009,28.4946582 33.4512406,29.0736773 C33.0236803,29.6526965 32.695889,30.3129096 32.4678568,31.0543366 C32.2398246,31.7957636 32.1258102,32.5336488 32.1258102,33.2680146 C32.1258102,34.1718494 32.2505135,35.0050596 32.4999236,35.7676702 C32.7493338,36.5302807 33.1091917,37.1904939 33.5795081,37.7483294 C34.0498244,38.306165 34.6270222,38.7368923 35.3111187,39.0405242 C35.9952152,39.3441562 36.7648122,39.49597 37.6199329,39.49597 C38.3040294,39.4818475 38.8847901,39.3618088 39.3622324,39.1358501 C39.8396748,38.9098914 40.2850435,38.6133251 40.6983518,38.2461422 C41.011896,38.0060611 41.2826801,37.9072056 41.5107123,37.9495729 C41.7244925,38.0060626 41.8812622,38.1084486 41.9810263,38.2567339 C42.0807904,38.4050193 42.1235458,38.5568331 42.1092938,38.7121797 C42.0950417,38.8675263 41.9703385,39.0722983 41.7351804,39.3265018 C41.5000222,39.5807053 41.1793567,39.8313745 40.7731744,40.0785168 C40.3669921,40.3256591 39.8931199,40.5374922 39.3515435,40.7140225 C38.8099671,40.8905527 38.2327693,40.9788165 37.6199329,40.9788165 L37.6199329,40.9788165 Z M51.9003761,33.8611532 C51.9003761,32.7172373 51.6794732,31.9016799 51.2376609,31.4144565 C50.7958486,30.927233 50.1473918,30.683625 49.2922712,30.683625 C48.9217189,30.683625 48.5511722,30.7401138 48.1806199,30.8530931 C47.8100677,30.9660725 47.4751504,31.1461306 47.1758582,31.3932729 C46.876566,31.6404153 46.6307225,31.9581649 46.4383203,32.3465314 C46.2459182,32.7348979 46.1497186,33.2044613 46.1497186,33.7552356 L46.1497186,40.0043745 C46.1497186,40.5127815 45.8789344,40.7669813 45.337358,40.7669813 C45.0950738,40.7669813 44.8991116,40.6963702 44.7494655,40.555146 C44.5998194,40.4139219 44.5249975,40.2303332 44.5249975,40.0043745 L44.5249975,25.5783963 C44.5249975,25.3241927 44.5998194,25.1335429 44.7494655,25.0064412 C44.8991116,24.8793394 45.1021997,24.8157895 45.3587359,24.8157895 C45.8860603,24.8157895 46.1497186,25.0699892 46.1497186,25.5783963 L46.1497186,31.2767636 C46.2779867,31.02256 46.4525712,30.7754214 46.6734773,30.5353403 C46.8943835,30.2952592 47.1544788,30.076365 47.453771,29.8786511 C47.7530632,29.6809373 48.0879805,29.5220625 48.4585327,29.4020219 C48.829085,29.2819814 49.2281353,29.221962 49.6556957,29.221962 C50.18302,29.221962 50.6818329,29.3031647 51.1521493,29.4655725 C51.6224656,29.6279803 52.0322048,29.8715883 52.3813791,30.196404 C52.7305533,30.5212196 53.0084634,30.9342941 53.2151175,31.43564 C53.4217717,31.9369858 53.5250972,32.526588 53.5250972,33.204464 L53.5250972,40.0043745 C53.5250972,40.5127815 53.254313,40.7669813 52.7127366,40.7669813 C52.1711602,40.7669813 51.9003761,40.5127815 51.9003761,40.0043745 L51.9003761,33.8611532 Z M63.4016912,34.4754753 C63.4016912,34.0235579 63.3624987,33.5681168 63.2841127,33.1091382 C63.2057266,32.6501596 63.0596457,32.2335545 62.8458655,31.8593104 C62.6320854,31.4850663 62.3363606,31.1814389 61.9586823,30.948419 C61.581004,30.7153991 61.1000059,30.5988909 60.5156734,30.5988909 C59.888585,30.5988909 59.3719573,30.7330518 58.965775,31.0013778 C58.5595927,31.2697037 58.2353644,31.598045 57.9930802,31.9864115 C57.750796,32.3747781 57.5797744,32.7949137 57.4800104,33.2468311 C57.3802463,33.6987485 57.330365,34.1082925 57.330365,34.4754753 L63.4016912,34.4754753 Z M60.5798072,40.9788165 C59.7531906,40.9788165 59.0334748,40.8234722 58.4206384,40.512779 C57.8078019,40.2020858 57.2983002,39.7819502 56.8921179,39.2523595 C56.4859356,38.7227688 56.1830849,38.1049222 55.9835567,37.3988013 C55.7840286,36.6926804 55.684266,35.9442035 55.684266,35.153348 C55.684266,34.3624926 55.7875915,33.6069546 55.9942457,32.8867112 C56.2008998,32.1664679 56.5073135,31.5309686 56.9134958,30.9801943 C57.3196781,30.42942 57.8291798,29.9916315 58.4420163,29.6668159 C59.0548527,29.3420003 59.7674426,29.1795949 60.5798072,29.1795949 C61.3494157,29.1795949 62.0121243,29.320817 62.5679527,29.6032654 C63.1237811,29.8857137 63.5762757,30.2599522 63.9254499,30.725992 C64.2746242,31.1920318 64.5347195,31.7322062 64.7057436,32.3465314 C64.8767677,32.9608566 64.9622785,33.6069476 64.9622785,34.2848236 C64.9622785,34.8073531 64.8945825,35.178061 64.7591884,35.3969585 C64.6237943,35.615856 64.3708249,35.7253031 64.0002726,35.7253031 L57.330365,35.7253031 C57.316113,36.1772205 57.3802461,36.6291311 57.5227662,37.0810485 C57.6652863,37.5329659 57.8755003,37.9425099 58.1534145,38.3096928 C58.4313287,38.6768756 58.7769348,38.9769725 59.1902431,39.2099924 C59.6035514,39.4430123 60.0809866,39.5595205 60.622563,39.5595205 C61.3209115,39.5595205 61.9087981,39.4641956 62.3862405,39.273543 C62.8636828,39.0828903 63.2805479,38.7827935 63.6368482,38.3732433 C63.7793683,38.2178967 63.9147603,38.1225718 64.0430284,38.0872658 C64.1712965,38.0519597 64.2853109,38.0484292 64.385075,38.076674 C64.4848391,38.1049189 64.5667869,38.1578771 64.6309209,38.2355504 C64.695055,38.3132237 64.7413733,38.3873653 64.7698773,38.4579774 C64.8696414,38.6274464 64.8518267,38.8534017 64.7164326,39.1358501 C64.5810385,39.4182985 64.331632,39.697212 63.9682058,39.9725992 C63.6047795,40.2479864 63.1380331,40.4845333 62.5679527,40.6822472 C61.9978723,40.879961 61.3351637,40.9788165 60.5798072,40.9788165 L60.5798072,40.9788165 Z M66.3945984,35.0897975 C66.3945984,34.3413093 66.5193017,33.6104851 66.7687118,32.897303 C67.018122,32.1841208 67.3779799,31.5521521 67.8482962,31.0013778 C68.3186126,30.4506035 68.8922474,30.0092845 69.5692179,29.6774077 C70.2461884,29.3455309 71.0050966,29.1795949 71.8459652,29.1795949 C72.5728178,29.1795949 73.2426522,29.2996337 73.8554887,29.5397148 C74.4683251,29.7797959 74.9600121,30.0834234 75.3305644,30.4506062 C75.5015885,30.6059528 75.6547954,30.8036637 75.7901895,31.0437448 C75.9255836,31.2838259 75.9362724,31.5239035 75.8222563,31.7639846 C75.7937523,31.8345967 75.743871,31.9122688 75.672611,31.9970033 C75.6013509,32.0817378 75.5122772,32.1452877 75.4053871,32.187655 C75.298497,32.2300223 75.1773567,32.2335528 75.0419626,32.1982468 C74.9065685,32.1629407 74.7676135,32.0605547 74.6250934,31.8910857 C74.2402891,31.4391683 73.8198611,31.1143576 73.3637968,30.9166437 C72.9077324,30.7189298 72.3946678,30.6200744 71.8245873,30.6200744 C71.325767,30.6200744 70.8518947,30.7330521 70.4029564,30.9590107 C69.954018,31.1849694 69.5549677,31.495658 69.2057935,31.8910857 C68.8566192,32.2865134 68.5787092,32.7560768 68.372055,33.2997899 C68.1654009,33.843503 68.0620753,34.4401662 68.0620753,35.0897975 C68.0620753,35.7394287 68.1725268,36.3396225 68.3934329,36.8903968 C68.6143391,37.4411711 68.899375,37.914265 69.2485493,38.3096928 C69.5977235,38.7051205 69.9967739,39.0122785 70.4457122,39.2311759 C70.8946505,39.4500734 71.354271,39.5595205 71.8245873,39.5595205 C72.4374238,39.5595205 72.9576144,39.4818484 73.3851747,39.3265018 C73.812735,39.1711552 74.1975335,38.9098944 74.5395818,38.5427115 C74.796118,38.2743855 75.0348356,38.1508162 75.2557417,38.1719999 C75.4766479,38.1931835 75.6726101,38.3096917 75.8436342,38.521528 C76.0716664,38.6627522 76.1072959,38.860463 75.9505238,39.1146666 C75.8935157,39.3971149 75.7296201,39.6548452 75.4588319,39.8878651 C75.1880437,40.120885 74.8531264,40.3185959 74.4540701,40.4810037 C74.0550138,40.6434115 73.623897,40.7705114 73.1607066,40.8623071 C72.6975163,40.9541028 72.2521476,41 71.8245873,41 C70.9837187,41 70.2283735,40.8411252 69.558529,40.5233708 C68.8886845,40.2056164 68.3186126,39.7784196 67.8482962,39.2417677 C67.3779799,38.7051158 67.018122,38.0766776 66.7687118,37.3564343 C66.5193017,36.6361909 66.3945984,35.8806529 66.3945984,35.0897975 L66.3945984,35.0897975 Z M79.1572101,40.0043745 C79.1572101,40.4845367 78.8793001,40.7387364 78.3234717,40.7669813 C77.7818953,40.7669813 77.5111111,40.5127815 77.5111111,40.0043745 L77.5111111,25.7478644 C77.5111111,25.4230488 77.5681183,25.1970935 77.6821344,25.0699917 C77.7961505,24.94289 78.0099274,24.87934 78.3234717,24.87934 C78.6370159,24.87934 78.8543558,24.9499511 78.9754979,25.0911753 C79.09664,25.2323994 79.1572101,25.4724769 79.1572101,25.811415 L79.1572101,34.7084941 L84.352042,29.6668159 C84.5515702,29.4832245 84.7653471,29.3949607 84.9933793,29.4020219 C85.2214115,29.4090831 85.4102478,29.4796941 85.5598939,29.6138571 C85.70954,29.7480201 85.7843619,29.9280782 85.7843619,30.1540369 C85.7843619,30.3799956 85.6560958,30.6200731 85.3995596,30.8742767 L81.0384661,35.0050634 L85.5492049,39.1994007 C85.8342451,39.4677266 85.983889,39.7219263 85.998141,39.9620074 C86.012393,40.2020886 85.944697,40.3927383 85.7950509,40.5339625 C85.6454048,40.6751867 85.4530055,40.7493283 85.2178473,40.7563895 C84.9826892,40.7634507 84.7653493,40.6681258 84.5658211,40.470412 L79.1572101,35.3863668 L79.1572101,40.0043745 Z" id="Check" fill="#109CB3"></path>
                    <path d="M13.453709,5.95529495 C14.1157992,5.57633673 15.2667833,5.57590697 15.9296244,5.95529495 L26.7784505,12.1647993 C27.4405407,12.5437575 28.0164082,13.5317197 28.0164082,14.2904957 L28.0164082,26.7095043 C28.0164082,27.4674207 27.4412915,28.4558128 26.7784505,28.8352007 L15.9296244,35.0447051 C15.2675342,35.4236633 14.11655,35.424093 13.453709,35.0447051 L2.60488283,28.8352007 C1.94279265,28.4562425 1.36692514,27.4682803 1.36692514,26.7095043 L1.36692514,14.2904957 C1.36692514,13.5325793 1.94204181,12.5441872 2.60488283,12.1647993 L13.453709,5.95529495 L13.453709,5.95529495 Z M12.7702464,4.78172178 L1.92142026,10.9912261 C0.835481062,11.6127813 0,13.0486339 0,14.2904957 L1.29501164e-14,26.7095043 C1.29501164e-14,27.9526147 0.836571821,29.387843 1.92142026,30.0087739 L12.7702464,36.2182782 C13.8561856,36.8398334 15.5282385,36.8392091 16.6130869,36.2182782 L27.4619131,30.0087739 C28.5478523,29.3872187 29.3833333,27.9513661 29.3833333,26.7095043 L29.3833333,14.2904957 C29.3833333,13.0473853 28.5467615,11.612157 27.4619131,10.9912261 L16.6130869,4.78172178 C15.5271477,4.16016659 13.8550948,4.1607909 12.7702464,4.78172178 L12.7702464,4.78172178 Z" id="Shape-Copy" fill="#A5ADBB" fill-rule="nonzero"></path>
                    <path d="M32.1514262,1.09300365 C32.5874368,0.840364838 33.345402,0.840078334 33.7819071,1.09300365 L40.926256,5.23267319 C41.3622666,5.485312 41.7414965,6.14395351 41.7414965,6.64980414 L41.7414965,14.9291432 C41.7414965,15.4344209 41.3627611,16.0933489 40.926256,16.3462742 L33.7819071,20.4859437 C33.3458965,20.7385825 32.5879313,20.738869 32.1514262,20.4859437 L25.0070773,16.3462742 C24.5710667,16.0936354 24.1918369,15.4349939 24.1918369,14.9291432 L24.1918369,6.64980414 C24.1918369,6.14452652 24.5705723,5.48559851 25.0070773,5.23267319 L32.1514262,1.09300365 L32.1514262,1.09300365 Z M31.7013411,0.310621535 L24.5569922,4.45029108 C23.8418615,4.8646612 23.2916667,5.82189631 23.2916667,6.64980414 L23.2916667,14.9291432 C23.2916667,15.7578835 23.8425798,16.7147024 24.5569922,17.1286563 L31.7013411,21.2683258 C32.4164718,21.682696 33.5175798,21.6822797 34.2319922,21.2683258 L41.3763411,17.1286563 C42.0914718,16.7142862 42.6416667,15.7570511 42.6416667,14.9291432 L42.6416667,6.64980414 C42.6416667,5.82106389 42.0907535,4.86424499 41.3763411,4.45029108 L34.2319922,0.310621535 C33.5168615,-0.10374859 32.4157535,-0.103332381 31.7013411,0.310621535 L31.7013411,0.310621535 Z" id="Shape-Copy-12" stroke="#109CB3" stroke-width="0.5" fill="#109CB3" fill-rule="nonzero"></path>
                </g>
            </g>
        </g>
    </g>
</svg>