<?xml version="1.0" encoding="UTF-8"?>
<svg width="433px" height="344px" viewBox="0 0 433 344" version="1.1" xmlns="http://www.w3.org/2000/svg" xmlns:xlink="http://www.w3.org/1999/xlink">
    <!-- Generator: Sketch 55.1 (78136) - https://sketchapp.com -->
    <title>Artboard Copy 2</title>
    <desc>Created with Sketch.</desc>
    <defs>
        <path d="M97.2686958,1.888951 L169.731304,43.1346637 C174.153606,45.6518375 178,52.2142305 178,57.2542873 L178,115.317073 L178,139.745713 C178,144.78006 174.158621,151.345308 169.731304,153.865336 L97.2686958,195.111049 C92.8463942,197.628223 85.1586209,197.631077 80.7313042,195.111049 L8.26869584,153.865336 C3.84639422,151.348162 3.41770987e-13,144.78577 3.41770987e-13,139.745713 L3.41770987e-13,115.317073 L3.41770987e-13,57.2542873 C3.41770987e-13,52.2199397 3.84137913,45.6546921 8.26869584,43.1346637 L80.7313042,1.888951 C85.1536058,-0.628222834 92.8413791,-0.631077428 97.2686958,1.888951 Z" id="path-1"></path>
        <path d="M27.4023332,0.661169231 L2.97038553,7.86723191 C1.12706118,8.40208775 0.0210665641,9.86437835 0,11.5163715 L0,11.5163715 L0,11.608588 C0.00789996152,12.1776957 0.142199307,12.7652467 0.41606464,13.3422587 L0.41606464,13.3422587 L24.3898145,64.6199157 C25.4905425,66.9385026 28.4293282,68.2348034 30.9625825,67.5128798 L30.9625825,67.5128798 L55.6051958,60.3779556 C58.2595829,59.6244148 59.4972436,57.076604 58.3570158,54.6868786 L58.3570158,54.6868786 L34.22,3.55940285 C33.3088711,1.65183818 31.1495483,0.439849573 28.9691589,0.439849573 L28.9691589,0.439849573 C28.4424948,0.439849573 27.9131974,0.510988034 27.4023332,0.661169231" id="path-3"></path>
        <polygon id="path-5" points="0.421623529 0.305335537 37.1538164 0.305335537 37.1538164 52.7648756 0.421623529 52.7648756"></polygon>
    </defs>
    <g id="Artboard-Copy-2" stroke="none" stroke-width="1" fill="none" fill-rule="evenodd">
        <g id="Group-3" transform="translate(0.000000, 9.000000)">
            <g id="Group" transform="translate(118.000000, 130.000000)">
                <mask id="mask-2" fill="white">
                    <use xlink:href="#path-1"></use>
                </mask>
                <use id="Shape-Copy-3" fill="#DCE9F4" xlink:href="#path-1"></use>
            </g>
            <polyline id="Path-10" fill="#FDEBDB" points="102 246 102 187 0 246"></polyline>
            <path d="M311.781171,246 L311.781171,180.255726 C311.781171,174.755054 307.621546,167.592919 302.839114,164.845699 L224.47551,119.830508 C223.727442,119.400788 222.8933,119.038285 222,118.742963 L420,4 L420,246 L311.781171,246 Z" id="Combined-Shape" fill="#E5F4DC"></path>
            <path d="M182.929067,99.2109488 L191.070933,103.817069 C191.567821,104.098175 192,104.831031 192,105.39388 L192,114.60612 C192,115.168332 191.568384,115.901506 191.070933,116.182931 L182.929067,120.789051 C182.432179,121.070157 181.568384,121.070476 181.070933,120.789051 L172.929067,116.182931 C172.432179,115.901825 172,115.168969 172,114.60612 L172,105.39388 C172,104.831668 172.431616,104.098494 172.929067,103.817069 L181.070933,99.2109488 C181.567821,98.9298431 182.431616,98.9295243 182.929067,99.2109488 Z" id="Shape-Copy-2" fill="#F4F6F8"></path>
            <path d="M198.929067,44.2109488 L207.070933,48.817069 C207.567821,49.0981747 208,49.8310308 208,50.3938798 L208,59.6061202 C208,60.1683316 207.568384,60.9015065 207.070933,61.182931 L198.929067,65.7890512 C198.432179,66.0701569 197.568384,66.0704757 197.070933,65.7890512 L188.929067,61.182931 C188.432179,60.9018253 188,60.1689692 188,59.6061202 L188,50.3938798 C188,49.8316684 188.431616,49.0984935 188.929067,48.817069 L197.070933,44.2109488 C197.567821,43.9298431 198.431616,43.9295243 198.929067,44.2109488 Z" id="Shape-Copy-9" fill="#F4F6F8"></path>
            <path d="M61.9290669,99.2109488 L70.0709331,103.817069 C70.5678209,104.098175 71,104.831031 71,105.39388 L71,114.60612 C71,115.168332 70.5683844,115.901506 70.0709331,116.182931 L61.9290669,120.789051 C61.4321791,121.070157 60.5683844,121.070476 60.0709331,120.789051 L51.9290669,116.182931 C51.4321791,115.901825 51,115.168969 51,114.60612 L51,105.39388 C51,104.831668 51.4316156,104.098494 51.9290669,103.817069 L60.0709331,99.2109488 C60.5678209,98.9298431 61.4316156,98.9295243 61.9290669,99.2109488 Z" id="Shape-Copy-5" fill="#F4F6F8"></path>
            <path d="M173.650347,18.1438288 L179.349653,21.2843653 C179.697475,21.4760282 180,21.9757028 180,22.3594635 L180,28.6405365 C180,29.0238625 179.697869,29.5237544 179.349653,29.7156347 L173.650347,32.8561712 C173.302525,33.0478342 172.697869,33.0480516 172.349653,32.8561712 L166.650347,29.7156347 C166.302525,29.5239718 166,29.0242972 166,28.6405365 L166,22.3594635 C166,21.9761375 166.302131,21.4762456 166.650347,21.2843653 L172.349653,18.1438288 C172.697475,17.9521658 173.302131,17.9519484 173.650347,18.1438288 Z" id="Shape-Copy-7" fill="#F4F6F8"></path>
            <path d="M34.6503469,138.143829 L40.3496531,141.284365 C40.6974746,141.476028 41,141.975703 41,142.359464 L41,148.640536 C41,149.023862 40.6978691,149.523754 40.3496531,149.715635 L34.6503469,152.856171 C34.3025254,153.047834 33.6978691,153.048052 33.3496531,152.856171 L27.6503469,149.715635 C27.3025254,149.523972 27,149.024297 27,148.640536 L27,142.359464 C27,141.976138 27.3021309,141.476246 27.6503469,141.284365 L33.3496531,138.143829 C33.6974746,137.952166 34.3021309,137.951948 34.6503469,138.143829 Z" id="Shape-Copy-11" fill="#F4F6F8"></path>
            <path d="M352.650347,258.143829 L358.349653,261.284365 C358.697475,261.476028 359,261.975703 359,262.359464 L359,268.640536 C359,269.023862 358.697869,269.523754 358.349653,269.715635 L352.650347,272.856171 C352.302525,273.047834 351.697869,273.048052 351.349653,272.856171 L345.650347,269.715635 C345.302525,269.523972 345,269.024297 345,268.640536 L345,262.359464 C345,261.976138 345.302131,261.476246 345.650347,261.284365 L351.349653,258.143829 C351.697475,257.952166 352.302131,257.951948 352.650347,258.143829 Z" id="Shape-Copy-10" fill="#F4F6F8"></path>
            <path d="M288.929067,11.2130796 L297.070933,15.8657263 C297.567821,16.1496715 298,16.8899301 298,17.4584644 L298,26.7637578 C298,27.3316481 297.568384,28.0722288 297.070933,28.3564959 L288.929067,33.0091426 C288.432179,33.2930877 287.568384,33.2934097 287.070933,33.0091426 L278.929067,28.3564959 C278.432179,28.0725508 278,27.3322921 278,26.7637578 L278,17.4584644 C278,16.8905741 278.431616,16.1499935 278.929067,15.8657263 L287.070933,11.2130796 C287.567821,10.9291345 288.431616,10.9288125 288.929067,11.2130796 Z" id="Shape-Copy-2" fill="#F4F6F8"></path>
            <path d="M61.9290669,33.2109488 L70.0709331,37.817069 C70.5678209,38.0981747 71,38.8310308 71,39.3938798 L71,48.6061202 C71,49.1683316 70.5683844,49.9015065 70.0709331,50.182931 L61.9290669,54.7890512 C61.4321791,55.0701569 60.5683844,55.0704757 60.0709331,54.7890512 L51.9290669,50.182931 C51.4321791,49.9018253 51,49.1689692 51,48.6061202 L51,39.3938798 C51,38.8316684 51.4316156,38.0984935 51.9290669,37.817069 L60.0709331,33.2109488 C60.5678209,32.9298431 61.4316156,32.9295243 61.9290669,33.2109488 Z" id="Shape-Copy-6" fill="#F4F6F8"></path>
            <g id="drug" transform="translate(65.000000, 123.000000)" fill="#F4F6F8" fill-rule="nonzero">
                <path d="M37.9598101,25.7917716 C37.8788725,25.5669571 37.6860597,25.4022952 37.4533093,25.3592026 C35.2719933,24.9558253 33.0301773,24.9992339 30.8661113,25.4762856 C31.1759243,25.0835235 31.4743623,24.6806518 31.7594253,24.2688708 C34.1693041,20.7893627 35.6213064,16.7284201 35.9584944,12.5249939 C35.9776195,12.286468 35.8703068,12.0556508 35.6764315,11.9184115 C35.4824937,11.7811091 35.2312433,11.7580463 35.0161804,11.8578165 C31.4651748,13.5042453 28.3649199,16.0367899 26.0062911,19.2094052 C26.0062911,19.1954412 26.0066036,19.1815403 26.0066036,19.1676395 C26.0066036,14.645252 24.8201017,10.2072174 22.5752856,6.33330437 C22.4556605,6.12687681 22.2367226,6 22.0000972,6 C21.7634094,6 21.5444715,6.12687681 21.4249088,6.33330437 C19.1800302,10.2072806 17.9935284,14.6453152 17.9935284,19.1676395 C17.9935284,19.1816035 17.9938409,19.1954412 17.9938409,19.2094052 C15.6353371,16.037169 12.5350822,13.5046876 8.98395152,11.858006 C8.76876368,11.7581727 8.51757578,11.7812986 8.32363797,11.9184747 C8.12976266,12.0557771 8.02238749,12.2865944 8.04151252,12.5251203 C8.37870056,16.7285465 9.83070287,20.7894891 12.2404567,24.268934 C12.5257072,24.6809677 12.8243326,25.0839658 13.1342081,25.4768543 C10.9684547,24.9994234 8.72732611,24.9562044 6.54669764,25.3593922 C6.31388477,25.4024848 6.12107197,25.5670834 6.04019684,25.7919612 C5.95925921,26.0167758 6.00232178,26.2681915 6.15338452,26.4524409 C8.05001254,28.7661104 10.5385165,30.5358776 13.350021,31.5703533 C13.6010214,31.6626675 13.8543343,31.7485369 14.1092097,31.828909 C13.0120204,32.385006 12.0079563,33.1190339 11.14358,34.0038859 C10.9773297,34.1741081 10.9127671,34.4207849 10.9739547,34.6519181 C11.0352048,34.8830512 11.2130801,35.064015 11.4413304,35.127327 C12.412457,35.3969402 13.4138336,35.5317784 14.4173352,35.5317784 C15.4040867,35.5317784 16.3927133,35.4013632 17.3564023,35.140596 C18.8052171,34.7481498 20.1570318,34.0711155 21.3331587,33.1568189 L21.3331587,37.3259985 C21.3331587,37.6982253 21.6315966,38 21.9998472,38 C22.3680978,38 22.6665358,37.6982885 22.6665358,37.3259985 L22.6665358,33.1563766 C23.8419127,34.0702941 25.1935398,34.7471389 26.6426671,35.1398378 C27.6059186,35.4007946 28.5942952,35.5312098 29.5810468,35.5312098 C30.5843609,35.5312098 31.586175,35.3963716 32.557739,35.126632 C32.7859894,35.0632567 32.9638647,34.882293 33.0251773,34.651223 C33.0864274,34.4200899 33.0219273,34.1734131 32.855552,34.0031909 C31.9918631,33.1189707 30.988174,32.3852588 29.8907973,31.828909 C30.1456727,31.7486 30.3989231,31.6626675 30.6497985,31.5702901 C33.4612405,30.5358144 35.9498069,28.7660472 37.8464349,26.4523778 C37.9976852,26.268002 38.0407477,26.0167126 37.9598101,25.7917716 Z" id="Shape" transform="translate(22.000000, 22.000000) rotate(-30.000000) translate(-22.000000, -22.000000) "></path>
            </g>
            <g id="drug-copy-3" transform="translate(390.000000, 270.000000)"></g>
            <g id="drug-copy-2" transform="translate(368.000000, 278.000000)" fill="#F4F6F8" fill-rule="nonzero">
                <path d="M37.9598101,25.7917716 C37.8788725,25.5669571 37.6860597,25.4022952 37.4533093,25.3592026 C35.2719933,24.9558253 33.0301773,24.9992339 30.8661113,25.4762856 C31.1759243,25.0835235 31.4743623,24.6806518 31.7594253,24.2688708 C34.1693041,20.7893627 35.6213064,16.7284201 35.9584944,12.5249939 C35.9776195,12.286468 35.8703068,12.0556508 35.6764315,11.9184115 C35.4824937,11.7811091 35.2312433,11.7580463 35.0161804,11.8578165 C31.4651748,13.5042453 28.3649199,16.0367899 26.0062911,19.2094052 C26.0062911,19.1954412 26.0066036,19.1815403 26.0066036,19.1676395 C26.0066036,14.645252 24.8201017,10.2072174 22.5752856,6.33330437 C22.4556605,6.12687681 22.2367226,6 22.0000972,6 C21.7634094,6 21.5444715,6.12687681 21.4249088,6.33330437 C19.1800302,10.2072806 17.9935284,14.6453152 17.9935284,19.1676395 C17.9935284,19.1816035 17.9938409,19.1954412 17.9938409,19.2094052 C15.6353371,16.037169 12.5350822,13.5046876 8.98395152,11.858006 C8.76876368,11.7581727 8.51757578,11.7812986 8.32363797,11.9184747 C8.12976266,12.0557771 8.02238749,12.2865944 8.04151252,12.5251203 C8.37870056,16.7285465 9.83070287,20.7894891 12.2404567,24.268934 C12.5257072,24.6809677 12.8243326,25.0839658 13.1342081,25.4768543 C10.9684547,24.9994234 8.72732611,24.9562044 6.54669764,25.3593922 C6.31388477,25.4024848 6.12107197,25.5670834 6.04019684,25.7919612 C5.95925921,26.0167758 6.00232178,26.2681915 6.15338452,26.4524409 C8.05001254,28.7661104 10.5385165,30.5358776 13.350021,31.5703533 C13.6010214,31.6626675 13.8543343,31.7485369 14.1092097,31.828909 C13.0120204,32.385006 12.0079563,33.1190339 11.14358,34.0038859 C10.9773297,34.1741081 10.9127671,34.4207849 10.9739547,34.6519181 C11.0352048,34.8830512 11.2130801,35.064015 11.4413304,35.127327 C12.412457,35.3969402 13.4138336,35.5317784 14.4173352,35.5317784 C15.4040867,35.5317784 16.3927133,35.4013632 17.3564023,35.140596 C18.8052171,34.7481498 20.1570318,34.0711155 21.3331587,33.1568189 L21.3331587,37.3259985 C21.3331587,37.6982253 21.6315966,38 21.9998472,38 C22.3680978,38 22.6665358,37.6982885 22.6665358,37.3259985 L22.6665358,33.1563766 C23.8419127,34.0702941 25.1935398,34.7471389 26.6426671,35.1398378 C27.6059186,35.4007946 28.5942952,35.5312098 29.5810468,35.5312098 C30.5843609,35.5312098 31.586175,35.3963716 32.557739,35.126632 C32.7859894,35.0632567 32.9638647,34.882293 33.0251773,34.651223 C33.0864274,34.4200899 33.0219273,34.1734131 32.855552,34.0031909 C31.9918631,33.1189707 30.988174,32.3852588 29.8907973,31.828909 C30.1456727,31.7486 30.3989231,31.6626675 30.6497985,31.5702901 C33.4612405,30.5358144 35.9498069,28.7660472 37.8464349,26.4523778 C37.9976852,26.268002 38.0407477,26.0167126 37.9598101,25.7917716 Z" id="Shape" transform="translate(22.000000, 22.000000) rotate(-30.000000) translate(-22.000000, -22.000000) "></path>
            </g>
            <g id="drug-copy" transform="translate(113.000000, 0.000000)" fill="#F4F6F8" fill-rule="nonzero">
                <path d="M37.9598101,25.7917716 C37.8788725,25.5669571 37.6860597,25.4022952 37.4533093,25.3592026 C35.2719933,24.9558253 33.0301773,24.9992339 30.8661113,25.4762856 C31.1759243,25.0835235 31.4743623,24.6806518 31.7594253,24.2688708 C34.1693041,20.7893627 35.6213064,16.7284201 35.9584944,12.5249939 C35.9776195,12.286468 35.8703068,12.0556508 35.6764315,11.9184115 C35.4824937,11.7811091 35.2312433,11.7580463 35.0161804,11.8578165 C31.4651748,13.5042453 28.3649199,16.0367899 26.0062911,19.2094052 C26.0062911,19.1954412 26.0066036,19.1815403 26.0066036,19.1676395 C26.0066036,14.645252 24.8201017,10.2072174 22.5752856,6.33330437 C22.4556605,6.12687681 22.2367226,6 22.0000972,6 C21.7634094,6 21.5444715,6.12687681 21.4249088,6.33330437 C19.1800302,10.2072806 17.9935284,14.6453152 17.9935284,19.1676395 C17.9935284,19.1816035 17.9938409,19.1954412 17.9938409,19.2094052 C15.6353371,16.037169 12.5350822,13.5046876 8.98395152,11.858006 C8.76876368,11.7581727 8.51757578,11.7812986 8.32363797,11.9184747 C8.12976266,12.0557771 8.02238749,12.2865944 8.04151252,12.5251203 C8.37870056,16.7285465 9.83070287,20.7894891 12.2404567,24.268934 C12.5257072,24.6809677 12.8243326,25.0839658 13.1342081,25.4768543 C10.9684547,24.9994234 8.72732611,24.9562044 6.54669764,25.3593922 C6.31388477,25.4024848 6.12107197,25.5670834 6.04019684,25.7919612 C5.95925921,26.0167758 6.00232178,26.2681915 6.15338452,26.4524409 C8.05001254,28.7661104 10.5385165,30.5358776 13.350021,31.5703533 C13.6010214,31.6626675 13.8543343,31.7485369 14.1092097,31.828909 C13.0120204,32.385006 12.0079563,33.1190339 11.14358,34.0038859 C10.9773297,34.1741081 10.9127671,34.4207849 10.9739547,34.6519181 C11.0352048,34.8830512 11.2130801,35.064015 11.4413304,35.127327 C12.412457,35.3969402 13.4138336,35.5317784 14.4173352,35.5317784 C15.4040867,35.5317784 16.3927133,35.4013632 17.3564023,35.140596 C18.8052171,34.7481498 20.1570318,34.0711155 21.3331587,33.1568189 L21.3331587,37.3259985 C21.3331587,37.6982253 21.6315966,38 21.9998472,38 C22.3680978,38 22.6665358,37.6982885 22.6665358,37.3259985 L22.6665358,33.1563766 C23.8419127,34.0702941 25.1935398,34.7471389 26.6426671,35.1398378 C27.6059186,35.4007946 28.5942952,35.5312098 29.5810468,35.5312098 C30.5843609,35.5312098 31.586175,35.3963716 32.557739,35.126632 C32.7859894,35.0632567 32.9638647,34.882293 33.0251773,34.651223 C33.0864274,34.4200899 33.0219273,34.1734131 32.855552,34.0031909 C31.9918631,33.1189707 30.988174,32.3852588 29.8907973,31.828909 C30.1456727,31.7486 30.3989231,31.6626675 30.6497985,31.5702901 C33.4612405,30.5358144 35.9498069,28.7660472 37.8464349,26.4523778 C37.9976852,26.268002 38.0407477,26.0167126 37.9598101,25.7917716 Z" id="Shape" transform="translate(22.000000, 22.000000) rotate(-30.000000) translate(-22.000000, -22.000000) "></path>
            </g>
        </g>
        <g id="Group-39" transform="translate(277.000000, 9.000000)">
            <g id="Group-25" transform="translate(2.000000, 35.000000)">
                <path d="M69.769066,68.8405305 C69.769066,68.8405305 57.2131963,103.562162 52.6443134,103.395129 C49.2130428,103.270517 26.2632937,71.682741 22.5686869,66.2157278 C18.8767135,60.7460634 11.706069,47.9004384 11.706069,47.9004384 L21.0466037,44.9733857 C21.0466037,44.9733857 37.1232782,64.4658594 41.2497563,67.9655963 C45.3762345,71.4626818 47.1142533,72.7750831 47.1142533,72.7750831 L51.8964386,59.6298594 L69.769066,68.8405305 Z" id="Fill-1" fill="#C19D8F"></path>
                <path d="M62.8230472,32.664387 C57.7669923,34.0192094 56.0210734,38.5476568 53.8511831,47.8988476 C51.6786596,57.247387 48.5186253,66.0736173 48.5186253,66.0736173 L65.1456724,73.871137 C65.1456724,73.871137 68.1450717,57.247387 69.2510837,46.7481765 C70.3570957,36.2516173 67.2365618,31.4819002 62.8230472,32.664387" id="Fill-3" fill="#FAFBFC"></path>
                <path d="M125.977386,142.248836 C125.977386,142.248836 129.445927,173.995033 130.241865,211.007995 L85.245913,211.008905 C78.1550915,179.935962 69.7682759,142.752586 69.7682759,142.752586 L125.977386,142.248836 Z" id="Fill-11" fill="#C298DE"></path>
                <path d="M100.078272,0.263452182 C100.078272,0.263452182 101.168483,8.8139456 102.061193,13.1647548 C102.956536,17.5129127 103.701778,19.8063009 104.362752,21.1372614 C105.821634,24.0802219 114.782965,33.0522745 114.782965,33.0522745 C114.782965,33.0522745 86.8508947,47.899643 78.6400723,47.899643 C70.4292498,47.899643 73.3075144,31.3130114 73.3075144,31.3130114 C73.3075144,31.3130114 80.0033474,29.5850477 79,25 C78.5872683,23.1139188 75,23 75,23 C78.439184,23 85.6711486,6.5629785 85.6711486,6.5629785 L100.078272,0.263452182 Z" id="Fill-13" fill="#C19D8F"></path>
                <path d="M67,40 C70.5258784,36.5776353 72.5258784,35.5776353 73,37 C75,43 80.4554865,42.2613307 83,42 C94.3392239,40.8354211 102.203948,36.600329 107,37 C113.785208,37.565434 112.451875,39.565434 103,43 L109,151 L55,146 L67,40 Z" id="Rectangle" fill="#DCE9F4"></path>
                <path d="M89.3444251,185.148717 C89.3444251,185.148717 88.7737403,196.715945 88.0692516,210.983332 L51.8603975,210.981965 C51.2508606,188.148284 51.4334368,167.792121 51,165 C50.4035397,161.157711 54,143 54,143 L78.8531112,148.454506 L89.3444251,185.148717 Z" id="Fill-15" fill="#C298DE"></path>
                <path d="M113,23 L137.808818,37.1642002 C137.808818,37.1642002 132.13129,60.5647134 131.815286,69.8655292 C131.501916,79.1663449 128.373027,127.273914 128.186513,152.636957 C128.099958,164.407175 132.907861,192.423818 130.522404,210.934417 L92.5218475,211.039922 C92.6633822,179.251189 94.4882803,111.054689 93,111 C89.7466855,110.880452 91.9764685,62.2498193 89,42 C88.4538121,38.2841181 87,38 88,35 L113,23 Z M82,37 C70.4699345,35.5106062 59.84278,107.143719 55,141 C53.7174925,149.966118 50,162 49,156 C49,156 57.1410422,69.8655292 58.4024226,60.5647134 C59.6638029,51.2638976 62.8238372,32.6649173 62.8238372,32.6649173 L76.6595208,28.3777397 L82.3054487,36.8566476" id="Shape" fill="#FAFBFC"></path>
                <polygon id="Fill-19" fill="#FAFBFC" points="113.813772 17.6511989 88.3043954 34.855587 95.3196715 42.973916 115.093586 22.6913502"></polygon>
                <polygon id="Fill-21" fill="#FAFBFC" points="82.305712 36.8563824 75.3457365 42.4824745 76.6571507 28.3774745 79.264179 24.6921456"></polygon>
                <path d="M55.4217202,87.2830831 L30.8972206,94.4151226 C28.3797266,95.1362805 25.4566949,93.8318331 24.3559496,91.5066292 L0.476623714,40.1347344 C-0.613588122,37.830741 0.51349078,35.3729713 3.00728452,34.6438594 L27.3132151,27.4137213 C31.7398964,26.9762542 33.9519205,27.848537 35.0710993,30.2108594 L59.0083591,81.1903594 C60.1407048,83.5765436 59.7114668,85.2468726 55.4217202,87.2830831" id="Fill-23" fill="#333333"></path>
            </g>
            <g id="Group-28" transform="translate(0.000000, 62.000000)">
                <mask id="mask-4" fill="white">
                    <use xlink:href="#path-3"></use>
                </mask>
                <g id="Clip-27"></g>
                <path d="M27.4023332,0.661169231 L2.97038553,7.86723191 C1.12706118,8.40208775 0.0210665641,9.86437835 0,11.5163715 L0,11.5163715 L0,11.608588 C0.00789996152,12.1776957 0.142199307,12.7652467 0.41606464,13.3422587 L0.41606464,13.3422587 L24.3898145,64.6199157 C25.4905425,66.9385026 28.4293282,68.2348034 30.9625825,67.5128798 L30.9625825,67.5128798 L55.6051958,60.3779556 C58.2595829,59.6244148 59.4972436,57.076604 58.3570158,54.6868786 L58.3570158,54.6868786 L34.22,3.55940285 C33.3088711,1.65183818 31.1495483,0.439849573 28.9691589,0.439849573 L28.9691589,0.439849573 C28.4424948,0.439849573 27.9131974,0.510988034 27.4023332,0.661169231" id="Fill-26" fill="#F4F6F8" mask="url(#mask-4)"></path>
            </g>
            <g id="Group-38" transform="translate(33.000000, 0.000000)">
                <path d="M94.5847858,109.504336 C94.5847858,109.504336 71.5480079,147.598956 68.474841,148.911192 C65.4016742,150.223428 25.6580439,124.442623 18.1946387,119.628439 C10.7312335,114.819556 4.48645208,110.090203 3.55252865,109.32672 C2.62126597,108.560586 0.3995393,100.795858 0.479361815,100.825019 C0.561845081,100.848878 1.52237601,99.4571121 1.52237601,99.4571121 L1.98800735,96.8856589 L2.92193078,95.1386614 L4.12991151,92.3233179 L5.50285877,89.9718964 C5.50285877,89.9718964 9.41416202,94.3804804 11.8274627,97.0049532 C14.2460849,99.6294259 17.0984095,101.599106 17.0984095,101.599106 C17.0984095,101.599106 16.8775672,97.4423653 17.0984095,96.567541 C17.316591,95.6927168 16.6593856,92.8508635 16.6593856,92.8508635 C18.8864619,94.2836212 20.1698305,95.0524061 20.5094916,95.1572183 C21.0189833,95.3144366 23.9019485,105.816819 24.5618147,106.659832 C25.21902,107.502844 26.9751154,114.064026 36.1946159,117.560672 C52.6965905,123.824944 61.862876,126.181667 61.862876,126.181667 C61.2109921,126.088883 76.8907949,97.7127655 76.8907949,97.7127655 L94.5847858,109.504336 Z" id="Fill-29" fill="#C19D8F"></path>
                <g id="Group-33" transform="translate(71.840264, 67.346042)">
                    <mask id="mask-6" fill="white">
                        <use xlink:href="#path-5"></use>
                    </mask>
                    <g id="Clip-32"></g>
                    <path d="M36.5652584,19.7442365 C34.3728,30.1175314 19.1240388,52.7648756 19.1240388,52.7648756 L0.421623529,38.8021503 C0.421623529,38.8021503 7.74400892,24.2164441 11.8309217,16.5736614 C16.3541976,8.11437595 20.5714871,-2.16083253 28.5750246,0.837428771 C36.2991834,3.73230175 38.318693,11.4334061 36.5652584,19.7442365" id="Fill-31" fill="#FAFBFC" mask="url(#mask-6)"></path>
                </g>
                <path d="M31.3648216,21.45301 C31.5426177,22.8666147 31.979991,27.4500561 33,31 C33.5064523,32.7626092 34.64865,33.8381169 35,35 C35.559536,36.8549963 34.6027107,40.0063706 35,43 C35.3527318,45.6578828 37.0423643,48.1555092 37.7506228,50.0518101 C39.2539468,54.0813036 40.9887561,59.6165552 42.2313266,60.1361478 C43.4765579,60.6557404 54.4015994,58.73908 56.4556988,57.2333219 C58.512459,55.7302148 69.4082323,43.7981422 67.0880579,34.9783231 C67.0880579,34.9783231 69.9457039,35.3468097 71.7017992,26.625077 C72.1594483,24.350534 62.8760898,17.8847875 61.4313023,15.6288013 C57.9244331,10.1465693 45.1288839,14.462369 41.4730127,14.7433731 C37.8144808,15.0243773 36.404283,13.9189175 36.404283,13.9189175 C34.4113809,15.7189347 31.1014073,19.3375259 31.3648216,21.45301 Z" id="Fill-34" fill="#C19D8F"></path>
                <g id="Group-37" transform="translate(43.500000, 32.000000) scale(-1, 1) translate(-43.500000, -32.000000) translate(33.000000, 25.000000)" fill="#333333">
                    <g id="Group-38" transform="translate(10.603884, 7.076762) rotate(5.000000) translate(-10.603884, -7.076762) translate(1.103884, 1.076762)">
                        <path d="M16.1430731,8.46208849 C16.7296877,8.95885477 16.8036757,9.83783264 16.305347,10.4241804 C15.8070183,11.0105281 14.9265528,11.0855639 14.3399383,10.5887976 C13.7533238,10.0920314 13.6793357,9.21305348 14.1776644,8.62670577 C14.6759932,8.04035805 15.5564586,7.96532222 16.1430731,8.46208849" id="Fill-2787" transform="translate(15.241506, 9.525443) rotate(20.000000) translate(-15.241506, -9.525443) "></path>
                        <path d="M7.09281028,8.28813174 C7.6794248,8.78489802 7.75100735,9.66387749 7.25267862,10.2502252 C6.75434988,10.8365729 5.87388601,10.909207 5.2872699,10.4148425 C4.70065539,9.9180762 4.62907284,9.03909673 5.12740316,8.4503473 C5.62573189,7.86399959 6.50379026,7.79136706 7.09281028,8.28813174" id="Fill-2788" transform="translate(6.190040, 9.350491) rotate(20.000000) translate(-6.190040, -9.350491) "></path>
                        <path d="M18.53763,2.36918066 C18.397816,2.81359004 17.0916344,2.80004426 15.6552577,3.23570493 C14.2068837,3.625741 13.1070982,4.33257242 12.7512851,4.02779041 C12.3834127,3.77105063 13.2384031,2.2093715 15.2016674,1.65087476 C17.1625325,1.08277276 18.713506,1.95596967 18.53763,2.36918066" id="Fill-2789" transform="translate(15.609567, 2.783255) rotate(20.000000) translate(-15.609567, -2.783255) "></path>
                        <path d="M1.27948115,6.18295248 C0.930854363,5.92379825 1.48030218,4.42716759 2.8187536,2.93481815 C4.17166195,1.40643345 5.9039656,0.896123828 6.08409694,1.32110775 C6.2786677,1.73647527 5.22441336,2.70506325 4.03520217,4.04840773 C2.83156112,5.38695833 1.65936204,6.46850487 1.27948115,6.18295248" id="Fill-2790" transform="translate(3.642279, 3.703136) rotate(20.000000) translate(-3.642279, -3.703136) "></path>
                    </g>
                </g>
                <path d="M31.3658859,21.4538053 C31.3658859,21.4538053 32.0842885,18.3627596 34.9206485,19.0228543 C37.7570086,19.6855999 43.4217464,19.3012075 47.5778387,18.1453791 C51.7286095,16.9868997 55.4483387,14.5320898 55.4483387,14.5320898 C55.4483387,14.5320898 56.5791577,20.0275767 58.0186237,21.2841424 C59.4607505,22.5380572 60.3787094,25.1015573 60.9081987,26.8538568 C61.4376881,28.6035053 63.6833615,29.112494 63.6833615,29.112494 C63.6833615,29.112494 64.7077505,24.2028743 66.9161734,23.8582465 C71.2957687,23.174293 70.7662794,29.0621253 68.9649513,30.9787857 C67.1609624,32.8954461 65.2665081,34.3667415 65.2665081,34.3667415 C65.2665081,34.3667415 65.7880152,36.8931279 66.6713843,38.7276078 C67.5547535,40.5620878 70.2633975,43.117635 70.2633975,43.117635 C70.2633975,43.117635 71.4181632,31.4082449 74.1986475,26.0373542 C76.9791318,20.6691145 76.806183,10.7889024 68.7786987,8.70788107 C68.7786987,8.70788107 66.9427809,-0.212675308 56.3929051,0.235340748 C45.8430294,0.683356804 37.4164325,4.88251321 32.7654406,4.43714814 C28.1144487,3.99178306 26.73618,3.03212737 26.73618,3.03212737 C26.73618,3.03212737 24.4133448,10.6324944 27.4359574,14.6619879 C30.4612307,18.6941325 31.3658859,21.4538053 31.3658859,21.4538053" id="Fill-36" fill="#333333"></path>
                <path d="M40,48 C43.3333333,50.6666667 46.6666667,50.6666667 50,48" id="Path-2" stroke="#333333" stroke-linecap="round" stroke-linejoin="round"></path>
            </g>
        </g>
        <g id="Group-2" transform="translate(159.000000, 180.000000)" fill-rule="nonzero">
            <path d="M57.7120913,7.10542736e-15 C59.0522786,7.10542736e-15 60.3350946,0.542566072 61.2651513,1.505367 C62.195208,2.46816792 62.6923443,3.76728115 62.6420869,5.10356578 C62.6752521,6.72673762 61.9342969,8.269264 60.6454387,9.26020391 L60.6454387,50.5314393 C60.6454387,54.9832233 60.6454387,55.339858 64.5771102,61.5994106 C67.042108,65.3994141 92.9245849,103.485533 94.6624084,105.871296 C96.2970974,108.307504 96.4442131,111.446926 95.044483,114.024702 C93.3059295,117.206744 89.9109597,119.131548 86.2814158,118.992991 L9.75555913,118.992991 C6.09406684,119.129208 2.67639202,117.16624 0.955516985,113.938617 C-0.44421306,111.360842 -0.297097408,108.22142 1.33759164,105.785212 C3.05076512,103.436342 29.007192,65.3625209 31.4228898,61.5133264 C35.3545613,55.290667 35.3545613,54.9340323 35.3545613,50.4453551 L35.3545613,9.26020391 C35.0331108,9.01382058 34.7433406,8.72882132 34.4918121,8.41165944 C33.7576724,7.48329977 33.3582422,6.33531017 33.3579131,5.15275677 C33.3233447,2.39156348 35.5212007,0.116328212 38.2879087,0.0491922025 L57.7120913,0.0491922025 L57.7120913,7.10542736e-15 Z M45.719877,15.4828634 C46.6592297,15.4828634 47.4207255,14.7230508 47.4207255,13.7857744 C47.4207255,12.8484981 46.6592297,12.0886855 45.719877,12.0886855 L43.4151041,12.0886855 C42.4757514,12.0886855 41.7142556,12.8484981 41.7142556,13.7857744 C41.7142556,14.7230508 42.4757514,15.4828634 43.4151041,15.4828634 L45.719877,15.4828634 Z M47.4207255,23.5993757 C47.4207255,22.6620993 46.6592297,21.9022867 45.719877,21.9022867 L43.4151041,21.9022867 C42.4757514,21.9022867 41.7142556,22.6620993 41.7142556,23.5993757 C41.7142556,24.536652 42.4757514,25.2964646 43.4151041,25.2964646 L45.719877,25.2964646 C46.1709701,25.2964646 46.6035876,25.1176647 46.9225585,24.7993988 C47.2415295,24.4811329 47.4207255,24.0494717 47.4207255,23.5993757 Z M47.4207255,33.4375724 C47.4374639,32.97692 47.2656848,32.5292912 46.9448816,32.1975995 C46.6240784,31.8659078 46.1818532,31.6786921 45.719877,31.6789944 L43.4151041,31.6789944 C42.4757514,31.6789944 41.7142556,32.4388074 41.7142556,33.3760837 C41.7142556,34.31336 42.4757514,35.0731728 43.4151041,35.0731728 L45.719877,35.0731728 C46.6403089,35.0735585 47.3940464,34.3432862 47.4207255,33.4252747 L47.4207255,33.4375724 Z M47.4207255,43.2757692 C47.4374639,42.8151168 47.2656848,42.3674879 46.9448816,42.0357963 C46.6240784,41.7041046 46.1818532,41.5168889 45.719877,41.5171911 L43.4151041,41.5171911 C42.4757514,41.5171911 41.7142556,42.2770041 41.7142556,43.2142805 C41.7142556,44.1515568 42.4757514,44.9113694 43.4151041,44.9113694 L45.719877,44.9113694 C46.6496869,44.9114668 47.40725,44.1665331 47.4207255,43.2388759 L47.4207255,43.2757692 Z M47.1249258,53.1139659 C47.1416641,52.6533135 46.969885,52.2056847 46.6490819,51.873993 C46.3282787,51.5423013 45.8860534,51.3550856 45.4240773,51.3553879 L43.1193044,51.3553879 C42.1799517,51.3553879 41.4184559,52.1152009 41.4184559,53.0524772 C41.4184559,53.9897535 42.1799517,54.7495661 43.1193044,54.7495661 L45.4240773,54.7495661 C46.36343,54.7495661 47.1249258,53.9897535 47.1249258,53.0524772 L47.1249258,53.1139659 Z" id="Shape" fill="#F4F6F8"></path>
            <path d="M67.1549569,65.4594916 C69.7851397,69.3671138 73.9722527,75.5491702 78.2982094,81.9189828 C85.8038491,92.9707618 93.7274513,104.587745 94.6624084,105.871296 C96.2970974,108.307504 96.4442131,111.446926 95.044483,114.024702 C93.3059295,117.206744 89.9109597,119.131548 86.2814158,118.992991 L9.75555913,118.992991 C6.09406684,119.129208 2.67639202,117.16624 0.955516985,113.938617 C-0.44421306,111.360842 -0.297097408,108.22142 1.33759164,105.785212 C2.23179513,104.559202 9.73081791,93.6003052 17.0396922,82.8554762 C21.3643457,76.4977718 25.6224268,70.2150142 28.406301,66.0677985 C29.9314656,63.7957179 45.6167771,64.3461907 54,65 C59.9075499,65.460731 65.8664299,63.5451469 67.1549569,65.4594916 Z" id="Path" fill="#FDEBDB"></path>
        </g>
        <path d="M328.111111,293 L324.555556,293 L317.444444,293 L313.888889,293 C313.398222,293 313,293.4032 313,293.9 C313,294.3968 313.398222,294.8 313.888889,294.8 L316.555556,294.8 L316.555556,315.5 C316.555556,317.9822 318.550222,320 321,320 C323.449778,320 325.444444,317.9822 325.444444,315.5 L325.444444,294.8 L328.111111,294.8 C328.601778,294.8 329,294.3968 329,293.9 C329,293.4032 328.601778,293 328.111111,293 Z" id="Path" fill="#F4F6F8" fill-rule="nonzero" transform="translate(321.000000, 306.500000) rotate(-30.000000) translate(-321.000000, -306.500000) "></path>
        <path d="M138.111111,78 L134.555556,78 L127.444444,78 L123.888889,78 C123.398222,78 123,78.4032 123,78.9 C123,79.3968 123.398222,79.8 123.888889,79.8 L126.555556,79.8 L126.555556,100.5 C126.555556,102.9822 128.550222,105 131,105 C133.449778,105 135.444444,102.9822 135.444444,100.5 L135.444444,79.8 L138.111111,79.8 C138.601778,79.8 139,79.3968 139,78.9 C139,78.4032 138.601778,78 138.111111,78 Z" id="Path-Copy" fill="#F4F6F8" fill-rule="nonzero" transform="translate(131.000000, 91.500000) rotate(-30.000000) translate(-131.000000, -91.500000) "></path>
        <g id="noun_Lab-Files_1028186" transform="translate(240.500000, 76.000000) rotate(-30.000000) translate(-240.500000, -76.000000) translate(225.000000, 54.000000)" fill-rule="nonzero">
            <g id="Group">
                <g transform="translate(0.000000, 1.466667)" fill="#F4F6F8" id="Shape">
                    <path d="M0.738095238,1.47253333 C0.331404762,1.47253333 0,1.8018 0,2.20586667 L0,40.3392 C0,40.7432667 0.331404762,41.0725333 0.738095238,41.0725333 L30.2619048,41.0725333 C30.6685952,41.0725333 31,40.7432667 31,40.3392 L31,2.20586667 C31,1.8018 30.6685952,1.47253333 30.2619048,1.47253333 L21.4047619,1.47253333 C20.9973333,1.47253333 20.6666667,1.144 20.6666667,0.7392 L20.6666667,0.00586666667 L10.3333333,0.00586666667 L10.3333333,0.7392 C10.3333333,1.144 10.0026667,1.47253333 9.5952381,1.47253333 L0.738095238,1.47253333 Z"></path>
                </g>
                <path d="M10.3333333,1.47253333 L10.3333333,5.87253333 L20.6674048,5.87253333 L20.6666667,1.47253333 L10.3333333,1.47253333 Z M20.6666667,7.3392 L10.3333333,7.3392 C9.51921429,7.3392 8.85714286,6.6814 8.85714286,5.87253333 L8.85714286,1.47253333 C8.85714286,0.663666667 9.51921429,0.00586666667 10.3333333,0.00586666667 L20.6666667,0.00586666667 C21.4807857,0.00586666667 22.1428571,0.663666667 22.1428571,1.47253333 L22.1428571,5.87253333 C22.1428571,6.6814 21.4807857,7.3392 20.6666667,7.3392 L20.6666667,7.3392 Z" id="Shape" fill="#FFFFFF"></path>
            </g>
        </g>
    </g>
</svg>