<?xml version="1.0" encoding="UTF-8"?>
<svg width="159px" height="144px" viewBox="0 0 159 144" version="1.1" xmlns="http://www.w3.org/2000/svg" xmlns:xlink="http://www.w3.org/1999/xlink">
    <!-- Generator: Sketch 54.1 (76490) - https://sketchapp.com -->
    <title>Group 10</title>
    <desc>Created with Sketch.</desc>
    <g id="Workspace" stroke="none" stroke-width="1" fill="none" fill-rule="evenodd">
        <g id="Group-10">
            <path d="M65.5744017,5.27528164 L114.425598,33.1213719 C117.406925,34.8207837 120,39.2512317 120,42.6539097 L120,98.3460903 C120,101.744914 117.410306,106.177289 114.425598,107.878628 L65.5744017,135.724718 C62.5930748,137.42413 57.4103062,137.426057 54.4255983,135.724718 L5.57440169,107.878628 C2.59307476,106.179216 2.30407407e-13,101.748768 2.30407407e-13,98.3460903 L2.30407407e-13,42.6539097 C2.30407407e-13,39.2550862 2.58969379,34.8227109 5.57440169,33.1213719 L54.4255983,5.27528164 C57.4069252,3.57586986 62.5896938,3.57394265 65.5744017,5.27528164 Z" id="Shape-Copy-3" fill="#00B398" opacity="0.203171503"></path>
            <g id="Group-7" transform="translate(49.000000, 0.000000)">
                <path d="M21.9909909,88.1896182 C23.3788029,73.6175925 19.5205688,61.6921417 10.4142136,52.5857864 C9.63316498,51.8047379 8.36683502,51.8047379 7.58578644,52.5857864 C6.80473785,53.366835 6.80473785,54.633165 7.58578644,55.4142136 C15.8127645,63.6411916 19.2878638,74.3824075 18.0090091,87.8103818 C16.5800745,102.814195 22.2540354,111.514268 34.7663175,112.986301 C34.8438774,112.995426 34.9219052,113 35,113 C44.737068,113 50,108.141909 50,99 C50,97.8954305 49.1045695,97 48,97 C46.8954305,97 46,97.8954305 46,99 C46,105.822662 42.6313416,108.967439 35.1173903,108.999748 C25.0462776,107.768216 20.7579942,101.136084 21.9909909,88.1896182 Z" id="Path-2" fill="#333333" fill-rule="nonzero"></path>
                <path d="M94.0076989,76.4487932 C99.5305464,76.4487932 104.007699,80.9259457 104.007699,86.4487932 L104.007699,100.448793 C104.007699,105.971641 99.5305464,110.448793 94.0076989,110.448793 C88.4848514,110.448793 84.0076989,105.971641 84.0076989,100.448793 L84.0076989,86.4487932 C84.0076989,80.9259457 88.4848514,76.4487932 94.0076989,76.4487932 Z M94.0076989,80.4487932 C90.6939904,80.4487932 88.0076989,83.1350847 88.0076989,86.4487932 L88.0076989,100.448793 C88.0076989,103.762502 90.6939904,106.448793 94.0076989,106.448793 C97.3214074,106.448793 100.007699,103.762502 100.007699,100.448793 L100.007699,86.4487932 C100.007699,83.1350847 97.3214074,80.4487932 94.0076989,80.4487932 Z" id="Rectangle" fill="#333333" fill-rule="nonzero" transform="translate(94.007699, 93.448793) rotate(46.000000) translate(-94.007699, -93.448793) "></path>
                <path d="M86.1753603,62.0025903 C91.6982078,62.0025903 96.1753603,66.4797428 96.1753603,72.0025903 L96.1753603,86.0025903 C96.1753603,91.5254378 91.6982078,96.0025903 86.1753603,96.0025903 C80.6525128,96.0025903 76.1753603,91.5254378 76.1753603,86.0025903 L76.1753603,72.0025903 C76.1753603,66.4797428 80.6525128,62.0025903 86.1753603,62.0025903 Z M86.1753603,66.0025903 C82.8616518,66.0025903 80.1753603,68.6888818 80.1753603,72.0025903 L80.1753603,86.0025903 C80.1753603,89.3162988 82.8616518,92.0025903 86.1753603,92.0025903 C89.4890688,92.0025903 92.1753603,89.3162988 92.1753603,86.0025903 L92.1753603,72.0025903 C92.1753603,68.6888818 89.4890688,66.0025903 86.1753603,66.0025903 Z" id="Rectangle-Copy-12" fill="#333333" fill-rule="nonzero" transform="translate(86.175360, 79.002590) rotate(46.000000) translate(-86.175360, -79.002590) "></path>
                <path d="M77.1753603,48.0025903 C82.6982078,48.0025903 87.1753603,52.4797428 87.1753603,58.0025903 L87.1753603,72.0025903 C87.1753603,77.5254378 82.6982078,82.0025903 77.1753603,82.0025903 C71.6525128,82.0025903 67.1753603,77.5254378 67.1753603,72.0025903 L67.1753603,58.0025903 C67.1753603,52.4797428 71.6525128,48.0025903 77.1753603,48.0025903 Z M77.1753603,52.0025903 C73.8616518,52.0025903 71.1753603,54.6888818 71.1753603,58.0025903 L71.1753603,72.0025903 C71.1753603,75.3162988 73.8616518,78.0025903 77.1753603,78.0025903 C80.4890688,78.0025903 83.1753603,75.3162988 83.1753603,72.0025903 L83.1753603,58.0025903 C83.1753603,54.6888818 80.4890688,52.0025903 77.1753603,52.0025903 Z" id="Rectangle-Copy-13" fill="#333333" fill-rule="nonzero" transform="translate(77.175360, 65.002590) rotate(46.000000) translate(-77.175360, -65.002590) "></path>
                <path d="M28.5593596,111.387283 C46.7046099,130.230428 68.5642293,128.82013 93.3050463,107.515538 C94.1420546,106.79478 94.2362948,105.531962 93.5155376,104.694954 C92.7947805,103.857945 91.531962,103.763705 90.6949537,104.484462 C67.4357707,124.513203 47.9620567,125.769572 31.4406404,108.612717 C30.674465,107.817073 29.4083604,107.793184 28.6127166,108.55936 C27.8170729,109.325535 27.7931841,110.59164 28.5593596,111.387283 Z" id="Path-3" fill="#333333" fill-rule="nonzero"></path>
                <path d="M4.17863367,106.649793 L21.4142136,89.4142136 C22.1952621,88.633165 22.1952621,87.366835 21.4142136,86.5857864 C20.633165,85.8047379 19.366835,85.8047379 18.5857864,86.5857864 L0.585786438,104.585786 C0.112939625,105.058633 -0.0923054614,105.736512 0.0388386486,106.392232 C4.19718315,127.183955 16.8160452,139.802817 37.6077677,143.961161 C38.282295,144.096067 38.9788158,143.874862 39.4519054,143.375489 L57.4519054,124.375489 C58.2115671,123.573624 58.1773545,122.307756 57.3754893,121.548095 C56.5736241,120.788433 55.3077564,120.822646 54.5480946,121.624511 L37.3160221,139.813921 C19.1028027,135.841174 8.14262745,124.872087 4.17863367,106.649793 Z" id="Path-4" fill="#333333" fill-rule="nonzero"></path>
                <path d="M38.8834838,70.3273272 C31.8924268,50.7523675 25.1645047,41.1916361 17.7791369,42.0122325 C10.7686143,42.7911795 7,46.9785288 7,54 C7,55.1045695 7.8954305,56 9,56 C10.1045695,56 11,55.1045695 11,54 C11,49.0214712 13.2313857,46.5421538 18.2208631,45.9877675 C22.8354953,45.4750306 28.7742399,53.9142991 35.1165162,71.6726728 C35.4880231,72.7128922 36.6324534,73.2549907 37.6726728,72.8834838 C38.7128922,72.5119769 39.2549907,71.3675466 38.8834838,70.3273272 Z" id="Path-6" fill="#333333" fill-rule="nonzero"></path>
                <path d="M70,61 C85.4269212,46.1712 95.1055767,36.7817057 99.0359666,32.8315173 C104.931551,26.9062346 97,13 87,22 C77,31 52,56 47,59 C42,62 38,62 33,61" id="Line-6" stroke="#333333" stroke-width="4" stroke-linecap="round" stroke-linejoin="round"></path>
                <path d="M38.8136693,39.6570269 L22.3136693,4.15702693 C21.8481082,3.15536503 20.6586888,2.72076951 19.6570269,3.18633068 C18.655365,3.65189185 18.2207695,4.84131116 18.6863307,5.84297307 L35.1863307,41.3429731 C35.6518918,42.344635 36.8413112,42.7792305 37.8429731,42.3136693 C38.844635,41.8481082 39.2792305,40.6586888 38.8136693,39.6570269 Z" id="Line-5" fill="#333333" fill-rule="nonzero"></path>
                <path d="M49.9838996,28.2467362 L46.9838996,4.74673623 C46.8440258,3.65105875 45.8424137,2.87622672 44.7467362,3.01610044 C43.6510588,3.15597416 42.8762267,4.1575863 43.0161004,5.25326377 L46.0161004,28.7532638 C46.1559742,29.8489412 47.1575863,30.6237733 48.2532638,30.4838996 C49.3489412,30.3440258 50.1237733,29.3424137 49.9838996,28.2467362 Z" id="Line-5" fill="#333333" fill-rule="nonzero"></path>
                <path d="M63.7955788,29.38085 L76.7955788,2.88084999 C77.2820588,1.88917919 76.8725208,0.690901195 75.88085,0.20442118 C74.8891792,-0.282058835 73.6909012,0.127479213 73.2044212,1.11915001 L60.2044212,27.61915 C59.7179412,28.6108208 60.1274792,29.8090988 61.11915,30.2955788 C62.1108208,30.7820588 63.3090988,30.3725208 63.7955788,29.38085 Z" id="Line-5-Copy" fill="#333333" fill-rule="nonzero"></path>
            </g>
        </g>
    </g>
</svg>